<svg width="1400" height="492" fill="none" xmlns="http://www.w3.org/2000/svg">
<rect width="1400" height="492" fill="white"/>
<path d="M208.922 450.25H212.625L209.953 466.047C209.797 467.109 209.469 468.089 208.969 468.984C208.469 469.88 207.844 470.651 207.094 471.297C206.344 471.943 205.49 472.448 204.531 472.812C203.573 473.167 202.557 473.333 201.484 473.312C200.432 473.292 199.505 473.109 198.703 472.766C197.901 472.422 197.224 471.943 196.672 471.328C196.13 470.714 195.719 469.984 195.437 469.141C195.167 468.297 195.036 467.365 195.047 466.344L198.734 466.359C198.714 466.891 198.75 467.391 198.844 467.859C198.948 468.318 199.12 468.724 199.359 469.078C199.599 469.422 199.917 469.703 200.312 469.922C200.708 470.13 201.198 470.24 201.781 470.25C202.385 470.271 202.937 470.167 203.437 469.938C203.948 469.708 204.391 469.401 204.766 469.016C205.151 468.62 205.464 468.167 205.703 467.656C205.953 467.135 206.125 466.599 206.219 466.047L208.922 450.25Z" fill="#607D8B"/>
<path d="M214.328 464.5C214.474 463.333 214.776 462.219 215.234 461.156C215.703 460.083 216.312 459.146 217.062 458.344C217.823 457.542 218.714 456.906 219.734 456.438C220.766 455.969 221.911 455.75 223.172 455.781C224.37 455.812 225.396 456.073 226.25 456.562C227.115 457.042 227.807 457.677 228.328 458.469C228.859 459.26 229.224 460.167 229.422 461.188C229.63 462.198 229.677 463.25 229.562 464.344L229.531 464.688C229.385 465.854 229.078 466.969 228.609 468.031C228.141 469.083 227.526 470.01 226.766 470.812C226.016 471.604 225.125 472.229 224.094 472.688C223.073 473.146 221.937 473.359 220.687 473.328C219.5 473.297 218.474 473.042 217.609 472.562C216.755 472.083 216.062 471.453 215.531 470.672C215 469.891 214.63 468.995 214.422 467.984C214.224 466.974 214.182 465.922 214.297 464.828L214.328 464.5ZM217.937 464.828C217.896 465.214 217.87 465.615 217.859 466.031C217.859 466.448 217.891 466.859 217.953 467.266C218.016 467.672 218.115 468.057 218.25 468.422C218.385 468.786 218.573 469.109 218.812 469.391C219.052 469.672 219.344 469.901 219.687 470.078C220.042 470.255 220.464 470.349 220.953 470.359C221.734 470.391 222.411 470.234 222.984 469.891C223.568 469.547 224.057 469.099 224.453 468.547C224.849 467.995 225.161 467.375 225.391 466.688C225.63 466 225.792 465.328 225.875 464.672L225.906 464.359C225.969 463.786 225.984 463.177 225.953 462.531C225.922 461.885 225.802 461.292 225.594 460.75C225.396 460.198 225.078 459.74 224.641 459.375C224.214 459 223.635 458.802 222.906 458.781C222.125 458.76 221.443 458.922 220.859 459.266C220.276 459.609 219.786 460.062 219.391 460.625C218.995 461.177 218.677 461.797 218.437 462.484C218.208 463.172 218.052 463.844 217.969 464.5L217.937 464.828Z" fill="#607D8B"/>
<path d="M243.859 468.328C243.922 467.891 243.839 467.536 243.609 467.266C243.391 466.995 243.104 466.776 242.75 466.609C242.396 466.443 242.01 466.312 241.594 466.219C241.187 466.125 240.839 466.042 240.547 465.969C240.12 465.865 239.677 465.745 239.219 465.609C238.76 465.474 238.312 465.312 237.875 465.125C237.448 464.938 237.036 464.719 236.641 464.469C236.255 464.208 235.922 463.911 235.641 463.578C235.359 463.245 235.135 462.87 234.969 462.453C234.812 462.026 234.75 461.547 234.781 461.016C234.812 460.411 234.937 459.865 235.156 459.375C235.375 458.875 235.667 458.432 236.031 458.047C236.396 457.651 236.818 457.307 237.297 457.016C237.776 456.724 238.281 456.49 238.812 456.312C239.344 456.125 239.885 455.99 240.437 455.906C240.99 455.812 241.531 455.771 242.062 455.781C242.885 455.792 243.682 455.911 244.453 456.141C245.234 456.359 245.922 456.693 246.516 457.141C247.12 457.589 247.599 458.151 247.953 458.828C248.307 459.495 248.479 460.281 248.469 461.188L244.844 461.172C244.854 460.745 244.781 460.375 244.625 460.062C244.469 459.74 244.255 459.474 243.984 459.266C243.724 459.047 243.411 458.885 243.047 458.781C242.693 458.677 242.312 458.625 241.906 458.625C241.542 458.625 241.161 458.661 240.766 458.734C240.37 458.807 240 458.932 239.656 459.109C239.323 459.276 239.031 459.505 238.781 459.797C238.542 460.078 238.391 460.427 238.328 460.844C238.266 461.271 238.328 461.615 238.516 461.875C238.714 462.135 238.974 462.344 239.297 462.5C239.62 462.656 239.969 462.776 240.344 462.859C240.729 462.943 241.073 463.016 241.375 463.078C241.823 463.182 242.286 463.302 242.766 463.438C243.245 463.562 243.714 463.719 244.172 463.906C244.63 464.083 245.062 464.297 245.469 464.547C245.875 464.797 246.229 465.094 246.531 465.438C246.833 465.781 247.062 466.172 247.219 466.609C247.385 467.047 247.458 467.547 247.437 468.109C247.385 469.068 247.115 469.88 246.625 470.547C246.135 471.214 245.521 471.755 244.781 472.172C244.042 472.589 243.234 472.891 242.359 473.078C241.484 473.266 240.641 473.349 239.828 473.328C238.984 473.318 238.156 473.193 237.344 472.953C236.531 472.703 235.807 472.344 235.172 471.875C234.547 471.406 234.042 470.823 233.656 470.125C233.281 469.417 233.099 468.594 233.109 467.656L236.641 467.672C236.651 468.161 236.745 468.583 236.922 468.938C237.109 469.292 237.354 469.583 237.656 469.812C237.958 470.042 238.312 470.214 238.719 470.328C239.125 470.443 239.557 470.5 240.016 470.5C240.38 470.5 240.771 470.469 241.187 470.406C241.615 470.344 242.016 470.234 242.391 470.078C242.766 469.911 243.089 469.688 243.359 469.406C243.63 469.125 243.797 468.766 243.859 468.328Z" fill="#607D8B"/>
<path d="M261.984 452L261.266 456.094H267.484L266.984 458.875H260.797L259.453 467C259.401 467.448 259.396 467.865 259.437 468.25C259.479 468.625 259.583 468.958 259.75 469.25C259.917 469.531 260.151 469.76 260.453 469.938C260.766 470.104 261.167 470.193 261.656 470.203C262.26 470.224 262.859 470.182 263.453 470.078C264.047 469.974 264.641 469.859 265.234 469.734L265.391 472.344C265.036 472.552 264.656 472.719 264.25 472.844C263.844 472.969 263.427 473.068 263 473.141C262.573 473.214 262.146 473.26 261.719 473.281C261.292 473.312 260.875 473.323 260.469 473.312C259.573 473.302 258.807 473.135 258.172 472.812C257.536 472.479 257.026 472.036 256.641 471.484C256.266 470.932 256.005 470.292 255.859 469.562C255.724 468.823 255.698 468.031 255.781 467.188L257.141 458.875H253.141L253.625 456.094H257.625L258.344 452H261.984Z" fill="#607D8B"/>
<path d="M274.672 449H283.562L279.937 469.906H284.937L284.391 473H270.5L271.047 469.906H276.25L279.344 452.109H274.125L274.672 449Z" fill="#607D8B"/>
<path d="M296.453 473.312C295.307 473.292 294.281 473.068 293.375 472.641C292.469 472.203 291.714 471.62 291.109 470.891C290.516 470.161 290.078 469.312 289.797 468.344C289.516 467.365 289.427 466.318 289.531 465.203L289.609 464.547C289.693 463.786 289.859 463.036 290.109 462.297C290.359 461.557 290.677 460.859 291.062 460.203C291.458 459.547 291.917 458.948 292.437 458.406C292.958 457.854 293.536 457.38 294.172 456.984C294.818 456.589 295.505 456.286 296.234 456.078C296.974 455.859 297.755 455.76 298.578 455.781C299.766 455.812 300.771 456.062 301.594 456.531C302.427 457 303.089 457.62 303.578 458.391C304.078 459.161 304.411 460.047 304.578 461.047C304.755 462.036 304.776 463.068 304.641 464.141L304.406 465.719H293.125C293.073 466.323 293.115 466.901 293.25 467.453C293.396 467.995 293.625 468.479 293.937 468.906C294.26 469.323 294.661 469.661 295.141 469.922C295.63 470.172 296.198 470.302 296.844 470.312C297.76 470.344 298.62 470.172 299.422 469.797C300.234 469.422 300.953 468.906 301.578 468.25L303.406 470.156C303.021 470.708 302.562 471.188 302.031 471.594C301.51 471.99 300.943 472.318 300.328 472.578C299.714 472.839 299.073 473.026 298.406 473.141C297.75 473.266 297.099 473.323 296.453 473.312ZM298.297 458.781C297.672 458.76 297.109 458.87 296.609 459.109C296.109 459.349 295.661 459.667 295.266 460.062C294.88 460.458 294.542 460.911 294.25 461.422C293.958 461.932 293.714 462.448 293.516 462.969L301.203 462.984L301.266 462.656C301.339 462.146 301.328 461.661 301.234 461.203C301.141 460.745 300.964 460.339 300.703 459.984C300.443 459.63 300.109 459.349 299.703 459.141C299.297 458.922 298.828 458.802 298.297 458.781Z" fill="#607D8B"/>
<path d="M338.641 467.031C338.714 466.458 338.646 465.964 338.437 465.547C338.229 465.13 337.943 464.771 337.578 464.469C337.214 464.167 336.797 463.911 336.328 463.703C335.859 463.495 335.401 463.312 334.953 463.156C334.172 462.885 333.401 462.552 332.641 462.156C331.891 461.76 331.219 461.292 330.625 460.75C330.042 460.198 329.578 459.562 329.234 458.844C328.901 458.125 328.766 457.297 328.828 456.359C328.891 455.318 329.177 454.396 329.687 453.594C330.198 452.781 330.839 452.104 331.609 451.562C332.38 451.01 333.245 450.599 334.203 450.328C335.161 450.047 336.12 449.917 337.078 449.938C338.089 449.958 339.016 450.141 339.859 450.484C340.714 450.828 341.448 451.307 342.062 451.922C342.677 452.526 343.151 453.25 343.484 454.094C343.818 454.938 343.969 455.87 343.937 456.891H340.297C340.286 456.339 340.208 455.828 340.062 455.359C339.927 454.891 339.714 454.484 339.422 454.141C339.141 453.797 338.786 453.526 338.359 453.328C337.932 453.13 337.422 453.026 336.828 453.016C336.318 453.005 335.818 453.073 335.328 453.219C334.839 453.354 334.391 453.562 333.984 453.844C333.589 454.125 333.255 454.479 332.984 454.906C332.724 455.323 332.562 455.802 332.5 456.344C332.437 456.896 332.521 457.37 332.75 457.766C332.99 458.151 333.302 458.484 333.687 458.766C334.083 459.036 334.516 459.271 334.984 459.469C335.464 459.656 335.917 459.823 336.344 459.969C337.146 460.25 337.917 460.599 338.656 461.016C339.406 461.432 340.062 461.927 340.625 462.5C341.187 463.062 341.625 463.719 341.937 464.469C342.26 465.208 342.391 466.047 342.328 466.984C342.255 468.057 341.964 468.995 341.453 469.797C340.943 470.589 340.297 471.25 339.516 471.781C338.734 472.302 337.859 472.693 336.891 472.953C335.922 473.203 334.953 473.318 333.984 473.297C332.943 473.276 331.964 473.099 331.047 472.766C330.13 472.422 329.333 471.943 328.656 471.328C327.99 470.714 327.464 469.969 327.078 469.094C326.703 468.219 326.531 467.24 326.562 466.156H330.219C330.229 466.781 330.318 467.344 330.484 467.844C330.661 468.344 330.917 468.771 331.25 469.125C331.594 469.479 332.01 469.755 332.5 469.953C332.99 470.151 333.552 470.255 334.187 470.266C334.698 470.276 335.203 470.219 335.703 470.094C336.203 469.958 336.656 469.755 337.062 469.484C337.479 469.214 337.828 468.875 338.109 468.469C338.391 468.062 338.568 467.583 338.641 467.031Z" fill="#607D8B"/>
<path d="M355.891 452L355.172 456.094H361.391L360.891 458.875H354.703L353.359 467C353.307 467.448 353.302 467.865 353.344 468.25C353.385 468.625 353.49 468.958 353.656 469.25C353.823 469.531 354.057 469.76 354.359 469.938C354.672 470.104 355.073 470.193 355.562 470.203C356.167 470.224 356.766 470.182 357.359 470.078C357.953 469.974 358.547 469.859 359.141 469.734L359.297 472.344C358.943 472.552 358.562 472.719 358.156 472.844C357.75 472.969 357.333 473.068 356.906 473.141C356.479 473.214 356.052 473.26 355.625 473.281C355.198 473.312 354.781 473.323 354.375 473.312C353.479 473.302 352.714 473.135 352.078 472.812C351.443 472.479 350.932 472.036 350.547 471.484C350.172 470.932 349.911 470.292 349.766 469.562C349.63 468.823 349.604 468.031 349.687 467.188L351.047 458.875H347.047L347.531 456.094H351.531L352.25 452H355.891Z" fill="#607D8B"/>
<path d="M371.406 466.422L371.641 468.219L378.344 456.094H382.531L370.875 475.562C370.542 476.135 370.172 476.682 369.766 477.203C369.359 477.724 368.906 478.182 368.406 478.578C367.917 478.974 367.37 479.286 366.766 479.516C366.172 479.745 365.521 479.859 364.812 479.859C364.469 479.849 364.125 479.812 363.781 479.75C363.448 479.698 363.115 479.63 362.781 479.547L363.594 476.656C363.823 476.677 364.052 476.698 364.281 476.719C364.51 476.75 364.734 476.76 364.953 476.75C365.297 476.74 365.609 476.651 365.891 476.484C366.182 476.328 366.443 476.13 366.672 475.891C366.911 475.651 367.13 475.385 367.328 475.094C367.526 474.812 367.714 474.547 367.891 474.297L369.437 472.016L365.297 456.094H369.172L371.406 466.422Z" fill="#607D8B"/>
<path d="M387.359 449H396.25L392.625 469.906H397.625L397.078 473H383.187L383.734 469.906H388.937L392.031 452.109H386.812L387.359 449Z" fill="#607D8B"/>
<path d="M409.141 473.312C407.995 473.292 406.969 473.068 406.062 472.641C405.156 472.203 404.401 471.62 403.797 470.891C403.203 470.161 402.766 469.312 402.484 468.344C402.203 467.365 402.115 466.318 402.219 465.203L402.297 464.547C402.38 463.786 402.547 463.036 402.797 462.297C403.047 461.557 403.365 460.859 403.75 460.203C404.146 459.547 404.604 458.948 405.125 458.406C405.646 457.854 406.224 457.38 406.859 456.984C407.505 456.589 408.193 456.286 408.922 456.078C409.661 455.859 410.443 455.76 411.266 455.781C412.453 455.812 413.458 456.062 414.281 456.531C415.115 457 415.776 457.62 416.266 458.391C416.766 459.161 417.099 460.047 417.266 461.047C417.443 462.036 417.464 463.068 417.328 464.141L417.094 465.719H405.812C405.76 466.323 405.802 466.901 405.937 467.453C406.083 467.995 406.312 468.479 406.625 468.906C406.948 469.323 407.349 469.661 407.828 469.922C408.318 470.172 408.885 470.302 409.531 470.312C410.448 470.344 411.307 470.172 412.109 469.797C412.922 469.422 413.641 468.906 414.266 468.25L416.094 470.156C415.708 470.708 415.25 471.188 414.719 471.594C414.198 471.99 413.63 472.318 413.016 472.578C412.401 472.839 411.76 473.026 411.094 473.141C410.437 473.266 409.786 473.323 409.141 473.312ZM410.984 458.781C410.359 458.76 409.797 458.87 409.297 459.109C408.797 459.349 408.349 459.667 407.953 460.062C407.568 460.458 407.229 460.911 406.937 461.422C406.646 461.932 406.401 462.448 406.203 462.969L413.891 462.984L413.953 462.656C414.026 462.146 414.016 461.661 413.922 461.203C413.828 460.745 413.651 460.339 413.391 459.984C413.13 459.63 412.797 459.349 412.391 459.141C411.984 458.922 411.516 458.802 410.984 458.781Z" fill="#607D8B"/>
<path d="M454.219 470.156C453.729 470.708 453.182 471.188 452.578 471.594C451.974 471.99 451.333 472.318 450.656 472.578C449.979 472.839 449.276 473.026 448.547 473.141C447.818 473.266 447.094 473.318 446.375 473.297C445.458 473.276 444.641 473.12 443.922 472.828C443.203 472.536 442.578 472.146 442.047 471.656C441.516 471.156 441.073 470.578 440.719 469.922C440.365 469.255 440.094 468.547 439.906 467.797C439.719 467.047 439.604 466.266 439.562 465.453C439.531 464.641 439.568 463.839 439.672 463.047L440.109 460.234C440.245 459.401 440.437 458.568 440.687 457.734C440.948 456.891 441.276 456.089 441.672 455.328C442.068 454.557 442.526 453.844 443.047 453.188C443.578 452.521 444.177 451.948 444.844 451.469C445.51 450.979 446.245 450.599 447.047 450.328C447.859 450.057 448.745 449.927 449.703 449.938C450.776 449.958 451.724 450.146 452.547 450.5C453.37 450.844 454.057 451.328 454.609 451.953C455.172 452.568 455.604 453.307 455.906 454.172C456.208 455.026 456.375 455.969 456.406 457H452.828C452.797 456.458 452.719 455.948 452.594 455.469C452.469 454.99 452.276 454.573 452.016 454.219C451.755 453.854 451.417 453.568 451 453.359C450.594 453.141 450.089 453.021 449.484 453C448.87 452.979 448.312 453.078 447.812 453.297C447.312 453.505 446.865 453.792 446.469 454.156C446.073 454.521 445.724 454.948 445.422 455.438C445.13 455.927 444.875 456.443 444.656 456.984C444.437 457.526 444.255 458.073 444.109 458.625C443.974 459.177 443.87 459.703 443.797 460.203L443.344 463.062C443.281 463.51 443.24 463.995 443.219 464.516C443.198 465.036 443.208 465.557 443.25 466.078C443.302 466.599 443.396 467.104 443.531 467.594C443.667 468.083 443.87 468.521 444.141 468.906C444.411 469.281 444.75 469.589 445.156 469.828C445.573 470.068 446.083 470.203 446.687 470.234C447.406 470.266 448.109 470.188 448.797 470C449.484 469.812 450.094 469.469 450.625 468.969L451.484 464.406H447.5L448.016 461.484H455.578L454.219 470.156Z" fill="#607D8B"/>
<path d="M468.719 470.688C468.406 471.083 468.062 471.448 467.687 471.781C467.323 472.104 466.932 472.385 466.516 472.625C466.099 472.854 465.656 473.031 465.187 473.156C464.719 473.281 464.224 473.339 463.703 473.328C462.682 473.307 461.844 473.083 461.187 472.656C460.542 472.229 460.042 471.677 459.687 471C459.344 470.312 459.125 469.542 459.031 468.688C458.948 467.833 458.953 466.969 459.047 466.094L460.703 456.094H464.359L462.687 466.141C462.635 466.609 462.604 467.089 462.594 467.578C462.583 468.057 462.641 468.495 462.766 468.891C462.891 469.276 463.109 469.599 463.422 469.859C463.734 470.109 464.187 470.24 464.781 470.25C465.667 470.281 466.443 470.115 467.109 469.75C467.786 469.375 468.37 468.828 468.859 468.109L470.953 456.094H474.609L471.687 473H468.406L468.719 470.688Z" fill="#607D8B"/>
<path d="M480.156 456.094H488.922L486.531 469.906H491.406L490.859 473H477.219L477.766 469.906H482.844L484.703 459.203H479.609L480.156 456.094ZM485.703 451.781C485.703 451.479 485.755 451.203 485.859 450.953C485.964 450.703 486.109 450.484 486.297 450.297C486.484 450.109 486.703 449.964 486.953 449.859C487.214 449.755 487.495 449.698 487.797 449.688C488.089 449.677 488.359 449.719 488.609 449.812C488.87 449.906 489.094 450.042 489.281 450.219C489.479 450.385 489.63 450.594 489.734 450.844C489.849 451.083 489.906 451.354 489.906 451.656C489.906 451.958 489.849 452.24 489.734 452.5C489.62 452.75 489.469 452.969 489.281 453.156C489.094 453.344 488.87 453.49 488.609 453.594C488.349 453.698 488.073 453.75 487.781 453.75C487.49 453.76 487.214 453.719 486.953 453.625C486.703 453.531 486.484 453.401 486.297 453.234C486.109 453.057 485.964 452.849 485.859 452.609C485.755 452.359 485.703 452.083 485.703 451.781Z" fill="#607D8B"/>
<path d="M496.219 464.516C496.302 463.818 496.443 463.115 496.641 462.406C496.839 461.698 497.089 461.016 497.391 460.359C497.703 459.703 498.068 459.094 498.484 458.531C498.911 457.969 499.396 457.479 499.937 457.062C500.49 456.646 501.104 456.323 501.781 456.094C502.458 455.865 503.198 455.76 504 455.781C504.802 455.802 505.542 455.964 506.219 456.266C506.896 456.568 507.484 457.026 507.984 457.641L509.594 449H513.25L509.094 473H505.812L506.047 471.281C505.422 471.948 504.729 472.458 503.969 472.812C503.208 473.167 502.359 473.333 501.422 473.312C500.682 473.292 500.031 473.156 499.469 472.906C498.906 472.646 498.417 472.307 498 471.891C497.594 471.464 497.255 470.974 496.984 470.422C496.724 469.859 496.521 469.271 496.375 468.656C496.24 468.031 496.156 467.396 496.125 466.75C496.104 466.104 496.125 465.474 496.187 464.859L496.219 464.516ZM499.828 464.859C499.776 465.401 499.755 465.984 499.766 466.609C499.786 467.224 499.885 467.802 500.062 468.344C500.25 468.875 500.542 469.323 500.937 469.688C501.333 470.042 501.885 470.229 502.594 470.25C503.396 470.271 504.094 470.094 504.687 469.719C505.281 469.344 505.802 468.844 506.25 468.219L507.547 460.844C507.297 460.198 506.927 459.708 506.437 459.375C505.948 459.031 505.359 458.849 504.672 458.828C503.891 458.807 503.214 458.969 502.641 459.312C502.068 459.656 501.589 460.104 501.203 460.656C500.828 461.208 500.531 461.828 500.312 462.516C500.094 463.203 499.948 463.875 499.875 464.531L499.828 464.859Z" fill="#607D8B"/>
<path d="M521.828 473.312C520.682 473.292 519.656 473.068 518.75 472.641C517.844 472.203 517.089 471.62 516.484 470.891C515.891 470.161 515.453 469.312 515.172 468.344C514.891 467.365 514.802 466.318 514.906 465.203L514.984 464.547C515.068 463.786 515.234 463.036 515.484 462.297C515.734 461.557 516.052 460.859 516.437 460.203C516.833 459.547 517.292 458.948 517.812 458.406C518.333 457.854 518.911 457.38 519.547 456.984C520.193 456.589 520.88 456.286 521.609 456.078C522.349 455.859 523.13 455.76 523.953 455.781C525.141 455.812 526.146 456.062 526.969 456.531C527.802 457 528.464 457.62 528.953 458.391C529.453 459.161 529.786 460.047 529.953 461.047C530.13 462.036 530.151 463.068 530.016 464.141L529.781 465.719H518.5C518.448 466.323 518.49 466.901 518.625 467.453C518.771 467.995 519 468.479 519.312 468.906C519.635 469.323 520.036 469.661 520.516 469.922C521.005 470.172 521.573 470.302 522.219 470.312C523.135 470.344 523.995 470.172 524.797 469.797C525.609 469.422 526.328 468.906 526.953 468.25L528.781 470.156C528.396 470.708 527.937 471.188 527.406 471.594C526.885 471.99 526.318 472.318 525.703 472.578C525.089 472.839 524.448 473.026 523.781 473.141C523.125 473.266 522.474 473.323 521.828 473.312ZM523.672 458.781C523.047 458.76 522.484 458.87 521.984 459.109C521.484 459.349 521.036 459.667 520.641 460.062C520.255 460.458 519.917 460.911 519.625 461.422C519.333 461.932 519.089 462.448 518.891 462.969L526.578 462.984L526.641 462.656C526.714 462.146 526.703 461.661 526.609 461.203C526.516 460.745 526.339 460.339 526.078 459.984C525.818 459.63 525.484 459.349 525.078 459.141C524.672 458.922 524.203 458.802 523.672 458.781Z" fill="#607D8B"/>
<path d="M49.3438 378.719H42.4688L40.0312 384H36.1406L47.2656 361.25H50.4844L53.5625 384H49.9062L49.3438 378.719ZM43.9531 375.516H48.9844L48.0469 366.641L43.9531 375.516Z" fill="#607D8B"/>
<path d="M67.4688 363L66.75 367.094H72.9688L72.4688 369.875H66.2812L64.9375 378C64.8854 378.448 64.8802 378.865 64.9219 379.25C64.9635 379.625 65.0677 379.958 65.2344 380.25C65.401 380.531 65.6354 380.76 65.9375 380.938C66.25 381.104 66.651 381.193 67.1406 381.203C67.7448 381.224 68.3438 381.182 68.9375 381.078C69.5312 380.974 70.125 380.859 70.7188 380.734L70.875 383.344C70.5208 383.552 70.1406 383.719 69.7344 383.844C69.3281 383.969 68.9115 384.068 68.4844 384.141C68.0573 384.214 67.6302 384.26 67.2031 384.281C66.776 384.312 66.3594 384.323 65.9531 384.312C65.0573 384.302 64.2917 384.135 63.6562 383.812C63.0208 383.479 62.5104 383.036 62.125 382.484C61.75 381.932 61.4896 381.292 61.3438 380.562C61.2083 379.823 61.1823 379.031 61.2656 378.188L62.625 369.875H58.625L59.1094 367.094H63.1094L63.8281 363H67.4688Z" fill="#607D8B"/>
<path d="M76.1562 375.5C76.3021 374.333 76.6042 373.219 77.0625 372.156C77.5312 371.083 78.1406 370.146 78.8906 369.344C79.651 368.542 80.5417 367.906 81.5625 367.438C82.5938 366.969 83.7396 366.75 85 366.781C86.1979 366.812 87.224 367.073 88.0781 367.562C88.9427 368.042 89.6354 368.677 90.1562 369.469C90.6875 370.26 91.0521 371.167 91.25 372.188C91.4583 373.198 91.5052 374.25 91.3906 375.344L91.3594 375.688C91.2135 376.854 90.9062 377.969 90.4375 379.031C89.9688 380.083 89.3542 381.01 88.5938 381.812C87.8438 382.604 86.9531 383.229 85.9219 383.688C84.901 384.146 83.7656 384.359 82.5156 384.328C81.3281 384.297 80.3021 384.042 79.4375 383.562C78.5833 383.083 77.8906 382.453 77.3594 381.672C76.8281 380.891 76.4583 379.995 76.25 378.984C76.0521 377.974 76.0104 376.922 76.125 375.828L76.1562 375.5ZM79.7656 375.828C79.724 376.214 79.6979 376.615 79.6875 377.031C79.6875 377.448 79.7188 377.859 79.7812 378.266C79.8438 378.672 79.9427 379.057 80.0781 379.422C80.2135 379.786 80.401 380.109 80.6406 380.391C80.8802 380.672 81.1719 380.901 81.5156 381.078C81.8698 381.255 82.2917 381.349 82.7812 381.359C83.5625 381.391 84.2396 381.234 84.8125 380.891C85.3958 380.547 85.8854 380.099 86.2812 379.547C86.6771 378.995 86.9896 378.375 87.2188 377.688C87.4583 377 87.6198 376.328 87.7031 375.672L87.7344 375.359C87.7969 374.786 87.8125 374.177 87.7812 373.531C87.75 372.885 87.6302 372.292 87.4219 371.75C87.224 371.198 86.9062 370.74 86.4688 370.375C86.0417 370 85.4635 369.802 84.7344 369.781C83.9531 369.76 83.2708 369.922 82.6875 370.266C82.1042 370.609 81.6146 371.062 81.2188 371.625C80.8229 372.177 80.5052 372.797 80.2656 373.484C80.0365 374.172 79.8802 374.844 79.7969 375.5L79.7656 375.828Z" fill="#607D8B"/>
<path d="M99.125 367.078L98.7812 368.891C99.1979 368.255 99.6875 367.745 100.25 367.359C100.812 366.964 101.484 366.771 102.266 366.781C102.891 366.781 103.427 366.922 103.875 367.203C104.333 367.474 104.651 367.922 104.828 368.547C105.255 368.016 105.729 367.589 106.25 367.266C106.771 366.932 107.385 366.776 108.094 366.797C108.76 366.807 109.302 366.964 109.719 367.266C110.146 367.557 110.469 367.938 110.688 368.406C110.917 368.865 111.057 369.38 111.109 369.953C111.172 370.526 111.177 371.094 111.125 371.656L109.078 384H105.688L107.766 371.594C107.786 371.375 107.792 371.161 107.781 370.953C107.771 370.745 107.724 370.557 107.641 370.391C107.568 370.224 107.448 370.094 107.281 370C107.125 369.896 106.917 369.844 106.656 369.844C106.26 369.844 105.932 369.948 105.672 370.156C105.411 370.354 105.177 370.615 104.969 370.938L102.703 384H99.3906L101.484 371.609C101.505 371.391 101.51 371.177 101.5 370.969C101.49 370.76 101.448 370.573 101.375 370.406C101.302 370.24 101.188 370.104 101.031 370C100.885 369.896 100.682 369.844 100.422 369.844C100.026 369.833 99.6927 369.927 99.4219 370.125C99.151 370.323 98.9062 370.573 98.6875 370.875L96.4219 384H93.0312L95.9688 367.094L99.125 367.078Z" fill="#607D8B"/>
<path d="M124.469 379.328C124.531 378.891 124.448 378.536 124.219 378.266C124 377.995 123.714 377.776 123.359 377.609C123.005 377.443 122.62 377.312 122.203 377.219C121.797 377.125 121.448 377.042 121.156 376.969C120.729 376.865 120.286 376.745 119.828 376.609C119.37 376.474 118.922 376.312 118.484 376.125C118.057 375.938 117.646 375.719 117.25 375.469C116.865 375.208 116.531 374.911 116.25 374.578C115.969 374.245 115.745 373.87 115.578 373.453C115.422 373.026 115.359 372.547 115.391 372.016C115.422 371.411 115.547 370.865 115.766 370.375C115.984 369.875 116.276 369.432 116.641 369.047C117.005 368.651 117.427 368.307 117.906 368.016C118.385 367.724 118.891 367.49 119.422 367.312C119.953 367.125 120.495 366.99 121.047 366.906C121.599 366.812 122.141 366.771 122.672 366.781C123.495 366.792 124.292 366.911 125.062 367.141C125.844 367.359 126.531 367.693 127.125 368.141C127.729 368.589 128.208 369.151 128.562 369.828C128.917 370.495 129.089 371.281 129.078 372.188L125.453 372.172C125.464 371.745 125.391 371.375 125.234 371.062C125.078 370.74 124.865 370.474 124.594 370.266C124.333 370.047 124.021 369.885 123.656 369.781C123.302 369.677 122.922 369.625 122.516 369.625C122.151 369.625 121.771 369.661 121.375 369.734C120.979 369.807 120.609 369.932 120.266 370.109C119.932 370.276 119.641 370.505 119.391 370.797C119.151 371.078 119 371.427 118.938 371.844C118.875 372.271 118.938 372.615 119.125 372.875C119.323 373.135 119.583 373.344 119.906 373.5C120.229 373.656 120.578 373.776 120.953 373.859C121.339 373.943 121.682 374.016 121.984 374.078C122.432 374.182 122.896 374.302 123.375 374.438C123.854 374.562 124.323 374.719 124.781 374.906C125.24 375.083 125.672 375.297 126.078 375.547C126.484 375.797 126.839 376.094 127.141 376.438C127.443 376.781 127.672 377.172 127.828 377.609C127.995 378.047 128.068 378.547 128.047 379.109C127.995 380.068 127.724 380.88 127.234 381.547C126.745 382.214 126.13 382.755 125.391 383.172C124.651 383.589 123.844 383.891 122.969 384.078C122.094 384.266 121.25 384.349 120.438 384.328C119.594 384.318 118.766 384.193 117.953 383.953C117.141 383.703 116.417 383.344 115.781 382.875C115.156 382.406 114.651 381.823 114.266 381.125C113.891 380.417 113.708 379.594 113.719 378.656L117.25 378.672C117.26 379.161 117.354 379.583 117.531 379.938C117.719 380.292 117.964 380.583 118.266 380.812C118.568 381.042 118.922 381.214 119.328 381.328C119.734 381.443 120.167 381.5 120.625 381.5C120.99 381.5 121.38 381.469 121.797 381.406C122.224 381.344 122.625 381.234 123 381.078C123.375 380.911 123.698 380.688 123.969 380.406C124.24 380.125 124.406 379.766 124.469 379.328Z" fill="#607D8B"/>
<path d="M460.328 361.25L461.344 371.031L466.078 361.25H470.672L466.719 384H463.281L464.656 376.031L466.531 366.516L461.359 377.125H459.438L458.172 366.453L456.672 376.344L455.344 384H451.891L455.844 361.25H460.328Z" fill="#607D8B"/>
<path d="M471.812 375.5C471.958 374.333 472.26 373.219 472.719 372.156C473.188 371.083 473.797 370.146 474.547 369.344C475.307 368.542 476.198 367.906 477.219 367.438C478.25 366.969 479.396 366.75 480.656 366.781C481.854 366.812 482.88 367.073 483.734 367.562C484.599 368.042 485.292 368.677 485.812 369.469C486.344 370.26 486.708 371.167 486.906 372.188C487.115 373.198 487.161 374.25 487.047 375.344L487.016 375.688C486.87 376.854 486.562 377.969 486.094 379.031C485.625 380.083 485.01 381.01 484.25 381.812C483.5 382.604 482.609 383.229 481.578 383.688C480.557 384.146 479.422 384.359 478.172 384.328C476.984 384.297 475.958 384.042 475.094 383.562C474.24 383.083 473.547 382.453 473.016 381.672C472.484 380.891 472.115 379.995 471.906 378.984C471.708 377.974 471.667 376.922 471.781 375.828L471.812 375.5ZM475.422 375.828C475.38 376.214 475.354 376.615 475.344 377.031C475.344 377.448 475.375 377.859 475.438 378.266C475.5 378.672 475.599 379.057 475.734 379.422C475.87 379.786 476.057 380.109 476.297 380.391C476.536 380.672 476.828 380.901 477.172 381.078C477.526 381.255 477.948 381.349 478.438 381.359C479.219 381.391 479.896 381.234 480.469 380.891C481.052 380.547 481.542 380.099 481.938 379.547C482.333 378.995 482.646 378.375 482.875 377.688C483.115 377 483.276 376.328 483.359 375.672L483.391 375.359C483.453 374.786 483.469 374.177 483.438 373.531C483.406 372.885 483.286 372.292 483.078 371.75C482.88 371.198 482.562 370.74 482.125 370.375C481.698 370 481.12 369.802 480.391 369.781C479.609 369.76 478.927 369.922 478.344 370.266C477.76 370.609 477.271 371.062 476.875 371.625C476.479 372.177 476.161 372.797 475.922 373.484C475.693 374.172 475.536 374.844 475.453 375.5L475.422 375.828Z" fill="#607D8B"/>
<path d="M494.594 360H503.484L499.859 380.906H504.859L504.312 384H490.422L490.969 380.906H496.172L499.266 363.109H494.047L494.594 360Z" fill="#607D8B"/>
<path d="M516.375 384.312C515.229 384.292 514.203 384.068 513.297 383.641C512.391 383.203 511.635 382.62 511.031 381.891C510.438 381.161 510 380.312 509.719 379.344C509.438 378.365 509.349 377.318 509.453 376.203L509.531 375.547C509.615 374.786 509.781 374.036 510.031 373.297C510.281 372.557 510.599 371.859 510.984 371.203C511.38 370.547 511.839 369.948 512.359 369.406C512.88 368.854 513.458 368.38 514.094 367.984C514.74 367.589 515.427 367.286 516.156 367.078C516.896 366.859 517.677 366.76 518.5 366.781C519.688 366.812 520.693 367.062 521.516 367.531C522.349 368 523.01 368.62 523.5 369.391C524 370.161 524.333 371.047 524.5 372.047C524.677 373.036 524.698 374.068 524.562 375.141L524.328 376.719H513.047C512.995 377.323 513.036 377.901 513.172 378.453C513.318 378.995 513.547 379.479 513.859 379.906C514.182 380.323 514.583 380.661 515.062 380.922C515.552 381.172 516.12 381.302 516.766 381.312C517.682 381.344 518.542 381.172 519.344 380.797C520.156 380.422 520.875 379.906 521.5 379.25L523.328 381.156C522.943 381.708 522.484 382.188 521.953 382.594C521.432 382.99 520.865 383.318 520.25 383.578C519.635 383.839 518.995 384.026 518.328 384.141C517.672 384.266 517.021 384.323 516.375 384.312ZM518.219 369.781C517.594 369.76 517.031 369.87 516.531 370.109C516.031 370.349 515.583 370.667 515.188 371.062C514.802 371.458 514.464 371.911 514.172 372.422C513.88 372.932 513.635 373.448 513.438 373.969L521.125 373.984L521.188 373.656C521.26 373.146 521.25 372.661 521.156 372.203C521.062 371.745 520.885 371.339 520.625 370.984C520.365 370.63 520.031 370.349 519.625 370.141C519.219 369.922 518.75 369.802 518.219 369.781Z" fill="#607D8B"/>
<path d="M534.953 381.359C535.401 381.37 535.839 381.312 536.266 381.188C536.703 381.052 537.094 380.859 537.438 380.609C537.792 380.349 538.089 380.042 538.328 379.688C538.578 379.323 538.745 378.911 538.828 378.453L542.266 378.438C542.193 379.354 541.922 380.182 541.453 380.922C540.984 381.651 540.396 382.271 539.688 382.781C538.979 383.292 538.193 383.682 537.328 383.953C536.464 384.224 535.604 384.349 534.75 384.328C533.542 384.307 532.51 384.062 531.656 383.594C530.802 383.115 530.109 382.49 529.578 381.719C529.057 380.938 528.698 380.047 528.5 379.047C528.302 378.036 528.26 376.984 528.375 375.891L528.438 375.312C528.573 374.146 528.875 373.042 529.344 372C529.812 370.948 530.422 370.031 531.172 369.25C531.932 368.469 532.823 367.854 533.844 367.406C534.865 366.958 535.995 366.75 537.234 366.781C538.161 366.802 539.005 366.974 539.766 367.297C540.536 367.609 541.188 368.047 541.719 368.609C542.26 369.161 542.672 369.823 542.953 370.594C543.234 371.365 543.349 372.219 543.297 373.156L539.875 373.141C539.906 372.682 539.859 372.255 539.734 371.859C539.609 371.453 539.422 371.099 539.172 370.797C538.922 370.495 538.609 370.255 538.234 370.078C537.859 369.901 537.432 369.802 536.953 369.781C536.172 369.75 535.495 369.901 534.922 370.234C534.349 370.557 533.865 370.984 533.469 371.516C533.073 372.047 532.76 372.646 532.531 373.312C532.302 373.979 532.141 374.646 532.047 375.312L531.984 375.875C531.943 376.26 531.917 376.661 531.906 377.078C531.906 377.495 531.932 377.906 531.984 378.312C532.036 378.708 532.125 379.089 532.25 379.453C532.385 379.818 532.568 380.141 532.797 380.422C533.036 380.693 533.328 380.917 533.672 381.094C534.026 381.26 534.453 381.349 534.953 381.359Z" fill="#607D8B"/>
<path d="M557.172 381.688C556.859 382.083 556.516 382.448 556.141 382.781C555.776 383.104 555.385 383.385 554.969 383.625C554.552 383.854 554.109 384.031 553.641 384.156C553.172 384.281 552.677 384.339 552.156 384.328C551.135 384.307 550.297 384.083 549.641 383.656C548.995 383.229 548.495 382.677 548.141 382C547.797 381.312 547.578 380.542 547.484 379.688C547.401 378.833 547.406 377.969 547.5 377.094L549.156 367.094H552.812L551.141 377.141C551.089 377.609 551.057 378.089 551.047 378.578C551.036 379.057 551.094 379.495 551.219 379.891C551.344 380.276 551.562 380.599 551.875 380.859C552.188 381.109 552.641 381.24 553.234 381.25C554.12 381.281 554.896 381.115 555.562 380.75C556.24 380.375 556.823 379.828 557.312 379.109L559.406 367.094H563.062L560.141 384H556.859L557.172 381.688Z" fill="#607D8B"/>
<path d="M569.719 360H578.609L574.984 380.906H579.984L579.438 384H565.547L566.094 380.906H571.297L574.391 363.109H569.172L569.719 360Z" fill="#607D8B"/>
<path d="M591.5 384.312C590.354 384.292 589.328 384.068 588.422 383.641C587.516 383.203 586.76 382.62 586.156 381.891C585.562 381.161 585.125 380.312 584.844 379.344C584.562 378.365 584.474 377.318 584.578 376.203L584.656 375.547C584.74 374.786 584.906 374.036 585.156 373.297C585.406 372.557 585.724 371.859 586.109 371.203C586.505 370.547 586.964 369.948 587.484 369.406C588.005 368.854 588.583 368.38 589.219 367.984C589.865 367.589 590.552 367.286 591.281 367.078C592.021 366.859 592.802 366.76 593.625 366.781C594.812 366.812 595.818 367.062 596.641 367.531C597.474 368 598.135 368.62 598.625 369.391C599.125 370.161 599.458 371.047 599.625 372.047C599.802 373.036 599.823 374.068 599.688 375.141L599.453 376.719H588.172C588.12 377.323 588.161 377.901 588.297 378.453C588.443 378.995 588.672 379.479 588.984 379.906C589.307 380.323 589.708 380.661 590.188 380.922C590.677 381.172 591.245 381.302 591.891 381.312C592.807 381.344 593.667 381.172 594.469 380.797C595.281 380.422 596 379.906 596.625 379.25L598.453 381.156C598.068 381.708 597.609 382.188 597.078 382.594C596.557 382.99 595.99 383.318 595.375 383.578C594.76 383.839 594.12 384.026 593.453 384.141C592.797 384.266 592.146 384.323 591.5 384.312ZM593.344 369.781C592.719 369.76 592.156 369.87 591.656 370.109C591.156 370.349 590.708 370.667 590.312 371.062C589.927 371.458 589.589 371.911 589.297 372.422C589.005 372.932 588.76 373.448 588.562 373.969L596.25 373.984L596.312 373.656C596.385 373.146 596.375 372.661 596.281 372.203C596.188 371.745 596.01 371.339 595.75 370.984C595.49 370.63 595.156 370.349 594.75 370.141C594.344 369.922 593.875 369.802 593.344 369.781Z" fill="#607D8B"/>
<path d="M614.031 379.328C614.094 378.891 614.01 378.536 613.781 378.266C613.562 377.995 613.276 377.776 612.922 377.609C612.568 377.443 612.182 377.312 611.766 377.219C611.359 377.125 611.01 377.042 610.719 376.969C610.292 376.865 609.849 376.745 609.391 376.609C608.932 376.474 608.484 376.312 608.047 376.125C607.62 375.938 607.208 375.719 606.812 375.469C606.427 375.208 606.094 374.911 605.812 374.578C605.531 374.245 605.307 373.87 605.141 373.453C604.984 373.026 604.922 372.547 604.953 372.016C604.984 371.411 605.109 370.865 605.328 370.375C605.547 369.875 605.839 369.432 606.203 369.047C606.568 368.651 606.99 368.307 607.469 368.016C607.948 367.724 608.453 367.49 608.984 367.312C609.516 367.125 610.057 366.99 610.609 366.906C611.161 366.812 611.703 366.771 612.234 366.781C613.057 366.792 613.854 366.911 614.625 367.141C615.406 367.359 616.094 367.693 616.688 368.141C617.292 368.589 617.771 369.151 618.125 369.828C618.479 370.495 618.651 371.281 618.641 372.188L615.016 372.172C615.026 371.745 614.953 371.375 614.797 371.062C614.641 370.74 614.427 370.474 614.156 370.266C613.896 370.047 613.583 369.885 613.219 369.781C612.865 369.677 612.484 369.625 612.078 369.625C611.714 369.625 611.333 369.661 610.938 369.734C610.542 369.807 610.172 369.932 609.828 370.109C609.495 370.276 609.203 370.505 608.953 370.797C608.714 371.078 608.562 371.427 608.5 371.844C608.438 372.271 608.5 372.615 608.688 372.875C608.885 373.135 609.146 373.344 609.469 373.5C609.792 373.656 610.141 373.776 610.516 373.859C610.901 373.943 611.245 374.016 611.547 374.078C611.995 374.182 612.458 374.302 612.938 374.438C613.417 374.562 613.885 374.719 614.344 374.906C614.802 375.083 615.234 375.297 615.641 375.547C616.047 375.797 616.401 376.094 616.703 376.438C617.005 376.781 617.234 377.172 617.391 377.609C617.557 378.047 617.63 378.547 617.609 379.109C617.557 380.068 617.286 380.88 616.797 381.547C616.307 382.214 615.693 382.755 614.953 383.172C614.214 383.589 613.406 383.891 612.531 384.078C611.656 384.266 610.812 384.349 610 384.328C609.156 384.318 608.328 384.193 607.516 383.953C606.703 383.703 605.979 383.344 605.344 382.875C604.719 382.406 604.214 381.823 603.828 381.125C603.453 380.417 603.271 379.594 603.281 378.656L606.812 378.672C606.823 379.161 606.917 379.583 607.094 379.938C607.281 380.292 607.526 380.583 607.828 380.812C608.13 381.042 608.484 381.214 608.891 381.328C609.297 381.443 609.729 381.5 610.188 381.5C610.552 381.5 610.943 381.469 611.359 381.406C611.786 381.344 612.188 381.234 612.562 381.078C612.938 380.911 613.26 380.688 613.531 380.406C613.802 380.125 613.969 379.766 614.031 379.328Z" fill="#607D8B"/>
<path d="M1076.83 374.078C1076.69 374.901 1076.49 375.729 1076.23 376.563C1075.98 377.396 1075.67 378.198 1075.28 378.969C1074.9 379.729 1074.44 380.443 1073.92 381.109C1073.4 381.766 1072.81 382.339 1072.14 382.828C1071.47 383.307 1070.74 383.682 1069.94 383.953C1069.14 384.214 1068.26 384.333 1067.31 384.313C1066.41 384.292 1065.6 384.13 1064.91 383.828C1064.22 383.526 1063.62 383.125 1063.11 382.625C1062.61 382.115 1062.2 381.531 1061.87 380.875C1061.55 380.208 1061.31 379.5 1061.14 378.75C1060.97 378 1060.88 377.229 1060.86 376.438C1060.84 375.636 1060.88 374.854 1060.98 374.094L1061.44 371.188C1061.56 370.375 1061.75 369.552 1062 368.719C1062.26 367.886 1062.58 367.089 1062.95 366.328C1063.34 365.557 1063.79 364.839 1064.3 364.172C1064.81 363.505 1065.39 362.932 1066.05 362.453C1066.7 361.964 1067.43 361.583 1068.22 361.313C1069.01 361.042 1069.88 360.917 1070.83 360.938C1071.73 360.958 1072.54 361.12 1073.23 361.422C1073.94 361.724 1074.55 362.125 1075.06 362.625C1075.58 363.125 1076.01 363.708 1076.34 364.375C1076.68 365.042 1076.93 365.755 1077.09 366.516C1077.27 367.266 1077.37 368.042 1077.39 368.844C1077.42 369.636 1077.39 370.417 1077.28 371.188L1076.83 374.078ZM1073.61 371.141C1073.66 370.724 1073.7 370.266 1073.73 369.766C1073.78 369.255 1073.78 368.745 1073.73 368.234C1073.7 367.714 1073.62 367.214 1073.5 366.734C1073.39 366.245 1073.2 365.813 1072.95 365.438C1072.71 365.052 1072.4 364.74 1072 364.5C1071.61 364.261 1071.13 364.13 1070.55 364.109C1069.93 364.089 1069.38 364.182 1068.89 364.391C1068.41 364.589 1067.98 364.87 1067.61 365.234C1067.23 365.589 1066.91 366.005 1066.62 366.484C1066.35 366.964 1066.12 367.469 1065.92 368C1065.72 368.531 1065.56 369.068 1065.42 369.609C1065.3 370.151 1065.19 370.667 1065.11 371.156L1064.66 374.109C1064.59 374.516 1064.54 374.974 1064.5 375.484C1064.47 375.984 1064.46 376.495 1064.48 377.016C1064.52 377.526 1064.59 378.026 1064.7 378.516C1064.82 379.005 1064.99 379.443 1065.22 379.828C1065.46 380.214 1065.77 380.531 1066.16 380.781C1066.54 381.021 1067.03 381.151 1067.61 381.172C1068.22 381.193 1068.78 381.104 1069.27 380.906C1069.77 380.698 1070.2 380.417 1070.58 380.063C1070.96 379.698 1071.3 379.276 1071.58 378.797C1071.87 378.307 1072.12 377.797 1072.33 377.266C1072.54 376.734 1072.7 376.198 1072.83 375.656C1072.96 375.104 1073.07 374.583 1073.16 374.094L1073.61 371.141Z" fill="#607D8B"/>
<path d="M1093.03 366.75C1093.55 366.761 1094.07 366.802 1094.59 366.875C1095.11 366.938 1095.62 367.052 1096.12 367.219L1095.16 370.875C1094.62 370.75 1094.09 370.651 1093.56 370.578C1093.04 370.495 1092.51 370.448 1091.95 370.438C1090.79 370.427 1089.77 370.677 1088.91 371.188C1088.05 371.688 1087.33 372.432 1086.73 373.422L1084.89 384H1081.25L1084.19 367.094L1087.59 367.078L1087.17 369.75C1087.55 369.302 1087.95 368.896 1088.37 368.531C1088.81 368.156 1089.28 367.839 1089.77 367.578C1090.26 367.307 1090.77 367.104 1091.31 366.969C1091.85 366.823 1092.43 366.75 1093.03 366.75Z" fill="#607D8B"/>
<path d="M1098.78 375.531C1098.86 374.823 1099.01 374.115 1099.2 373.406C1099.41 372.688 1099.67 372 1099.98 371.344C1100.3 370.688 1100.67 370.078 1101.09 369.516C1101.52 368.953 1102.01 368.469 1102.56 368.063C1103.12 367.646 1103.74 367.323 1104.42 367.094C1105.1 366.865 1105.84 366.761 1106.66 366.781C1107.5 366.802 1108.28 366.974 1108.98 367.297C1109.7 367.609 1110.31 368.109 1110.81 368.797L1111.36 367.094H1114.69L1111.89 383.547C1111.73 384.651 1111.41 385.646 1110.92 386.531C1110.44 387.427 1109.83 388.182 1109.09 388.797C1108.35 389.422 1107.5 389.896 1106.53 390.219C1105.57 390.542 1104.54 390.693 1103.42 390.672C1102.86 390.662 1102.3 390.594 1101.75 390.469C1101.2 390.344 1100.67 390.162 1100.16 389.922C1099.66 389.693 1099.18 389.406 1098.73 389.063C1098.3 388.719 1097.91 388.323 1097.58 387.875L1099.52 385.594C1099.99 386.25 1100.56 386.761 1101.2 387.125C1101.86 387.5 1102.6 387.698 1103.42 387.719C1104.07 387.74 1104.66 387.656 1105.2 387.469C1105.74 387.281 1106.22 387.005 1106.64 386.641C1107.06 386.287 1107.41 385.854 1107.69 385.344C1107.97 384.844 1108.17 384.281 1108.3 383.656L1108.53 382.5C1107.91 383.094 1107.22 383.547 1106.48 383.859C1105.76 384.172 1104.95 384.318 1104.08 384.297C1103.34 384.287 1102.68 384.156 1102.11 383.906C1101.54 383.646 1101.04 383.307 1100.62 382.891C1100.21 382.474 1099.86 381.99 1099.59 381.438C1099.32 380.886 1099.11 380.302 1098.97 379.688C1098.82 379.063 1098.73 378.427 1098.7 377.781C1098.67 377.125 1098.69 376.484 1098.75 375.859L1098.78 375.531ZM1102.41 375.859C1102.34 376.412 1102.32 377 1102.34 377.625C1102.37 378.24 1102.48 378.813 1102.67 379.344C1102.87 379.875 1103.17 380.323 1103.58 380.688C1103.98 381.042 1104.54 381.229 1105.25 381.25C1106.04 381.271 1106.73 381.104 1107.33 380.75C1107.92 380.386 1108.45 379.896 1108.91 379.281L1110.22 371.781C1109.68 370.511 1108.71 369.859 1107.33 369.828C1106.55 369.807 1105.86 369.969 1105.28 370.313C1104.71 370.646 1104.22 371.094 1103.83 371.656C1103.44 372.208 1103.14 372.828 1102.91 373.516C1102.69 374.193 1102.54 374.865 1102.45 375.531L1102.41 375.859Z" fill="#607D8B"/>
<path d="M1127.17 384C1127.09 383.729 1127.04 383.458 1127.03 383.188C1127.02 382.917 1127.02 382.641 1127.03 382.359C1126.34 382.974 1125.59 383.458 1124.78 383.813C1123.98 384.156 1123.11 384.318 1122.17 384.297C1121.46 384.287 1120.79 384.167 1120.16 383.938C1119.52 383.708 1118.97 383.386 1118.5 382.969C1118.03 382.542 1117.67 382.031 1117.41 381.438C1117.15 380.833 1117.04 380.151 1117.08 379.391C1117.12 378.651 1117.27 377.995 1117.52 377.422C1117.78 376.849 1118.11 376.354 1118.52 375.938C1118.92 375.511 1119.39 375.151 1119.92 374.859C1120.46 374.568 1121.04 374.333 1121.64 374.156C1122.24 373.969 1122.86 373.839 1123.5 373.766C1124.15 373.693 1124.79 373.656 1125.42 373.656L1128.19 373.672L1128.37 372.531C1128.44 372.073 1128.41 371.667 1128.3 371.313C1128.19 370.948 1128.02 370.646 1127.77 370.406C1127.52 370.156 1127.21 369.969 1126.84 369.844C1126.48 369.708 1126.07 369.636 1125.62 369.625C1125.23 369.615 1124.85 369.656 1124.5 369.75C1124.15 369.833 1123.82 369.974 1123.53 370.172C1123.24 370.359 1122.99 370.599 1122.8 370.891C1122.6 371.182 1122.46 371.531 1122.37 371.938L1118.73 371.953C1118.81 371.057 1119.08 370.281 1119.55 369.625C1120.02 368.969 1120.6 368.427 1121.3 368C1121.99 367.573 1122.76 367.261 1123.59 367.063C1124.43 366.854 1125.24 366.755 1126.05 366.766C1126.92 366.787 1127.74 366.927 1128.5 367.188C1129.27 367.438 1129.93 367.807 1130.48 368.297C1131.04 368.787 1131.45 369.391 1131.73 370.109C1132.03 370.828 1132.12 371.656 1132.03 372.594L1130.8 380.141C1130.7 380.734 1130.64 381.333 1130.61 381.938C1130.58 382.542 1130.66 383.136 1130.84 383.719L1130.81 384H1127.17ZM1123.08 381.313C1123.91 381.333 1124.69 381.156 1125.42 380.781C1126.15 380.406 1126.77 379.891 1127.28 379.234L1127.86 376.047L1125.75 376.031C1125.24 376.031 1124.71 376.073 1124.16 376.156C1123.6 376.24 1123.09 376.391 1122.61 376.609C1122.13 376.818 1121.72 377.115 1121.39 377.5C1121.06 377.886 1120.85 378.38 1120.78 378.984C1120.73 379.37 1120.75 379.708 1120.84 380C1120.95 380.281 1121.1 380.521 1121.31 380.719C1121.52 380.906 1121.78 381.052 1122.08 381.156C1122.38 381.25 1122.71 381.302 1123.08 381.313Z" fill="#607D8B"/>
<path d="M1141.53 367.078L1141.22 369.453C1141.91 368.641 1142.69 367.99 1143.56 367.5C1144.45 367 1145.44 366.761 1146.53 366.781C1147.5 366.802 1148.31 367 1148.95 367.375C1149.6 367.74 1150.1 368.229 1150.47 368.844C1150.84 369.448 1151.09 370.151 1151.2 370.953C1151.33 371.745 1151.34 372.573 1151.25 373.438L1149.48 384H1145.84L1147.59 373.484C1147.66 372.964 1147.66 372.484 1147.61 372.047C1147.56 371.609 1147.43 371.229 1147.23 370.906C1147.04 370.583 1146.76 370.328 1146.39 370.141C1146.03 369.953 1145.56 369.854 1144.98 369.844C1144.58 369.833 1144.19 369.875 1143.83 369.969C1143.46 370.063 1143.12 370.203 1142.8 370.391C1142.48 370.568 1142.18 370.781 1141.89 371.031C1141.61 371.281 1141.34 371.557 1141.09 371.859L1138.98 384H1135.33L1138.27 367.094L1141.53 367.078Z" fill="#607D8B"/>
<path d="M1157.83 367.094H1166.59L1164.2 380.906H1169.08L1168.53 384H1154.89L1155.44 380.906H1160.52L1162.37 370.203H1157.28L1157.83 367.094ZM1163.37 362.781C1163.37 362.479 1163.43 362.203 1163.53 361.953C1163.64 361.703 1163.78 361.484 1163.97 361.297C1164.16 361.109 1164.37 360.964 1164.62 360.859C1164.89 360.755 1165.17 360.698 1165.47 360.688C1165.76 360.677 1166.03 360.719 1166.28 360.813C1166.54 360.906 1166.77 361.042 1166.95 361.219C1167.15 361.386 1167.3 361.594 1167.41 361.844C1167.52 362.083 1167.58 362.354 1167.58 362.656C1167.58 362.958 1167.52 363.24 1167.41 363.5C1167.29 363.75 1167.14 363.969 1166.95 364.156C1166.77 364.344 1166.54 364.49 1166.28 364.594C1166.02 364.698 1165.74 364.75 1165.45 364.75C1165.16 364.761 1164.89 364.719 1164.62 364.625C1164.37 364.531 1164.16 364.401 1163.97 364.234C1163.78 364.057 1163.64 363.849 1163.53 363.609C1163.43 363.359 1163.37 363.083 1163.37 362.781Z" fill="#607D8B"/>
<path d="M1184.47 379.328C1184.53 378.891 1184.45 378.537 1184.22 378.266C1184 377.995 1183.71 377.776 1183.36 377.609C1183.01 377.443 1182.62 377.313 1182.2 377.219C1181.8 377.125 1181.45 377.042 1181.16 376.969C1180.73 376.865 1180.29 376.745 1179.83 376.609C1179.37 376.474 1178.92 376.313 1178.48 376.125C1178.06 375.938 1177.65 375.719 1177.25 375.469C1176.86 375.208 1176.53 374.912 1176.25 374.578C1175.97 374.245 1175.74 373.87 1175.58 373.453C1175.42 373.026 1175.36 372.547 1175.39 372.016C1175.42 371.412 1175.55 370.865 1175.77 370.375C1175.98 369.875 1176.28 369.432 1176.64 369.047C1177.01 368.651 1177.43 368.307 1177.91 368.016C1178.39 367.724 1178.89 367.49 1179.42 367.313C1179.95 367.125 1180.49 366.99 1181.05 366.906C1181.6 366.813 1182.14 366.771 1182.67 366.781C1183.49 366.792 1184.29 366.912 1185.06 367.141C1185.84 367.359 1186.53 367.693 1187.12 368.141C1187.73 368.589 1188.21 369.151 1188.56 369.828C1188.92 370.495 1189.09 371.281 1189.08 372.188L1185.45 372.172C1185.46 371.745 1185.39 371.375 1185.23 371.063C1185.08 370.74 1184.86 370.474 1184.59 370.266C1184.33 370.047 1184.02 369.886 1183.66 369.781C1183.3 369.677 1182.92 369.625 1182.52 369.625C1182.15 369.625 1181.77 369.662 1181.37 369.734C1180.98 369.807 1180.61 369.932 1180.27 370.109C1179.93 370.276 1179.64 370.505 1179.39 370.797C1179.15 371.078 1179 371.427 1178.94 371.844C1178.87 372.271 1178.94 372.615 1179.12 372.875C1179.32 373.136 1179.58 373.344 1179.91 373.5C1180.23 373.656 1180.58 373.776 1180.95 373.859C1181.34 373.943 1181.68 374.016 1181.98 374.078C1182.43 374.182 1182.9 374.302 1183.37 374.438C1183.85 374.563 1184.32 374.719 1184.78 374.906C1185.24 375.083 1185.67 375.297 1186.08 375.547C1186.48 375.797 1186.84 376.094 1187.14 376.438C1187.44 376.781 1187.67 377.172 1187.83 377.609C1187.99 378.047 1188.07 378.547 1188.05 379.109C1187.99 380.068 1187.72 380.88 1187.23 381.547C1186.74 382.214 1186.13 382.755 1185.39 383.172C1184.65 383.589 1183.84 383.891 1182.97 384.078C1182.09 384.266 1181.25 384.349 1180.44 384.328C1179.59 384.318 1178.77 384.193 1177.95 383.953C1177.14 383.703 1176.42 383.344 1175.78 382.875C1175.16 382.406 1174.65 381.823 1174.27 381.125C1173.89 380.417 1173.71 379.594 1173.72 378.656L1177.25 378.672C1177.26 379.162 1177.35 379.583 1177.53 379.938C1177.72 380.292 1177.96 380.583 1178.27 380.813C1178.57 381.042 1178.92 381.214 1179.33 381.328C1179.73 381.443 1180.17 381.5 1180.62 381.5C1180.99 381.5 1181.38 381.469 1181.8 381.406C1182.22 381.344 1182.62 381.234 1183 381.078C1183.37 380.912 1183.7 380.688 1183.97 380.406C1184.24 380.125 1184.41 379.766 1184.47 379.328Z" fill="#607D8B"/>
<path d="M1196.69 367.078L1196.34 368.891C1196.76 368.255 1197.25 367.745 1197.81 367.359C1198.37 366.964 1199.05 366.771 1199.83 366.781C1200.45 366.781 1200.99 366.922 1201.44 367.203C1201.9 367.474 1202.21 367.922 1202.39 368.547C1202.82 368.016 1203.29 367.589 1203.81 367.266C1204.33 366.932 1204.95 366.776 1205.66 366.797C1206.32 366.807 1206.86 366.964 1207.28 367.266C1207.71 367.557 1208.03 367.938 1208.25 368.406C1208.48 368.865 1208.62 369.38 1208.67 369.953C1208.73 370.526 1208.74 371.094 1208.69 371.656L1206.64 384H1203.25L1205.33 371.594C1205.35 371.375 1205.35 371.162 1205.34 370.953C1205.33 370.745 1205.29 370.557 1205.2 370.391C1205.13 370.224 1205.01 370.094 1204.84 370C1204.69 369.896 1204.48 369.844 1204.22 369.844C1203.82 369.844 1203.49 369.948 1203.23 370.156C1202.97 370.354 1202.74 370.615 1202.53 370.938L1200.27 384H1196.95L1199.05 371.609C1199.07 371.391 1199.07 371.177 1199.06 370.969C1199.05 370.761 1199.01 370.573 1198.94 370.406C1198.86 370.24 1198.75 370.104 1198.59 370C1198.45 369.896 1198.24 369.844 1197.98 369.844C1197.59 369.833 1197.26 369.927 1196.98 370.125C1196.71 370.323 1196.47 370.573 1196.25 370.875L1193.98 384H1190.59L1193.53 367.094L1196.69 367.078Z" fill="#607D8B"/>
<path d="M1222.03 379.328C1222.09 378.891 1222.01 378.537 1221.78 378.266C1221.56 377.995 1221.28 377.776 1220.92 377.609C1220.57 377.443 1220.18 377.313 1219.77 377.219C1219.36 377.125 1219.01 377.042 1218.72 376.969C1218.29 376.865 1217.85 376.745 1217.39 376.609C1216.93 376.474 1216.48 376.313 1216.05 376.125C1215.62 375.938 1215.21 375.719 1214.81 375.469C1214.43 375.208 1214.09 374.912 1213.81 374.578C1213.53 374.245 1213.31 373.87 1213.14 373.453C1212.98 373.026 1212.92 372.547 1212.95 372.016C1212.98 371.412 1213.11 370.865 1213.33 370.375C1213.55 369.875 1213.84 369.432 1214.2 369.047C1214.57 368.651 1214.99 368.307 1215.47 368.016C1215.95 367.724 1216.45 367.49 1216.98 367.313C1217.52 367.125 1218.06 366.99 1218.61 366.906C1219.16 366.813 1219.7 366.771 1220.23 366.781C1221.06 366.792 1221.85 366.912 1222.62 367.141C1223.41 367.359 1224.09 367.693 1224.69 368.141C1225.29 368.589 1225.77 369.151 1226.12 369.828C1226.48 370.495 1226.65 371.281 1226.64 372.188L1223.02 372.172C1223.03 371.745 1222.95 371.375 1222.8 371.063C1222.64 370.74 1222.43 370.474 1222.16 370.266C1221.9 370.047 1221.58 369.886 1221.22 369.781C1220.86 369.677 1220.48 369.625 1220.08 369.625C1219.71 369.625 1219.33 369.662 1218.94 369.734C1218.54 369.807 1218.17 369.932 1217.83 370.109C1217.49 370.276 1217.2 370.505 1216.95 370.797C1216.71 371.078 1216.56 371.427 1216.5 371.844C1216.44 372.271 1216.5 372.615 1216.69 372.875C1216.89 373.136 1217.15 373.344 1217.47 373.5C1217.79 373.656 1218.14 373.776 1218.52 373.859C1218.9 373.943 1219.24 374.016 1219.55 374.078C1219.99 374.182 1220.46 374.302 1220.94 374.438C1221.42 374.563 1221.89 374.719 1222.34 374.906C1222.8 375.083 1223.23 375.297 1223.64 375.547C1224.05 375.797 1224.4 376.094 1224.7 376.438C1225.01 376.781 1225.23 377.172 1225.39 377.609C1225.56 378.047 1225.63 378.547 1225.61 379.109C1225.56 380.068 1225.29 380.88 1224.8 381.547C1224.31 382.214 1223.69 382.755 1222.95 383.172C1222.21 383.589 1221.41 383.891 1220.53 384.078C1219.66 384.266 1218.81 384.349 1218 384.328C1217.16 384.318 1216.33 384.193 1215.52 383.953C1214.7 383.703 1213.98 383.344 1213.34 382.875C1212.72 382.406 1212.21 381.823 1211.83 381.125C1211.45 380.417 1211.27 379.594 1211.28 378.656L1214.81 378.672C1214.82 379.162 1214.92 379.583 1215.09 379.938C1215.28 380.292 1215.53 380.583 1215.83 380.813C1216.13 381.042 1216.48 381.214 1216.89 381.328C1217.3 381.443 1217.73 381.5 1218.19 381.5C1218.55 381.5 1218.94 381.469 1219.36 381.406C1219.79 381.344 1220.19 381.234 1220.56 381.078C1220.94 380.912 1221.26 380.688 1221.53 380.406C1221.8 380.125 1221.97 379.766 1222.03 379.328Z" fill="#607D8B"/>
<path fill-rule="evenodd" clip-rule="evenodd" d="M823.686 154.858L836.414 167.586C837.195 168.367 837.195 169.633 836.414 170.414L823.686 183.142C822.905 183.923 821.639 183.923 820.858 183.142C820.077 182.361 820.077 181.095 820.858 180.314L830.172 171H757C755.895 171 755 170.105 755 169C755 167.895 755.895 167 757 167H830.172L820.858 157.686C820.077 156.905 820.077 155.639 820.858 154.858C821.639 154.077 822.905 154.077 823.686 154.858Z" fill="#607D8B"/>
<path fill-rule="evenodd" clip-rule="evenodd" d="M295.686 154.858L308.414 167.586C309.195 168.367 309.195 169.633 308.414 170.414L295.686 183.142C294.905 183.923 293.639 183.923 292.858 183.142C292.077 182.361 292.077 181.095 292.858 180.314L302.172 171H229C227.895 171 227 170.105 227 169C227 167.895 227.895 167 229 167H302.172L292.858 157.686C292.077 156.905 292.077 155.639 292.858 154.858C293.639 154.077 294.905 154.077 295.686 154.858Z" fill="#607D8B"/>
<path fill-rule="evenodd" clip-rule="evenodd" d="M642.686 446.858L655.414 459.586C656.195 460.367 656.195 461.633 655.414 462.414L642.686 475.142C641.905 475.923 640.639 475.923 639.858 475.142C639.077 474.361 639.077 473.095 639.858 472.314L649.172 463H576C574.895 463 574 462.104 574 461C574 459.895 574.895 459 576 459H649.172L639.858 449.686C639.077 448.905 639.077 447.639 639.858 446.858C640.639 446.077 641.905 446.077 642.686 446.858Z" fill="#607D8B"/>
<path fill-rule="evenodd" clip-rule="evenodd" d="M80.3137 446.858L67.5858 459.586C66.8047 460.367 66.8047 461.633 67.5858 462.414L80.3137 475.142C81.0948 475.923 82.3611 475.923 83.1421 475.142C83.9232 474.361 83.9232 473.095 83.1421 472.314L73.8284 463H147C148.105 463 149 462.104 149 461C149 459.895 148.105 459 147 459H73.8284L83.1421 449.686C83.9232 448.905 83.9232 447.639 83.1421 446.858C82.3611 446.077 81.0948 446.077 80.3137 446.858Z" fill="#607D8B"/>
<path fill-rule="evenodd" clip-rule="evenodd" d="M16 434C17.1046 434 18 434.895 18 436V488C18 489.105 17.1046 490 16 490C14.8954 490 14 489.105 14 488V436C14 434.895 14.8954 434 16 434Z" fill="#607D8B"/>
<path fill-rule="evenodd" clip-rule="evenodd" d="M707 434C708.105 434 709 434.895 709 436V488C709 489.105 708.105 490 707 490C705.895 490 705 489.105 705 488V436C705 434.895 705.895 434 707 434Z" fill="#607D8B"/>
<circle cx="83.5" cy="166.5" r="81.5" stroke="#63A7D7" stroke-width="4"/>
<circle cx="139" cy="113" r="21" fill="#63A7D7"/>
<circle cx="84" cy="167" r="44" fill="#63A7D7"/>
<circle cx="1066" cy="84" r="21" fill="#63A7D7"/>
<circle cx="983" cy="167" r="21" fill="#63A7D7"/>
<circle cx="1150" cy="167" r="21" fill="#63A7D7"/>
<circle cx="1317" cy="167" r="21" fill="#63A7D7"/>
<circle cx="1066" cy="251" r="21" fill="#63A7D7"/>
<circle cx="1233" cy="251" r="21" fill="#63A7D7"/>
<circle cx="1233" cy="84" r="21" fill="#63A7D7"/>
<circle cx="982.5" cy="83.5" r="81.5" stroke="#63A7D7" stroke-width="4"/>
<circle cx="983" cy="84" r="44" fill="#63A7D7"/>
<circle cx="1149.5" cy="83.5" r="81.5" stroke="#63A7D7" stroke-width="4"/>
<circle cx="1150" cy="84" r="44" fill="#63A7D7"/>
<circle cx="1316.5" cy="83.5" r="81.5" stroke="#63A7D7" stroke-width="4"/>
<circle cx="1317" cy="84" r="44" fill="#63A7D7"/>
<circle cx="982.5" cy="250.5" r="81.5" stroke="#63A7D7" stroke-width="4"/>
<circle cx="983" cy="251" r="44" fill="#63A7D7"/>
<circle cx="1149.5" cy="250.5" r="81.5" stroke="#63A7D7" stroke-width="4"/>
<circle cx="1150" cy="251" r="44" fill="#63A7D7"/>
<circle cx="1316.5" cy="250.5" r="81.5" stroke="#63A7D7" stroke-width="4"/>
<circle cx="1317" cy="251" r="44" fill="#63A7D7"/>
<circle cx="452.5" cy="237.5" r="81.5" stroke="#63A7D7" stroke-width="4"/>
<circle cx="492" cy="167" r="21" fill="#63A7D7"/>
<circle cx="534" cy="238" r="21" fill="#63A7D7"/>
<circle cx="575" cy="167" r="21" fill="#63A7D7"/>
<circle cx="453" cy="238" r="44" fill="#63A7D7"/>
<circle cx="536.5" cy="95.5" r="81.5" stroke="#63A7D7" stroke-width="4"/>
<circle cx="537" cy="96" r="44" fill="#63A7D7"/>
<circle cx="619.5" cy="237.5" r="81.5" stroke="#63A7D7" stroke-width="4"/>
<circle cx="620" cy="238" r="44" fill="#63A7D7"/>
</svg>
