<svg width="1523" height="610" viewBox="0 0 1523 610" fill="none" xmlns="http://www.w3.org/2000/svg">
<g clip-path="url(#clip0)">
<path d="M8.92188 315C15.1264 315 18.6264 311.142 18.6264 304.778C18.6264 298.455 15.1264 294.636 9.20028 294.636H2.63778V315H8.92188ZM5.10369 312.812V296.824H9.04119C13.8139 296.824 16.2401 299.847 16.2401 304.778C16.2401 309.75 13.8139 312.812 8.76278 312.812H5.10369ZM22.4446 315H24.7912V299.727H22.4446V315ZM23.6378 297.222C24.5526 297.222 25.3082 296.506 25.3082 295.631C25.3082 294.756 24.5526 294.04 23.6378 294.04C22.723 294.04 21.9673 294.756 21.9673 295.631C21.9673 296.506 22.723 297.222 23.6378 297.222ZM39.9073 303.148C39.1715 300.98 37.521 299.528 34.4982 299.528C31.2766 299.528 28.8903 301.358 28.8903 303.943C28.8903 306.051 30.1431 307.463 32.9471 308.119L35.4925 308.716C37.0337 309.074 37.7596 309.81 37.7596 310.864C37.7596 312.176 36.3675 313.25 34.18 313.25C32.261 313.25 31.0579 312.425 30.6403 310.784L28.413 311.341C28.9599 313.936 31.0977 315.318 34.2198 315.318C37.7695 315.318 40.1857 313.379 40.1857 310.744C40.1857 308.616 38.8533 307.274 36.1289 306.608L33.8619 306.051C32.0522 305.604 31.2369 304.997 31.2369 303.824C31.2369 302.511 32.6289 301.557 34.4982 301.557C36.5465 301.557 37.3917 302.69 37.7994 303.744L39.9073 303.148ZM49.9226 315.318C53.3033 315.318 55.5305 313.25 55.9283 310.545H53.5817C53.1442 312.216 51.7521 313.21 49.9226 313.21C47.1385 313.21 45.3487 310.903 45.3487 307.364C45.3487 303.903 47.1783 301.636 49.9226 301.636C51.9908 301.636 53.2237 302.909 53.5817 304.301H55.9283C55.5305 301.438 53.1044 299.528 49.8828 299.528C45.7464 299.528 43.0021 302.79 43.0021 307.443C43.0021 312.017 45.6271 315.318 49.9226 315.318ZM65.5632 315.318C69.6996 315.318 72.4837 312.176 72.4837 307.443C72.4837 302.67 69.6996 299.528 65.5632 299.528C61.4268 299.528 58.6428 302.67 58.6428 307.443C58.6428 312.176 61.4268 315.318 65.5632 315.318ZM65.5632 313.21C62.4212 313.21 60.9893 310.506 60.9893 307.443C60.9893 304.381 62.4212 301.636 65.5632 301.636C68.7053 301.636 70.1371 304.381 70.1371 307.443C70.1371 310.506 68.7053 313.21 65.5632 313.21ZM88.5543 299.727H86.0089L81.793 311.898H81.6339L77.418 299.727H74.8725L80.5202 315H82.9066L88.5543 299.727ZM97.5082 315.318C100.61 315.318 102.877 313.767 103.593 311.46L101.326 310.824C100.73 312.415 99.3477 313.21 97.5082 313.21C94.7539 313.21 92.8548 311.43 92.7454 308.159H103.832V307.165C103.832 301.477 100.451 299.528 97.2695 299.528C93.1332 299.528 90.3888 302.79 90.3888 307.483C90.3888 312.176 93.0934 315.318 97.5082 315.318ZM92.7454 306.131C92.9045 303.754 94.5849 301.636 97.2695 301.636C99.815 301.636 101.446 303.545 101.446 306.131H92.7454ZM107.402 315H109.748V305.335C109.748 303.277 111.379 301.756 113.606 301.756C114.193 301.756 114.63 301.865 114.958 302.034L115.754 300.045C115.277 299.707 114.65 299.489 113.805 299.489C111.956 299.489 110.375 300.523 109.828 302.034H109.669V299.727H107.402V315Z" fill="#5790E5"/>
<path d="M1429.6 299.727H1431.99C1431.88 296.655 1429.05 294.358 1425.11 294.358C1421.21 294.358 1418.15 296.625 1418.15 300.045C1418.15 302.79 1420.14 304.42 1423.32 305.335L1425.82 306.051C1427.97 306.648 1429.88 307.403 1429.88 309.432C1429.88 311.659 1427.73 313.131 1424.91 313.131C1422.48 313.131 1420.34 312.057 1420.14 309.75H1417.59C1417.83 313.091 1420.53 315.358 1424.91 315.358C1429.6 315.358 1432.27 312.773 1432.27 309.472C1432.27 305.653 1428.65 304.42 1426.54 303.864L1424.47 303.307C1422.96 302.909 1420.53 302.114 1420.53 299.926C1420.53 297.977 1422.32 296.545 1425.03 296.545C1427.49 296.545 1429.36 297.719 1429.6 299.727ZM1442.21 315.318C1446.34 315.318 1449.13 312.176 1449.13 307.443C1449.13 302.67 1446.34 299.528 1442.21 299.528C1438.07 299.528 1435.29 302.67 1435.29 307.443C1435.29 312.176 1438.07 315.318 1442.21 315.318ZM1442.21 313.21C1439.07 313.21 1437.63 310.506 1437.63 307.443C1437.63 304.381 1439.07 301.636 1442.21 301.636C1445.35 301.636 1446.78 304.381 1446.78 307.443C1446.78 310.506 1445.35 313.21 1442.21 313.21ZM1455.06 294.636H1452.71V315H1455.06V294.636ZM1468.98 308.756C1468.98 311.619 1466.79 312.932 1465.04 312.932C1463.09 312.932 1461.7 311.5 1461.7 309.273V299.727H1459.35V309.432C1459.35 313.33 1461.42 315.199 1464.29 315.199C1466.59 315.199 1468.1 313.966 1468.82 312.415H1468.98V315H1471.33V299.727H1468.98V308.756ZM1482.27 299.727H1479V296.068H1476.66V299.727H1474.35V301.716H1476.66V311.261C1476.66 313.926 1478.81 315.199 1480.79 315.199C1481.67 315.199 1482.23 315.04 1482.54 314.92L1482.07 312.812C1481.87 312.852 1481.55 312.932 1481.03 312.932C1480 312.932 1479 312.614 1479 310.625V301.716H1482.27V299.727ZM1485.96 315H1488.31V299.727H1485.96V315ZM1487.15 297.222C1488.07 297.222 1488.82 296.506 1488.82 295.631C1488.82 294.756 1488.07 294.04 1487.15 294.04C1486.24 294.04 1485.48 294.756 1485.48 295.631C1485.48 296.506 1486.24 297.222 1487.15 297.222ZM1498.81 315.318C1502.95 315.318 1505.73 312.176 1505.73 307.443C1505.73 302.67 1502.95 299.528 1498.81 299.528C1494.67 299.528 1491.89 302.67 1491.89 307.443C1491.89 312.176 1494.67 315.318 1498.81 315.318ZM1498.81 313.21C1495.67 313.21 1494.24 310.506 1494.24 307.443C1494.24 304.381 1495.67 301.636 1498.81 301.636C1501.95 301.636 1503.38 304.381 1503.38 307.443C1503.38 310.506 1501.95 313.21 1498.81 313.21ZM1511.66 305.812C1511.66 303.148 1513.31 301.636 1515.56 301.636C1517.73 301.636 1519.06 303.058 1519.06 305.455V315H1521.4V305.295C1521.4 301.398 1519.32 299.528 1516.23 299.528C1513.93 299.528 1512.49 300.562 1511.78 302.114H1511.58V299.727H1509.31V315H1511.66V305.812Z" fill="#5790E5"/>
<path d="M514.456 53.6615L766.186 305.392L514.456 557.122C500.397 571.18 477.603 571.18 463.544 557.122L211.814 305.392L463.544 53.6615C477.603 39.6027 500.397 39.6027 514.456 53.6615Z" stroke="#0A2EB9" stroke-width="8"/>
<path d="M621.112 124.961C625.499 129.348 630.702 129.095 635.202 124.595C639.673 120.124 639.898 114.949 635.708 110.758L631.067 106.118L616.668 120.517L621.112 124.961ZM619.959 120.714L631.264 109.408L634.049 112.193C637.423 115.568 637.002 119.42 633.514 122.908C629.999 126.423 626.118 126.873 622.546 123.302L619.959 120.714ZM634.977 139.276C637.17 141.469 639.87 141.976 642.008 140.851L640.854 138.798C639.308 139.501 637.768 139.086 636.467 137.785C634.52 135.838 634.435 133.236 636.671 130.846L644.511 138.685L645.214 137.982C649.235 133.96 648.223 130.192 645.973 127.942C643.048 125.017 638.801 125.383 635.483 128.701C632.164 132.02 631.855 136.154 634.977 139.276ZM638.105 129.411C639.898 127.843 642.584 127.534 644.482 129.432C646.282 131.232 646.085 133.735 644.257 135.563L638.105 129.411ZM657.806 140.056L655.387 137.638L656.484 136.541C657.553 135.472 658.565 135.36 659.662 136.456C660.14 136.934 660.309 137.328 660.421 137.553L662.334 136.597C662.193 136.231 661.856 135.556 661.04 134.741C659.493 133.194 657.075 132.632 655.219 134.488L653.728 135.978L651.984 134.235L650.578 135.641L652.322 137.384L642.929 146.778L644.588 148.437L653.981 139.044L656.4 141.462L657.806 140.056ZM649.332 153.181L650.991 154.84L661.791 144.041L660.131 142.382L649.332 153.181ZM662.747 141.454C663.394 142.1 664.434 142.128 665.053 141.51C665.672 140.891 665.644 139.85 664.997 139.204C664.35 138.557 663.309 138.529 662.691 139.147C662.072 139.766 662.1 140.807 662.747 141.454ZM662.186 153.042C664.07 151.158 666.306 151.256 667.895 152.845C669.435 154.385 669.365 156.326 667.67 158.02L660.921 164.77L662.58 166.429L669.442 159.567C672.198 156.811 672.051 154.019 669.864 151.833C668.233 150.202 666.489 149.92 664.886 150.511L664.745 150.37L666.433 148.683L664.83 147.08L654.03 157.879L655.69 159.539L662.186 153.042ZM669.915 174.214C672.109 176.408 674.808 176.914 676.946 175.789L675.793 173.736C674.246 174.439 672.706 174.024 671.405 172.723C669.458 170.776 669.373 168.174 671.609 165.784L679.449 173.623L680.152 172.92C684.174 168.899 683.161 165.13 680.911 162.88C677.986 159.955 673.74 160.321 670.421 163.64C667.103 166.958 666.793 171.092 669.915 174.214ZM673.044 164.35C674.836 162.782 677.522 162.472 679.421 164.371C681.221 166.171 681.024 168.674 679.196 170.502L673.044 164.35Z" fill="#5790E5"/>
<path d="M288.095 446.725C292.482 451.112 297.685 450.859 302.185 446.359C306.656 441.888 306.881 436.713 302.691 432.523L298.05 427.882L283.651 442.281L288.095 446.725ZM286.942 442.478L298.247 431.173L301.031 433.957C304.406 437.332 303.984 441.185 300.497 444.672C296.982 448.187 293.101 448.637 289.529 445.066L286.942 442.478ZM297.657 456.287L299.316 457.946L310.115 447.147L308.456 445.488L297.657 456.287ZM311.072 444.559C311.718 445.206 312.759 445.234 313.378 444.616C313.996 443.997 313.968 442.956 313.321 442.31C312.675 441.663 311.634 441.635 311.015 442.253C310.397 442.872 310.425 443.913 311.072 444.559ZM321.985 459.017L320.185 457.217L308.598 462.842L308.486 462.729L314.111 451.142L312.311 449.342L305.505 464.135L307.192 465.823L321.985 459.017ZM317.292 476.372C319.486 478.566 322.186 479.072 324.323 477.947L323.17 475.894C321.623 476.597 320.083 476.183 318.783 474.882C316.835 472.934 316.751 470.333 318.987 467.942L326.826 475.782L327.529 475.079C331.551 471.057 330.538 467.289 328.288 465.039C325.364 462.114 321.117 462.479 317.798 465.798C314.48 469.117 314.17 473.251 317.292 476.372ZM320.421 466.508C322.214 464.94 324.9 464.631 326.798 466.529C328.598 468.329 328.401 470.832 326.573 472.66L320.421 466.508ZM324.513 483.143L326.172 484.803L333.006 477.968C334.462 476.513 336.69 476.59 338.265 478.165C338.68 478.58 338.912 478.967 339.025 479.318L340.993 478.475C340.895 477.898 340.607 477.301 340.009 476.703C338.701 475.395 336.852 475.008 335.397 475.69L335.284 475.578L336.915 473.947L335.312 472.344L324.513 483.143ZM332.036 498.766C334.539 501.269 337.942 502.309 340.726 499.525L351.61 488.641L350.007 487.038L348.291 488.754L348.123 488.585C348.319 487.657 348.938 485.688 346.829 483.579C344.101 480.851 340.051 481.132 336.733 484.451C333.358 487.826 333.414 491.707 336.029 494.322C338.139 496.432 340.051 495.869 341.007 495.644L341.148 495.785L339.236 497.697C337.464 499.525 335.186 498.935 333.526 497.275C331.67 495.419 331.98 493.591 332.092 492.635L329.842 492.241C329.364 494.069 329.73 496.46 332.036 498.766ZM337.745 493.057C335.664 490.976 336.17 488.332 338.42 486.082C340.614 483.889 343.426 483.157 345.535 485.267C347.56 487.291 346.998 489.991 344.663 492.326C342.273 494.716 339.742 495.054 337.745 493.057ZM348.151 507.231C350.344 509.425 353.044 509.931 355.182 508.806L354.029 506.753C352.482 507.456 350.942 507.041 349.641 505.741C347.694 503.793 347.609 501.192 349.845 498.801L357.685 506.64L358.388 505.937C362.409 501.916 361.397 498.147 359.147 495.897C356.222 492.972 351.976 493.338 348.657 496.657C345.338 499.975 345.029 504.109 348.151 507.231ZM351.279 497.367C353.072 495.799 355.758 495.489 357.656 497.388C359.456 499.188 359.26 501.691 357.431 503.519L351.279 497.367Z" fill="#5790E5"/>
<path d="M285.411 196.44L294.213 187.637L292.667 186.09L285.608 193.149L280.714 188.256L287.211 181.759L285.664 180.212L279.167 186.709L274.302 181.844L281.248 174.897L279.702 173.35L271.011 182.04L285.411 196.44ZM297.019 184.832L298.678 183.172L291.928 176.423C290.346 174.841 290.382 172.57 291.675 171.276C292.934 170.018 294.635 169.961 295.866 171.192L303.262 178.588L304.95 176.901L297.919 169.87C296.527 168.478 296.372 166.579 297.891 165.061C299.072 163.88 300.71 163.493 302.306 165.089L309.534 172.317L311.193 170.657L303.965 163.43C301.427 160.891 298.889 161.081 296.962 163.008C295.416 164.555 294.994 166.397 295.556 168.07L295.444 168.183C293.756 167.564 292.139 167.831 290.719 169.251C289.313 170.657 288.947 172.373 289.65 173.976L289.51 174.117L287.822 172.429L286.219 174.032L297.019 184.832ZM319.402 162.899C322.101 160.199 321.82 156.149 318.389 152.718C314.986 149.315 310.936 149.034 308.208 151.762C306.099 153.871 306.746 155.812 306.943 156.74L306.746 156.937L305.03 155.221L303.427 156.824L318.277 171.673L319.936 170.014L314.227 164.305L314.367 164.164C315.324 164.389 317.32 164.98 319.402 162.899ZM317.686 161.633C315.689 163.63 312.905 163.039 310.458 160.593C308.04 158.174 307.477 155.474 309.502 153.449C311.611 151.34 314.424 152.071 316.702 154.349C319.008 156.655 319.767 159.552 317.686 161.633ZM329.723 152.634C331.607 150.749 331.579 148.753 331.213 147.712L331.298 147.628L332.76 149.09L334.42 147.431L327.304 140.316C323.873 136.884 320.864 139.106 319.486 140.484C317.855 142.115 316.561 144.534 317.686 147.346L319.823 146.334C319.402 145.181 319.423 143.472 321.005 141.89C322.544 140.351 324.105 140.435 325.504 141.834C326.306 142.636 325.448 143.409 323.733 145.631C321.989 147.895 320.245 150.524 322.72 152.999C324.829 155.109 327.67 154.687 329.723 152.634ZM328.485 150.89C327.164 152.212 325.617 152.577 324.464 151.424C323.198 150.159 323.958 148.612 325.082 147.15C325.701 146.362 327.389 144.281 327.332 143.662L328.851 145.181C330.201 146.531 330.454 148.921 328.485 150.89ZM331.345 128.906L329.039 131.212L326.452 128.625L324.792 130.284L327.38 132.872L325.749 134.503L327.155 135.909L328.786 134.278L335.536 141.027C337.42 142.912 339.839 142.293 341.245 140.887C341.863 140.268 342.145 139.762 342.285 139.453L340.457 138.299C340.345 138.468 340.176 138.749 339.81 139.115C339.079 139.846 338.151 140.324 336.745 138.918L330.445 132.618L332.751 130.312L331.345 128.906ZM340.151 128.706C338.267 126.822 338.401 124.551 340.039 122.912C341.6 121.351 343.526 121.394 345.242 123.109L351.991 129.859L353.651 128.2L346.789 121.337C344.011 118.56 341.234 118.736 339.026 120.944C337.325 122.645 337.065 124.326 337.677 125.95L337.536 126.09L332.249 120.803L330.589 122.462L344.989 136.862L346.648 135.202L340.151 128.706ZM356.686 125.164L358.346 123.505L347.546 112.705L345.887 114.365L356.686 125.164ZM344.959 111.749C345.606 111.102 345.634 110.062 345.015 109.443C344.396 108.824 343.356 108.852 342.709 109.499C342.062 110.146 342.034 111.187 342.653 111.805C343.271 112.424 344.312 112.396 344.959 111.749ZM361.075 120.775L369.456 112.394L367.909 110.847L361.835 116.922L361.722 116.81L359.866 103.029L358.544 101.707L350.192 110.06L351.738 111.607L357.954 105.391L358.066 105.504L359.81 119.509L361.075 120.775ZM376.54 105.76C378.733 103.567 379.24 100.867 378.115 98.7296L376.062 99.8827C376.765 101.429 376.35 102.969 375.049 104.27C373.102 106.218 370.5 106.302 368.11 104.066L375.949 96.2266L375.246 95.5235C371.224 91.5018 367.456 92.5143 365.206 94.7642C362.281 97.689 362.647 101.936 365.965 105.254C369.284 108.573 373.418 108.882 376.54 105.76ZM366.675 102.632C365.108 100.839 364.798 98.1531 366.697 96.2547C368.496 94.4548 370.999 94.6517 372.828 96.4797L366.675 102.632Z" fill="#5790E5"/>
<path d="M618.336 498.494C614.849 496.076 610.743 496.694 607.846 499.591C604.162 503.275 604.331 508.787 608.887 513.344C613.443 517.9 618.955 518.068 622.639 514.384C625.536 511.487 626.154 507.381 623.736 503.894L621.992 505.638C623.567 508.056 622.92 510.841 621.008 512.753C618.392 515.368 614.314 515.397 610.574 511.656C606.834 507.916 606.862 503.838 609.477 501.222C611.39 499.31 614.174 498.663 616.592 500.238L618.336 498.494ZM635.441 501.639C638.365 498.714 638.112 494.524 634.766 491.177C631.391 487.802 627.2 487.549 624.275 490.474C621.351 493.399 621.604 497.589 624.979 500.964C628.325 504.311 632.516 504.564 635.441 501.639ZM633.95 500.148C631.728 502.37 628.803 501.47 626.638 499.305C624.472 497.139 623.544 494.186 625.766 491.964C627.988 489.743 630.941 490.671 633.106 492.836C635.272 495.002 636.172 497.927 633.95 500.148ZM637.805 485.832C635.92 483.947 636.019 481.712 637.608 480.123C639.148 478.583 641.088 478.653 642.783 480.348L649.532 487.097L651.191 485.438L644.329 478.576C641.573 475.82 638.782 475.967 636.595 478.154C634.964 479.785 634.683 481.529 635.274 483.132L635.133 483.272L633.446 481.585L631.842 483.188L642.642 493.987L644.301 492.328L637.805 485.832ZM651.868 463.162L650.068 464.962L655.693 476.549L655.581 476.662L643.994 471.037L642.194 472.837L656.987 479.643L658.674 477.955L651.868 463.162ZM669.224 467.855C671.418 465.662 671.924 462.962 670.799 460.825L668.746 461.978C669.449 463.524 669.034 465.064 667.733 466.365C665.786 468.312 663.184 468.397 660.794 466.161L668.633 458.322L667.93 457.618C663.909 453.597 660.14 454.609 657.89 456.859C654.965 459.784 655.331 464.031 658.65 467.349C661.968 470.668 666.102 470.977 669.224 467.855ZM659.36 464.727C657.792 462.934 657.482 460.248 659.381 458.35C661.181 456.55 663.684 456.747 665.512 458.575L659.36 464.727ZM675.995 460.635L677.654 458.975L670.82 452.141C669.365 450.686 669.442 448.457 671.017 446.882C671.432 446.467 671.818 446.235 672.17 446.123L671.326 444.154C670.75 444.253 670.152 444.541 669.554 445.139C668.247 446.446 667.86 448.295 668.542 449.751L668.429 449.863L666.798 448.232L665.195 449.835L675.995 460.635ZM691.617 453.112C694.12 450.609 695.161 447.206 692.377 444.421L681.493 433.538L679.89 435.141L681.605 436.856L681.437 437.025C680.509 436.828 678.54 436.209 676.431 438.319C673.703 441.047 673.984 445.096 677.302 448.415C680.677 451.79 684.558 451.734 687.174 449.118C689.283 447.009 688.721 445.096 688.496 444.14L688.636 444L690.549 445.912C692.377 447.684 691.786 449.962 690.127 451.621C688.271 453.477 686.443 453.168 685.486 453.055L685.093 455.305C686.921 455.783 689.311 455.418 691.617 453.112ZM685.908 447.403C683.827 449.484 681.184 448.977 678.934 446.728C676.74 444.534 676.009 441.722 678.118 439.612C680.143 437.587 682.843 438.15 685.177 440.484C687.568 442.875 687.905 445.406 685.908 447.403ZM700.083 436.997C702.276 434.803 702.782 432.103 701.657 429.966L699.604 431.119C700.308 432.666 699.893 434.206 698.592 435.506C696.644 437.454 694.043 437.538 691.653 435.302L699.492 427.463L698.789 426.76C694.767 422.738 690.999 423.751 688.749 426.001C685.824 428.925 686.19 433.172 689.508 436.491C692.827 439.809 696.961 440.119 700.083 436.997ZM690.218 433.868C688.65 432.075 688.341 429.389 690.239 427.491C692.039 425.691 694.542 425.888 696.37 427.716L690.218 433.868Z" fill="#5790E5"/>
<path d="M1068.85 53.6615L1320.58 305.392L1068.85 557.122C1054.79 571.18 1031.99 571.18 1017.93 557.122L766.205 305.392L1017.93 53.6615C1031.99 39.6027 1054.79 39.6027 1068.85 53.6615Z" stroke="#0A2EB9" stroke-width="8"/>
<path d="M73.2498 161.562C71.6877 160 69.1551 160 67.593 161.562C66.0309 163.124 66.0309 165.657 67.593 167.219L73.2498 161.562ZM211.843 305.812L214.671 308.64L217.5 305.812L214.671 302.984L211.843 305.812ZM67.593 444.405C66.0309 445.967 66.0309 448.5 67.593 450.062C69.1551 451.624 71.6877 451.624 73.2498 450.062L67.593 444.405ZM67.593 167.219L209.014 308.64L214.671 302.984L73.2498 161.562L67.593 167.219ZM209.014 302.984L67.593 444.405L73.2498 450.062L214.671 308.64L209.014 302.984Z" fill="#0A2EB9"/>
<path d="M1123.06 72.5183L1124.8 74.2619L1130.06 69.0028L1133.21 72.1527C1136.57 75.5064 1140.12 74.9861 1142.66 72.4339C1145.21 69.8958 1145.71 66.3662 1142.32 62.9844L1137.46 58.119L1123.06 72.5183ZM1131.61 67.456L1137.66 61.4095L1140.72 64.4749C1143.06 66.8162 1142.68 68.9958 1140.95 70.7184C1139.22 72.455 1137.02 72.8628 1134.7 70.5496L1131.61 67.456ZM1135.4 84.861L1137.06 86.5203L1143.9 79.6863C1145.35 78.2309 1147.58 78.3082 1149.15 79.8831C1149.57 80.298 1149.8 80.6847 1149.91 81.0362L1151.88 80.1925C1151.78 79.616 1151.5 79.0183 1150.9 78.4207C1149.59 77.113 1147.74 76.7263 1146.29 77.4083L1146.17 77.2958L1147.8 75.6646L1146.2 74.0616L1135.4 84.861ZM1146.83 96.7432C1149.76 99.6681 1153.95 99.415 1157.3 96.0682C1160.67 92.6934 1160.92 88.503 1158 85.5782C1155.07 82.6533 1150.88 82.9064 1147.51 86.2812C1144.16 89.628 1143.91 93.8184 1146.83 96.7432ZM1148.33 95.2527C1146.1 93.0309 1147 90.1061 1149.17 87.9405C1151.33 85.775 1154.29 84.8469 1156.51 87.0687C1158.73 89.2905 1157.8 92.2434 1155.64 94.409C1153.47 96.5745 1150.55 97.4744 1148.33 95.2527ZM1169.98 97.8418L1167.68 95.5357L1170.26 92.9483L1168.6 91.289L1166.02 93.8764L1164.39 92.2452L1162.98 93.6514L1164.61 95.2825L1157.86 102.032C1155.98 103.916 1156.6 106.335 1158 107.741C1158.62 108.36 1159.13 108.641 1159.44 108.782L1160.59 106.954C1160.42 106.841 1160.14 106.673 1159.77 106.307C1159.04 105.576 1158.56 104.648 1159.97 103.242L1166.27 96.9418L1168.58 99.248L1169.98 97.8418ZM1165.84 115.749C1168.77 118.674 1172.96 118.421 1176.3 115.075C1179.68 111.7 1179.93 107.509 1177.01 104.584C1174.08 101.66 1169.89 101.913 1166.52 105.288C1163.17 108.634 1162.92 112.825 1165.84 115.749ZM1167.33 114.259C1165.11 112.037 1166.01 109.112 1168.18 106.947C1170.34 104.781 1173.29 103.853 1175.52 106.075C1177.74 108.297 1176.81 111.25 1174.64 113.415C1172.48 115.581 1169.55 116.481 1167.33 114.259ZM1188.99 116.848L1186.68 114.542L1189.27 111.955L1187.61 110.295L1185.02 112.883L1183.39 111.251L1181.99 112.658L1183.62 114.289L1176.87 121.038C1174.98 122.923 1175.6 125.341 1177.01 126.748C1177.63 127.366 1178.13 127.647 1178.44 127.788L1179.59 125.96C1179.43 125.848 1179.14 125.679 1178.78 125.313C1178.05 124.582 1177.57 123.654 1178.98 122.248L1185.28 115.948L1187.58 118.254L1188.99 116.848ZM1177.62 135.462C1179.14 136.981 1180.97 137.234 1183.25 136.194L1200.43 128.291L1198.63 126.491L1187.04 132.116L1186.93 132.003L1192.56 120.416L1190.76 118.616L1183.89 133.522L1182.52 134.112C1180.29 135.097 1179.39 134.534 1178.49 133.016L1176.61 134.056C1176.69 134.309 1177.06 134.9 1177.62 135.462ZM1196.55 146.455C1199.25 149.155 1203.3 148.874 1206.73 145.443C1210.13 142.04 1210.41 137.99 1207.68 135.262C1205.57 133.153 1203.63 133.8 1202.71 133.996L1202.51 133.8L1204.22 132.084L1202.62 130.481L1187.77 145.33L1189.43 146.989L1195.14 141.28L1195.28 141.421C1195.06 142.377 1194.47 144.374 1196.55 146.455ZM1197.81 144.74C1195.82 142.743 1196.41 139.959 1198.85 137.512C1201.27 135.093 1203.97 134.531 1206 136.556C1208.11 138.665 1207.37 141.477 1205.1 143.755C1202.79 146.061 1199.89 146.821 1197.81 144.74ZM1208.19 158.098C1210.38 160.292 1213.08 160.798 1215.22 159.673L1214.07 157.62C1212.52 158.323 1210.98 157.908 1209.68 156.608C1207.73 154.66 1207.65 152.059 1209.88 149.668L1217.72 157.508L1218.43 156.805C1222.45 152.783 1221.44 149.014 1219.19 146.764C1216.26 143.84 1212.01 144.205 1208.7 147.524C1205.38 150.842 1205.07 154.977 1208.19 158.098ZM1211.32 148.234C1213.11 146.666 1215.8 146.357 1217.7 148.255C1219.5 150.055 1219.3 152.558 1217.47 154.386L1211.32 148.234ZM1224.3 166.106C1221.96 168.441 1222.02 171.872 1224.86 174.712C1226.18 176.034 1228.12 177.047 1230.01 177.025L1229.81 179.268L1231.81 181.265L1232.24 176.85C1233.48 176.695 1235.25 176.133 1237.26 174.122L1235.66 172.519C1234.67 173.503 1233.58 174.15 1232.48 174.501L1233.17 167.555L1235.01 167.822C1237.07 168.131 1238.75 167.906 1240.13 166.528C1241.73 164.925 1241.82 162.197 1239.65 160.032C1237.54 157.923 1234.84 157.866 1232.9 159.807C1231.62 161.086 1231.34 162.767 1231.13 164.953C1228.28 164.44 1226.04 164.363 1224.3 166.106ZM1230.22 174.832C1228.68 174.783 1227.26 174.192 1226.27 173.194C1224.55 171.478 1224.63 169.144 1225.98 167.794C1226.38 167.4 1227.76 166.753 1230.01 167.091L1230.93 167.231L1230.22 174.832ZM1233.39 165.298C1233.54 163.737 1233.76 162.324 1234.56 161.522C1235.46 160.622 1237.18 160.426 1238.27 161.522C1239.32 162.563 1239.17 164.11 1238.44 164.841C1237.46 165.825 1236.39 165.825 1235.04 165.544L1233.39 165.298ZM1251.5 175.255L1256.03 179.783L1243.18 192.636L1244.92 194.379L1257.77 181.527L1262.3 186.055L1263.85 184.508L1253.05 173.709L1251.5 175.255ZM1254.65 204.56C1256.85 206.754 1259.54 207.26 1261.68 206.135L1260.53 204.082C1258.98 204.785 1257.44 204.37 1256.14 203.07C1254.19 201.122 1254.11 198.521 1256.35 196.13L1264.19 203.97L1264.89 203.266C1268.91 199.245 1267.9 195.476 1265.65 193.226C1262.72 190.302 1258.48 190.667 1255.16 193.986C1251.84 197.304 1251.53 201.438 1254.65 204.56ZM1257.78 194.696C1259.57 193.128 1262.26 192.819 1264.16 194.717C1265.96 196.517 1265.76 199.02 1263.93 200.848L1257.78 194.696ZM1277.9 210.6C1278.92 208.547 1278.77 206.353 1276.64 204.216C1274.36 201.938 1271.38 201.544 1269.55 203.372C1268.06 204.863 1267.95 206.747 1269.47 209.194L1270.84 211.415C1271.68 212.758 1271.67 213.792 1270.93 214.537C1270 215.465 1268.26 215.24 1266.71 213.693C1265.35 212.336 1265.09 210.902 1265.95 209.447L1263.98 208.265C1262.53 210.487 1263.07 212.976 1265.28 215.184C1267.79 217.694 1270.86 218.031 1272.73 216.168C1274.23 214.664 1274.24 212.772 1272.78 210.375L1271.57 208.378C1270.61 206.782 1270.46 205.777 1271.29 204.947C1272.22 204.019 1273.88 204.328 1275.2 205.65C1276.65 207.098 1276.45 208.497 1275.99 209.531L1277.9 210.6ZM1287.71 215.572L1285.41 213.266L1287.99 210.679L1286.33 209.02L1283.75 211.607L1282.12 209.976L1280.71 211.382L1282.34 213.013L1275.59 219.763C1273.71 221.647 1274.33 224.066 1275.73 225.472C1276.35 226.091 1276.86 226.372 1277.17 226.512L1278.32 224.684C1278.15 224.572 1277.87 224.403 1277.5 224.037C1276.77 223.306 1276.29 222.378 1277.7 220.972L1284 214.672L1286.31 216.978L1287.71 215.572Z" fill="#5790E5"/>
<path d="M993.465 300.663C992.684 291.643 986.079 286.53 976.917 286.53C967.116 286.53 959.375 293.064 959.375 305.209C959.375 317.3 966.903 323.888 976.917 323.888C987.571 323.888 992.968 316.501 993.465 310.322L983.451 310.251C982.954 313.359 980.752 315.294 977.13 315.294C972.318 315.294 969.531 311.885 969.531 305.209C969.531 298.888 972.23 295.124 977.201 295.124C981.001 295.124 983.167 297.361 983.451 300.663H993.465ZM998.086 323.391H1007.89V309.186C1007.91 306.079 1010 304.072 1012.43 304.072C1013.46 304.072 1014.32 304.41 1015.13 304.783L1017.97 296.757C1016.87 296.153 1015.49 295.763 1014.07 295.763C1011.15 295.763 1008.9 297.467 1007.89 301.303H1007.6V296.118H998.086V323.391ZM1032.68 323.888C1040.25 323.888 1045.11 320.266 1046.04 314.584H1037.09C1036.52 316.129 1034.9 316.999 1032.9 316.999C1029.98 316.999 1028.28 315.081 1028.28 312.453V312.027H1046.04V309.754C1046.04 301.072 1040.71 295.763 1032.47 295.763C1024.02 295.763 1018.62 301.374 1018.62 309.825C1018.62 318.65 1023.95 323.888 1032.68 323.888ZM1028.28 306.629C1028.33 304.268 1030.29 302.652 1032.68 302.652C1035.12 302.652 1036.96 304.286 1037.02 306.629H1028.28ZM1057.74 323.817C1061.29 323.817 1063.97 322.609 1065.62 319.555H1065.83V323.391H1075V304.712C1075 299.669 1070.13 295.763 1062.64 295.763C1054.19 295.763 1050.26 300.024 1049.92 304.996H1058.94C1059.17 303.309 1060.42 302.51 1062.28 302.51C1064.02 302.51 1065.16 303.256 1065.19 304.712C1065.23 306.345 1063.45 306.86 1058.87 307.197C1053.24 307.606 1048.86 309.879 1048.86 315.862C1048.86 321.295 1052.52 323.817 1057.74 323.817ZM1060.93 317.638C1059.26 317.638 1058.09 316.821 1058.09 315.294C1058.09 313.891 1059.09 312.808 1061.36 312.453C1062.92 312.205 1064.24 311.885 1065.27 311.459V313.732C1065.27 316.217 1063.15 317.638 1060.93 317.638ZM1095.94 296.118H1091.25V289.584H1081.45V296.118H1077.97V303.22H1081.45V315.436C1081.38 321.153 1084.92 324.048 1091.68 323.675C1093.9 323.55 1095.55 323.089 1096.44 322.822L1095.02 315.933C1094.65 316.022 1093.69 316.217 1093.1 316.217C1091.82 316.217 1091.18 315.631 1091.25 314.513V303.22H1095.94V296.118ZM1112.86 323.888C1120.42 323.888 1125.29 320.266 1126.21 314.584H1117.26C1116.69 316.129 1115.08 316.999 1113.07 316.999C1110.16 316.999 1108.46 315.081 1108.46 312.453V312.027H1126.21V309.754C1126.21 301.072 1120.88 295.763 1112.65 295.763C1104.19 295.763 1098.8 301.374 1098.8 309.825C1098.8 318.65 1104.12 323.888 1112.86 323.888ZM1108.46 306.629C1108.51 304.268 1110.46 302.652 1112.86 302.652C1115.29 302.652 1117.14 304.286 1117.19 306.629H1108.46Z" fill="#0A2EB9"/>
<path d="M418.822 323.391H443.396V315.436H428.694V287.027H418.822V323.391ZM460.739 323.888C468.303 323.888 473.168 320.266 474.091 314.584H465.142C464.574 316.129 462.958 316.999 460.952 316.999C458.04 316.999 456.336 315.081 456.336 312.453V312.027H474.091V309.754C474.091 301.072 468.765 295.763 460.526 295.763C452.074 295.763 446.676 301.374 446.676 309.825C446.676 318.65 452.003 323.888 460.739 323.888ZM456.336 306.629C456.389 304.268 458.342 302.652 460.739 302.652C463.172 302.652 465.018 304.286 465.071 306.629H456.336ZM485.792 323.817C489.343 323.817 492.025 322.609 493.676 319.555H493.889V323.391H503.051V304.712C503.051 299.669 498.186 295.763 490.693 295.763C482.241 295.763 478.317 300.024 477.98 304.996H487C487.23 303.309 488.473 302.51 490.338 302.51C492.078 302.51 493.214 303.256 493.25 304.712C493.285 306.345 491.51 306.86 486.929 307.197C481.3 307.606 476.914 309.879 476.914 315.862C476.914 321.295 480.572 323.817 485.792 323.817ZM488.988 317.638C487.319 317.638 486.147 316.821 486.147 315.294C486.147 313.891 487.142 312.808 489.414 312.453C490.977 312.205 492.291 311.885 493.321 311.459V313.732C493.321 316.217 491.208 317.638 488.988 317.638ZM507.734 323.391H517.535V309.186C517.553 306.079 519.648 304.072 522.08 304.072C523.11 304.072 523.963 304.41 524.779 304.783L527.62 296.757C526.519 296.153 525.134 295.763 523.714 295.763C520.802 295.763 518.547 297.467 517.535 301.303H517.251V296.118H507.734V323.391ZM540.484 308.05C540.502 305.351 542.029 303.717 544.461 303.717C546.93 303.717 548.385 305.351 548.368 308.05V323.391H558.169V305.99C558.187 300.06 554.44 295.763 548.652 295.763C544.639 295.763 541.461 297.858 540.271 301.303H539.987V296.118H530.683V323.391H540.484V308.05Z" fill="#0A2EB9"/>
<path d="M1461.42 160.391C1463.63 160.391 1465.42 162.181 1465.42 164.391V200.391C1465.42 202.6 1463.63 204.391 1461.42 204.391C1459.21 204.391 1457.42 202.6 1457.42 200.391V168.391H1425.42C1423.21 168.391 1421.42 166.6 1421.42 164.391C1421.42 162.181 1423.21 160.391 1425.42 160.391H1461.42ZM1320 305.812L1317.17 308.64L1314.34 305.812L1317.17 302.984L1320 305.812ZM1465.42 447.233C1465.42 449.442 1463.63 451.233 1461.42 451.233H1425.42C1423.21 451.233 1421.42 449.442 1421.42 447.233C1421.42 445.024 1423.21 443.233 1425.42 443.233H1457.42L1457.42 411.233C1457.42 409.024 1459.21 407.233 1461.42 407.233C1463.63 407.233 1465.42 409.024 1465.42 411.233L1465.42 447.233ZM1464.25 167.219L1322.83 308.64L1317.17 302.984L1458.59 161.562L1464.25 167.219ZM1322.83 302.984L1464.25 444.405L1458.59 450.062L1317.17 308.64L1322.83 302.984Z" fill="#0A2EB9"/>
<path d="M842.485 446.725C846.872 451.112 852.075 450.859 856.575 446.359C861.047 441.888 861.272 436.713 857.081 432.523L852.441 427.882L838.041 442.281L842.485 446.725ZM841.332 442.478L852.638 431.173L855.422 433.957C858.797 437.332 858.375 441.185 854.887 444.672C851.372 448.187 847.491 448.637 843.919 445.066L841.332 442.478ZM852.047 456.287L853.706 457.946L864.506 447.147L862.846 445.488L852.047 456.287ZM865.462 444.559C866.109 445.206 867.149 445.234 867.768 444.616C868.387 443.997 868.359 442.956 867.712 442.31C867.065 441.663 866.024 441.635 865.406 442.253C864.787 442.872 864.815 443.913 865.462 444.559ZM876.376 459.017L874.576 457.217L862.989 462.842L862.876 462.729L868.501 451.142L866.701 449.342L859.895 464.135L861.583 465.823L876.376 459.017ZM871.683 476.372C873.876 478.566 876.576 479.072 878.713 477.947L877.56 475.894C876.014 476.597 874.474 476.183 873.173 474.882C871.226 472.934 871.141 470.333 873.377 467.942L881.216 475.782L881.919 475.079C885.941 471.057 884.929 467.289 882.679 465.039C879.754 462.114 875.507 462.479 872.189 465.798C868.87 469.117 868.561 473.251 871.683 476.372ZM874.811 466.508C876.604 464.94 879.29 464.631 881.188 466.529C882.988 468.329 882.791 470.832 880.963 472.66L874.811 466.508ZM878.903 483.143L880.563 484.803L887.397 477.968C888.852 476.513 891.081 476.59 892.656 478.165C893.07 478.58 893.303 478.967 893.415 479.318L895.384 478.475C895.285 477.898 894.997 477.301 894.399 476.703C893.092 475.395 891.242 475.008 889.787 475.69L889.675 475.578L891.306 473.947L889.703 472.344L878.903 483.143ZM886.426 498.766C888.929 501.269 892.332 502.309 895.116 499.525L906 488.641L904.397 487.038L902.682 488.754L902.513 488.585C902.71 487.657 903.329 485.688 901.219 483.579C898.491 480.851 894.442 481.132 891.123 484.451C887.748 487.826 887.804 491.707 890.42 494.322C892.529 496.432 894.442 495.869 895.398 495.644L895.538 495.785L893.626 497.697C891.854 499.525 889.576 498.935 887.917 497.275C886.061 495.419 886.37 493.591 886.483 492.635L884.233 492.241C883.755 494.069 884.12 496.46 886.426 498.766ZM892.135 493.057C890.054 490.976 890.56 488.332 892.81 486.082C895.004 483.889 897.816 483.157 899.926 485.267C901.951 487.291 901.388 489.991 899.054 492.326C896.663 494.716 894.132 495.054 892.135 493.057ZM902.541 507.231C904.735 509.425 907.435 509.931 909.572 508.806L908.419 506.753C906.872 507.456 905.332 507.041 904.032 505.741C902.084 503.793 902 501.192 904.236 498.801L912.075 506.64L912.778 505.937C916.8 501.916 915.787 498.147 913.537 495.897C910.613 492.972 906.366 493.338 903.047 496.657C899.729 499.975 899.419 504.109 902.541 507.231ZM905.67 497.367C907.463 495.799 910.149 495.489 912.047 497.388C913.847 499.188 913.65 501.691 911.822 503.519L905.67 497.367Z" fill="#5790E5"/>
<path d="M846.857 160.585L845.114 162.328L859.513 176.728L861.257 174.984L846.857 160.585ZM873.555 162.685L859.156 148.286L857.497 149.945L862.812 155.261L862.672 155.401C861.744 155.204 859.803 154.558 857.694 156.667C854.966 159.395 855.247 163.445 858.65 166.848C862.081 170.279 866.131 170.56 868.831 167.86C870.912 165.779 870.321 163.782 870.096 162.826L870.293 162.629L871.952 164.288L873.555 162.685ZM866.525 158.917C868.971 161.363 869.562 164.148 867.565 166.144C865.484 168.226 862.587 167.466 860.281 165.16C858.003 162.882 857.272 160.07 859.381 157.96C861.406 155.936 864.106 156.498 866.525 158.917ZM881.346 155.345C883.539 153.151 884.046 150.451 882.921 148.314L880.868 149.467C881.571 151.014 881.156 152.554 879.855 153.854C877.908 155.802 875.306 155.886 872.916 153.651L880.755 145.811L880.052 145.108C876.03 141.086 872.262 142.099 870.012 144.349C867.087 147.274 867.453 151.52 870.771 154.839C874.09 158.157 878.224 158.467 881.346 155.345ZM871.481 152.216C869.913 150.423 869.604 147.738 871.502 145.839C873.302 144.039 875.805 144.236 877.633 146.064L871.481 152.216ZM891.548 145.199C893.432 143.315 893.404 141.318 893.038 140.278L893.122 140.193L894.585 141.656L896.244 139.997L889.129 132.881C885.698 129.45 882.689 131.672 881.311 133.05C879.679 134.681 878.386 137.1 879.511 139.912L881.648 138.9C881.226 137.747 881.247 136.038 882.829 134.456C884.369 132.916 885.93 133.001 887.329 134.4C888.131 135.201 887.273 135.975 885.557 138.197C883.814 140.461 882.07 143.09 884.545 145.565C886.654 147.674 889.495 147.252 891.548 145.199ZM890.31 143.456C888.988 144.778 887.442 145.143 886.288 143.99C885.023 142.725 885.782 141.178 886.907 139.715C887.526 138.928 889.213 136.847 889.157 136.228L890.676 137.747C892.026 139.097 892.279 141.487 890.31 143.456ZM893.17 121.472L890.864 123.778L888.276 121.191L886.617 122.85L889.204 125.437L887.573 127.068L888.98 128.475L890.611 126.844L897.36 133.593C899.245 135.477 901.663 134.859 903.069 133.453C903.688 132.834 903.969 132.328 904.11 132.018L902.282 130.865C902.169 131.034 902.001 131.315 901.635 131.681C900.904 132.412 899.976 132.89 898.57 131.484L892.27 125.184L894.576 122.878L893.17 121.472ZM911.218 125.472C913.412 123.279 913.918 120.579 912.793 118.442L910.74 119.595C911.443 121.141 911.028 122.681 909.728 123.982C907.78 125.929 905.179 126.014 902.788 123.778L910.628 115.939L909.925 115.236C905.903 111.214 902.134 112.226 899.884 114.476C896.96 117.401 897.325 121.648 900.644 124.966C903.962 128.285 908.097 128.594 911.218 125.472ZM901.354 122.344C899.786 120.551 899.477 117.865 901.375 115.967C903.175 114.167 905.678 114.364 907.506 116.192L901.354 122.344Z" fill="#5790E5"/>
<path d="M1172.73 498.494C1169.24 496.076 1165.13 496.694 1162.24 499.591C1158.55 503.275 1158.72 508.787 1163.28 513.344C1167.83 517.9 1173.35 518.068 1177.03 514.384C1179.93 511.487 1180.54 507.381 1178.13 503.894L1176.38 505.638C1177.96 508.056 1177.31 510.841 1175.4 512.753C1172.78 515.368 1168.7 515.397 1164.96 511.656C1161.22 507.916 1161.25 503.838 1163.87 501.222C1165.78 499.31 1168.56 498.663 1170.98 500.238L1172.73 498.494ZM1189.83 501.639C1192.76 498.714 1192.5 494.524 1189.16 491.177C1185.78 487.802 1181.59 487.549 1178.67 490.474C1175.74 493.399 1175.99 497.589 1179.37 500.964C1182.72 504.311 1186.91 504.564 1189.83 501.639ZM1188.34 500.148C1186.12 502.37 1183.19 501.47 1181.03 499.305C1178.86 497.139 1177.93 494.186 1180.16 491.964C1182.38 489.743 1185.33 490.671 1187.5 492.836C1189.66 495.002 1190.56 497.927 1188.34 500.148ZM1192.2 485.832C1190.31 483.947 1190.41 481.712 1192 480.123C1193.54 478.583 1195.48 478.653 1197.17 480.348L1203.92 487.097L1205.58 485.438L1198.72 478.576C1195.96 475.82 1193.17 475.967 1190.99 478.154C1189.35 479.785 1189.07 481.529 1189.66 483.132L1189.52 483.272L1187.84 481.585L1186.23 483.188L1197.03 493.987L1198.69 492.328L1192.2 485.832ZM1206.26 463.162L1204.46 464.962L1210.08 476.549L1209.97 476.662L1198.38 471.037L1196.58 472.837L1211.38 479.643L1213.06 477.955L1206.26 463.162ZM1223.61 467.855C1225.81 465.662 1226.31 462.962 1225.19 460.825L1223.14 461.978C1223.84 463.524 1223.42 465.064 1222.12 466.365C1220.18 468.312 1217.57 468.397 1215.18 466.161L1223.02 458.322L1222.32 457.618C1218.3 453.597 1214.53 454.609 1212.28 456.859C1209.36 459.784 1209.72 464.031 1213.04 467.349C1216.36 470.668 1220.49 470.977 1223.61 467.855ZM1213.75 464.727C1212.18 462.934 1211.87 460.248 1213.77 458.35C1215.57 456.55 1218.07 456.747 1219.9 458.575L1213.75 464.727ZM1230.39 460.635L1232.04 458.975L1225.21 452.141C1223.75 450.686 1223.83 448.457 1225.41 446.882C1225.82 446.467 1226.21 446.235 1226.56 446.123L1225.72 444.154C1225.14 444.253 1224.54 444.541 1223.94 445.139C1222.64 446.446 1222.25 448.295 1222.93 449.751L1222.82 449.863L1221.19 448.232L1219.59 449.835L1230.39 460.635ZM1246.01 453.112C1248.51 450.609 1249.55 447.206 1246.77 444.421L1235.88 433.538L1234.28 435.141L1236 436.856L1235.83 437.025C1234.9 436.828 1232.93 436.209 1230.82 438.319C1228.09 441.047 1228.37 445.096 1231.69 448.415C1235.07 451.79 1238.95 451.734 1241.56 449.118C1243.67 447.009 1243.11 445.096 1242.89 444.14L1243.03 444L1244.94 445.912C1246.77 447.684 1246.18 449.962 1244.52 451.621C1242.66 453.477 1240.83 453.168 1239.88 453.055L1239.48 455.305C1241.31 455.783 1243.7 455.418 1246.01 453.112ZM1240.3 447.403C1238.22 449.484 1235.57 448.977 1233.32 446.728C1231.13 444.534 1230.4 441.722 1232.51 439.612C1234.53 437.587 1237.23 438.15 1239.57 440.484C1241.96 442.875 1242.3 445.406 1240.3 447.403ZM1254.47 436.997C1256.67 434.803 1257.17 432.103 1256.05 429.966L1253.99 431.119C1254.7 432.666 1254.28 434.206 1252.98 435.506C1251.03 437.454 1248.43 437.538 1246.04 435.302L1253.88 427.463L1253.18 426.76C1249.16 422.738 1245.39 423.751 1243.14 426.001C1240.21 428.925 1240.58 433.172 1243.9 436.491C1247.22 439.809 1251.35 440.119 1254.47 436.997ZM1244.61 433.868C1243.04 432.075 1242.73 429.389 1244.63 427.491C1246.43 425.691 1248.93 425.888 1250.76 427.716L1244.61 433.868Z" fill="#5790E5"/>
<line x1="490" y1="1.39063" x2="490" y2="201.391" stroke="#5790E5" stroke-width="2" stroke-dasharray="12 12"/>
<line x1="490" y1="409.391" x2="490" y2="609.391" stroke="#5790E5" stroke-width="2" stroke-dasharray="12 12"/>
<line x1="1044" y1="1.39063" x2="1044" y2="201.391" stroke="#5790E5" stroke-width="2" stroke-dasharray="12 12"/>
<line x1="1044" y1="409.391" x2="1044" y2="609.391" stroke="#5790E5" stroke-width="2" stroke-dasharray="12 12"/>
</g>
<defs>
<clipPath id="clip0">
<rect width="1523" height="610" fill="white"/>
</clipPath>
</defs>
</svg>
