<svg width="1536" height="610" viewBox="0 0 1536 610" fill="none" xmlns="http://www.w3.org/2000/svg">
<g clip-path="url(#clip0)">
<path d="M6.33594 315C12.5405 315 16.0405 311.142 16.0405 304.778C16.0405 298.455 12.5405 294.636 6.61435 294.636H0.0518467V315H6.33594ZM2.51776 312.812V296.824H6.45526C11.228 296.824 13.6541 299.847 13.6541 304.778C13.6541 309.75 11.228 312.812 6.17685 312.812H2.51776ZM19.8587 315H22.2053V299.727H19.8587V315ZM21.0518 297.222C21.9666 297.222 22.7223 296.506 22.7223 295.631C22.7223 294.756 21.9666 294.04 21.0518 294.04C20.1371 294.04 19.3814 294.756 19.3814 295.631C19.3814 296.506 20.1371 297.222 21.0518 297.222ZM37.3214 303.148C36.5856 300.98 34.935 299.528 31.9123 299.528C28.6907 299.528 26.3043 301.358 26.3043 303.943C26.3043 306.051 27.5572 307.463 30.3612 308.119L32.9066 308.716C34.4478 309.074 35.1737 309.81 35.1737 310.864C35.1737 312.176 33.7816 313.25 31.5941 313.25C29.6751 313.25 28.4719 312.425 28.0543 310.784L25.8271 311.341C26.3739 313.936 28.5117 315.318 31.6339 315.318C35.1836 315.318 37.5998 313.379 37.5998 310.744C37.5998 308.616 36.2674 307.274 33.543 306.608L31.2759 306.051C29.4663 305.604 28.6509 304.997 28.6509 303.824C28.6509 302.511 30.043 301.557 31.9123 301.557C33.9606 301.557 34.8058 302.69 35.2134 303.744L37.3214 303.148ZM47.3366 315.318C50.7173 315.318 52.9446 313.25 53.3423 310.545H50.9957C50.5582 312.216 49.1662 313.21 47.3366 313.21C44.5526 313.21 42.7628 310.903 42.7628 307.364C42.7628 303.903 44.5923 301.636 47.3366 301.636C49.4048 301.636 50.6378 302.909 50.9957 304.301H53.3423C52.9446 301.438 50.5185 299.528 47.2969 299.528C43.1605 299.528 40.4162 302.79 40.4162 307.443C40.4162 312.017 43.0412 315.318 47.3366 315.318ZM62.9773 315.318C67.1136 315.318 69.8977 312.176 69.8977 307.443C69.8977 302.67 67.1136 299.528 62.9773 299.528C58.8409 299.528 56.0568 302.67 56.0568 307.443C56.0568 312.176 58.8409 315.318 62.9773 315.318ZM62.9773 313.21C59.8352 313.21 58.4034 310.506 58.4034 307.443C58.4034 304.381 59.8352 301.636 62.9773 301.636C66.1193 301.636 67.5511 304.381 67.5511 307.443C67.5511 310.506 66.1193 313.21 62.9773 313.21ZM85.9684 299.727H83.4229L79.207 311.898H79.0479L74.832 299.727H72.2866L77.9343 315H80.3207L85.9684 299.727ZM94.9222 315.318C98.0245 315.318 100.292 313.767 101.007 311.46L98.7404 310.824C98.1438 312.415 96.7617 313.21 94.9222 313.21C92.168 313.21 90.2688 311.43 90.1594 308.159H101.246V307.165C101.246 301.477 97.8654 299.528 94.6836 299.528C90.5472 299.528 87.8029 302.79 87.8029 307.483C87.8029 312.176 90.5075 315.318 94.9222 315.318ZM90.1594 306.131C90.3185 303.754 91.9989 301.636 94.6836 301.636C97.229 301.636 98.8597 303.545 98.8597 306.131H90.1594ZM104.816 315H107.162V305.335C107.162 303.277 108.793 301.756 111.02 301.756C111.607 301.756 112.044 301.865 112.373 302.034L113.168 300.045C112.691 299.707 112.064 299.489 111.219 299.489C109.37 299.489 107.789 300.523 107.242 302.034H107.083V299.727H104.816V315ZM116.994 320.926C119.141 320.926 120.613 319.812 121.488 317.466L128.05 299.727H125.505L121.289 311.898H121.13L116.914 299.727H114.369L120.056 315.119L119.499 316.511C118.624 318.778 117.59 319.017 115.88 318.58L115.283 320.648C115.522 320.767 116.198 320.926 116.994 320.926Z" fill="#5790E5"/>
<path d="M1442.6 299.727H1444.99C1444.88 296.655 1442.05 294.358 1438.11 294.358C1434.21 294.358 1431.15 296.625 1431.15 300.045C1431.15 302.79 1433.14 304.42 1436.32 305.335L1438.82 306.051C1440.97 306.648 1442.88 307.403 1442.88 309.432C1442.88 311.659 1440.73 313.131 1437.91 313.131C1435.48 313.131 1433.34 312.057 1433.14 309.75H1430.59C1430.83 313.091 1433.53 315.358 1437.91 315.358C1442.6 315.358 1445.27 312.773 1445.27 309.472C1445.27 305.653 1441.65 304.42 1439.54 303.864L1437.47 303.307C1435.96 302.909 1433.53 302.114 1433.53 299.926C1433.53 297.977 1435.32 296.545 1438.03 296.545C1440.49 296.545 1442.36 297.719 1442.6 299.727ZM1455.21 315.318C1459.34 315.318 1462.13 312.176 1462.13 307.443C1462.13 302.67 1459.34 299.528 1455.21 299.528C1451.07 299.528 1448.29 302.67 1448.29 307.443C1448.29 312.176 1451.07 315.318 1455.21 315.318ZM1455.21 313.21C1452.07 313.21 1450.63 310.506 1450.63 307.443C1450.63 304.381 1452.07 301.636 1455.21 301.636C1458.35 301.636 1459.78 304.381 1459.78 307.443C1459.78 310.506 1458.35 313.21 1455.21 313.21ZM1468.06 294.636H1465.71V315H1468.06V294.636ZM1481.98 308.756C1481.98 311.619 1479.79 312.932 1478.04 312.932C1476.09 312.932 1474.7 311.5 1474.7 309.273V299.727H1472.35V309.432C1472.35 313.33 1474.42 315.199 1477.29 315.199C1479.59 315.199 1481.1 313.966 1481.82 312.415H1481.98V315H1484.33V299.727H1481.98V308.756ZM1495.27 299.727H1492V296.068H1489.66V299.727H1487.35V301.716H1489.66V311.261C1489.66 313.926 1491.81 315.199 1493.79 315.199C1494.67 315.199 1495.23 315.04 1495.54 314.92L1495.07 312.812C1494.87 312.852 1494.55 312.932 1494.03 312.932C1493 312.932 1492 312.614 1492 310.625V301.716H1495.27V299.727ZM1498.96 315H1501.31V299.727H1498.96V315ZM1500.15 297.222C1501.07 297.222 1501.82 296.506 1501.82 295.631C1501.82 294.756 1501.07 294.04 1500.15 294.04C1499.24 294.04 1498.48 294.756 1498.48 295.631C1498.48 296.506 1499.24 297.222 1500.15 297.222ZM1511.81 315.318C1515.95 315.318 1518.73 312.176 1518.73 307.443C1518.73 302.67 1515.95 299.528 1511.81 299.528C1507.67 299.528 1504.89 302.67 1504.89 307.443C1504.89 312.176 1507.67 315.318 1511.81 315.318ZM1511.81 313.21C1508.67 313.21 1507.24 310.506 1507.24 307.443C1507.24 304.381 1508.67 301.636 1511.81 301.636C1514.95 301.636 1516.38 304.381 1516.38 307.443C1516.38 310.506 1514.95 313.21 1511.81 313.21ZM1524.66 305.812C1524.66 303.148 1526.31 301.636 1528.56 301.636C1530.73 301.636 1532.06 303.058 1532.06 305.455V315H1534.4V305.295C1534.4 301.398 1532.32 299.528 1529.23 299.528C1526.93 299.528 1525.49 300.562 1524.78 302.114H1524.58V299.727H1522.31V315H1524.66V305.812Z" fill="#5790E5"/>
<path d="M527.456 53.6615L779.186 305.392L527.456 557.122C513.397 571.18 490.603 571.18 476.544 557.122L224.814 305.392L476.544 53.6615C490.603 39.6027 513.397 39.6027 527.456 53.6615Z" stroke="#0A2EB9" stroke-width="8"/>
<path d="M634.112 124.961C638.499 129.348 643.702 129.095 648.202 124.595C652.673 120.124 652.898 114.949 648.708 110.758L644.067 106.118L629.668 120.517L634.112 124.961ZM632.959 120.714L644.264 109.408L647.049 112.193C650.423 115.568 650.002 119.42 646.514 122.908C642.999 126.423 639.118 126.873 635.546 123.302L632.959 120.714ZM647.977 139.276C650.17 141.469 652.87 141.976 655.008 140.851L653.854 138.798C652.308 139.501 650.768 139.086 649.467 137.785C647.52 135.838 647.435 133.236 649.671 130.846L657.511 138.685L658.214 137.982C662.235 133.96 661.223 130.192 658.973 127.942C656.048 125.017 651.801 125.383 648.483 128.701C645.164 132.02 644.855 136.154 647.977 139.276ZM651.105 129.411C652.898 127.843 655.584 127.534 657.482 129.432C659.282 131.232 659.085 133.735 657.257 135.563L651.105 129.411ZM670.806 140.056L668.387 137.638L669.484 136.541C670.553 135.472 671.565 135.36 672.662 136.456C673.14 136.934 673.309 137.328 673.421 137.553L675.334 136.597C675.193 136.231 674.856 135.556 674.04 134.741C672.493 133.194 670.075 132.632 668.219 134.488L666.728 135.978L664.984 134.235L663.578 135.641L665.322 137.384L655.929 146.778L657.588 148.437L666.981 139.044L669.4 141.462L670.806 140.056ZM662.332 153.181L663.991 154.84L674.791 144.041L673.131 142.382L662.332 153.181ZM675.747 141.454C676.394 142.1 677.434 142.128 678.053 141.51C678.672 140.891 678.644 139.85 677.997 139.204C677.35 138.557 676.309 138.529 675.691 139.147C675.072 139.766 675.1 140.807 675.747 141.454ZM675.186 153.042C677.07 151.158 679.306 151.256 680.895 152.845C682.435 154.385 682.365 156.326 680.67 158.02L673.921 164.77L675.58 166.429L682.442 159.567C685.198 156.811 685.051 154.019 682.864 151.833C681.233 150.202 679.489 149.92 677.886 150.511L677.745 150.37L679.433 148.683L677.83 147.08L667.03 157.879L668.69 159.539L675.186 153.042ZM682.915 174.214C685.109 176.408 687.808 176.914 689.946 175.789L688.793 173.736C687.246 174.439 685.706 174.024 684.405 172.723C682.458 170.776 682.373 168.174 684.609 165.784L692.449 173.623L693.152 172.92C697.174 168.899 696.161 165.13 693.911 162.88C690.986 159.955 686.74 160.321 683.421 163.64C680.103 166.958 679.793 171.092 682.915 174.214ZM686.044 164.35C687.836 162.782 690.522 162.472 692.421 164.371C694.221 166.171 694.024 168.674 692.196 170.502L686.044 164.35Z" fill="#5790E5"/>
<path d="M301.095 446.725C305.482 451.112 310.685 450.859 315.185 446.359C319.656 441.888 319.881 436.713 315.691 432.523L311.05 427.882L296.651 442.281L301.095 446.725ZM299.942 442.478L311.247 431.173L314.031 433.957C317.406 437.332 316.984 441.185 313.497 444.672C309.982 448.187 306.101 448.637 302.529 445.066L299.942 442.478ZM310.657 456.287L312.316 457.946L323.115 447.147L321.456 445.488L310.657 456.287ZM324.072 444.559C324.718 445.206 325.759 445.234 326.378 444.616C326.996 443.997 326.968 442.956 326.321 442.31C325.675 441.663 324.634 441.635 324.015 442.253C323.397 442.872 323.425 443.913 324.072 444.559ZM334.985 459.017L333.185 457.217L321.598 462.842L321.486 462.729L327.111 451.142L325.311 449.342L318.505 464.135L320.192 465.823L334.985 459.017ZM330.292 476.372C332.486 478.566 335.186 479.072 337.323 477.947L336.17 475.894C334.623 476.597 333.083 476.183 331.783 474.882C329.835 472.934 329.751 470.333 331.987 467.942L339.826 475.782L340.529 475.079C344.551 471.057 343.538 467.289 341.288 465.039C338.364 462.114 334.117 462.479 330.798 465.798C327.48 469.117 327.17 473.251 330.292 476.372ZM333.421 466.508C335.214 464.94 337.9 464.631 339.798 466.529C341.598 468.329 341.401 470.832 339.573 472.66L333.421 466.508ZM337.513 483.143L339.172 484.803L346.006 477.968C347.462 476.513 349.69 476.59 351.265 478.165C351.68 478.58 351.912 478.967 352.025 479.318L353.993 478.475C353.895 477.898 353.607 477.301 353.009 476.703C351.701 475.395 349.852 475.008 348.397 475.69L348.284 475.578L349.915 473.947L348.312 472.344L337.513 483.143ZM345.036 498.766C347.539 501.269 350.942 502.309 353.726 499.525L364.61 488.641L363.007 487.038L361.291 488.754L361.123 488.585C361.319 487.657 361.938 485.688 359.829 483.579C357.101 480.851 353.051 481.132 349.733 484.451C346.358 487.826 346.414 491.707 349.029 494.322C351.139 496.432 353.051 495.869 354.007 495.644L354.148 495.785L352.236 497.697C350.464 499.525 348.186 498.935 346.526 497.275C344.67 495.419 344.98 493.591 345.092 492.635L342.842 492.241C342.364 494.069 342.73 496.46 345.036 498.766ZM350.745 493.057C348.664 490.976 349.17 488.332 351.42 486.082C353.614 483.889 356.426 483.157 358.535 485.267C360.56 487.291 359.998 489.991 357.663 492.326C355.273 494.716 352.742 495.054 350.745 493.057ZM361.151 507.231C363.344 509.425 366.044 509.931 368.182 508.806L367.029 506.753C365.482 507.456 363.942 507.041 362.641 505.741C360.694 503.793 360.609 501.192 362.845 498.801L370.685 506.64L371.388 505.937C375.409 501.916 374.397 498.147 372.147 495.897C369.222 492.972 364.976 493.338 361.657 496.657C358.338 499.975 358.029 504.109 361.151 507.231ZM364.279 497.367C366.072 495.799 368.758 495.489 370.656 497.388C372.456 499.188 372.26 501.691 370.431 503.519L364.279 497.367Z" fill="#5790E5"/>
<path d="M298.411 196.44L307.213 187.637L305.667 186.09L298.608 193.149L293.714 188.256L300.211 181.759L298.664 180.212L292.167 186.709L287.302 181.844L294.248 174.897L292.702 173.35L284.011 182.04L298.411 196.44ZM310.019 184.832L311.678 183.172L304.928 176.423C303.346 174.841 303.382 172.57 304.675 171.276C305.934 170.018 307.635 169.961 308.866 171.192L316.262 178.588L317.95 176.901L310.919 169.87C309.527 168.478 309.372 166.579 310.891 165.061C312.072 163.88 313.71 163.493 315.306 165.089L322.534 172.317L324.193 170.657L316.965 163.43C314.427 160.891 311.889 161.081 309.962 163.008C308.416 164.555 307.994 166.397 308.556 168.07L308.444 168.183C306.756 167.564 305.139 167.831 303.719 169.251C302.313 170.657 301.947 172.373 302.65 173.976L302.51 174.117L300.822 172.429L299.219 174.032L310.019 184.832ZM332.402 162.899C335.101 160.199 334.82 156.149 331.389 152.718C327.986 149.315 323.936 149.034 321.208 151.762C319.099 153.871 319.746 155.812 319.943 156.74L319.746 156.937L318.03 155.221L316.427 156.824L331.277 171.673L332.936 170.014L327.227 164.305L327.367 164.164C328.324 164.389 330.32 164.98 332.402 162.899ZM330.686 161.633C328.689 163.63 325.905 163.039 323.458 160.593C321.04 158.174 320.477 155.474 322.502 153.449C324.611 151.34 327.424 152.071 329.702 154.349C332.008 156.655 332.767 159.552 330.686 161.633ZM342.723 152.634C344.607 150.749 344.579 148.753 344.213 147.712L344.298 147.628L345.76 149.09L347.42 147.431L340.304 140.316C336.873 136.884 333.864 139.106 332.486 140.484C330.855 142.115 329.561 144.534 330.686 147.346L332.823 146.334C332.402 145.181 332.423 143.472 334.005 141.89C335.544 140.351 337.105 140.435 338.504 141.834C339.306 142.636 338.448 143.409 336.733 145.631C334.989 147.895 333.245 150.524 335.72 152.999C337.829 155.109 340.67 154.687 342.723 152.634ZM341.485 150.89C340.164 152.212 338.617 152.577 337.464 151.424C336.198 150.159 336.958 148.612 338.082 147.15C338.701 146.362 340.389 144.281 340.332 143.662L341.851 145.181C343.201 146.531 343.454 148.921 341.485 150.89ZM344.345 128.906L342.039 131.212L339.452 128.625L337.792 130.284L340.38 132.872L338.749 134.503L340.155 135.909L341.786 134.278L348.536 141.027C350.42 142.912 352.839 142.293 354.245 140.887C354.863 140.268 355.145 139.762 355.285 139.453L353.457 138.299C353.345 138.468 353.176 138.749 352.81 139.115C352.079 139.846 351.151 140.324 349.745 138.918L343.445 132.618L345.751 130.312L344.345 128.906ZM353.151 128.706C351.267 126.822 351.401 124.551 353.039 122.912C354.6 121.351 356.526 121.394 358.242 123.109L364.991 129.859L366.651 128.2L359.789 121.337C357.011 118.56 354.234 118.736 352.026 120.944C350.325 122.645 350.065 124.326 350.677 125.95L350.536 126.09L345.249 120.803L343.589 122.462L357.989 136.862L359.648 135.202L353.151 128.706ZM369.686 125.164L371.346 123.505L360.546 112.705L358.887 114.365L369.686 125.164ZM357.959 111.749C358.606 111.102 358.634 110.062 358.015 109.443C357.396 108.824 356.356 108.852 355.709 109.499C355.062 110.146 355.034 111.187 355.653 111.805C356.271 112.424 357.312 112.396 357.959 111.749ZM374.075 120.775L382.456 112.394L380.909 110.847L374.835 116.922L374.722 116.81L372.866 103.029L371.544 101.707L363.192 110.06L364.738 111.607L370.954 105.391L371.066 105.504L372.81 119.509L374.075 120.775ZM389.54 105.76C391.733 103.567 392.24 100.867 391.115 98.7296L389.062 99.8827C389.765 101.429 389.35 102.969 388.049 104.27C386.102 106.218 383.5 106.302 381.11 104.066L388.949 96.2266L388.246 95.5235C384.224 91.5018 380.456 92.5143 378.206 94.7642C375.281 97.689 375.647 101.936 378.965 105.254C382.284 108.573 386.418 108.882 389.54 105.76ZM379.675 102.632C378.108 100.839 377.798 98.1531 379.697 96.2547C381.496 94.4548 383.999 94.6517 385.828 96.4797L379.675 102.632Z" fill="#5790E5"/>
<path d="M631.336 498.494C627.849 496.076 623.743 496.694 620.846 499.591C617.162 503.275 617.331 508.787 621.887 513.344C626.443 517.9 631.955 518.068 635.639 514.384C638.536 511.487 639.154 507.381 636.736 503.894L634.992 505.638C636.567 508.056 635.92 510.841 634.008 512.753C631.392 515.368 627.314 515.397 623.574 511.656C619.834 507.916 619.862 503.838 622.477 501.222C624.39 499.31 627.174 498.663 629.592 500.238L631.336 498.494ZM648.441 501.639C651.365 498.714 651.112 494.524 647.766 491.177C644.391 487.802 640.2 487.549 637.275 490.474C634.351 493.399 634.604 497.589 637.979 500.964C641.325 504.311 645.516 504.564 648.441 501.639ZM646.95 500.148C644.728 502.37 641.803 501.47 639.638 499.305C637.472 497.139 636.544 494.186 638.766 491.964C640.988 489.743 643.941 490.671 646.106 492.836C648.272 495.002 649.172 497.927 646.95 500.148ZM650.805 485.832C648.92 483.947 649.019 481.712 650.608 480.123C652.148 478.583 654.088 478.653 655.783 480.348L662.532 487.097L664.191 485.438L657.329 478.576C654.573 475.82 651.782 475.967 649.595 478.154C647.964 479.785 647.683 481.529 648.274 483.132L648.133 483.272L646.446 481.585L644.842 483.188L655.642 493.987L657.301 492.328L650.805 485.832ZM664.868 463.162L663.068 464.962L668.693 476.549L668.581 476.662L656.994 471.037L655.194 472.837L669.987 479.643L671.674 477.955L664.868 463.162ZM682.224 467.855C684.418 465.662 684.924 462.962 683.799 460.825L681.746 461.978C682.449 463.524 682.034 465.064 680.733 466.365C678.786 468.312 676.184 468.397 673.794 466.161L681.633 458.322L680.93 457.618C676.909 453.597 673.14 454.609 670.89 456.859C667.965 459.784 668.331 464.031 671.65 467.349C674.968 470.668 679.102 470.977 682.224 467.855ZM672.36 464.727C670.792 462.934 670.482 460.248 672.381 458.35C674.181 456.55 676.684 456.747 678.512 458.575L672.36 464.727ZM688.995 460.635L690.654 458.975L683.82 452.141C682.365 450.686 682.442 448.457 684.017 446.882C684.432 446.467 684.818 446.235 685.17 446.123L684.326 444.154C683.75 444.253 683.152 444.541 682.554 445.139C681.247 446.446 680.86 448.295 681.542 449.751L681.429 449.863L679.798 448.232L678.195 449.835L688.995 460.635ZM704.617 453.112C707.12 450.609 708.161 447.206 705.377 444.421L694.493 433.538L692.89 435.141L694.605 436.856L694.437 437.025C693.509 436.828 691.54 436.209 689.431 438.319C686.703 441.047 686.984 445.096 690.302 448.415C693.677 451.79 697.558 451.734 700.174 449.118C702.283 447.009 701.721 445.096 701.496 444.14L701.636 444L703.549 445.912C705.377 447.684 704.786 449.962 703.127 451.621C701.271 453.477 699.443 453.168 698.486 453.055L698.093 455.305C699.921 455.783 702.311 455.418 704.617 453.112ZM698.908 447.403C696.827 449.484 694.184 448.977 691.934 446.728C689.74 444.534 689.009 441.722 691.118 439.612C693.143 437.587 695.843 438.15 698.177 440.484C700.568 442.875 700.905 445.406 698.908 447.403ZM713.083 436.997C715.276 434.803 715.782 432.103 714.657 429.966L712.604 431.119C713.308 432.666 712.893 434.206 711.592 435.506C709.644 437.454 707.043 437.538 704.653 435.302L712.492 427.463L711.789 426.76C707.767 422.738 703.999 423.751 701.749 426.001C698.824 428.925 699.19 433.172 702.508 436.491C705.827 439.809 709.961 440.119 713.083 436.997ZM703.218 433.868C701.65 432.075 701.341 429.389 703.239 427.491C705.039 425.691 707.542 425.888 709.37 427.716L703.218 433.868Z" fill="#5790E5"/>
<path d="M1081.85 53.6615L1333.58 305.392L1081.85 557.122C1067.79 571.18 1044.99 571.18 1030.93 557.122L779.205 305.392L1030.93 53.6615C1044.99 39.6027 1067.79 39.6027 1081.85 53.6615Z" stroke="#0A2EB9" stroke-width="8"/>
<path d="M86.2498 161.562C84.6877 160 82.1551 160 80.593 161.562C79.0309 163.124 79.0309 165.657 80.593 167.219L86.2498 161.562ZM224.843 305.812L227.671 308.64L230.5 305.812L227.671 302.984L224.843 305.812ZM80.593 444.405C79.0309 445.967 79.0309 448.5 80.593 450.062C82.1551 451.624 84.6877 451.624 86.2498 450.062L80.593 444.405ZM80.593 167.219L222.014 308.64L227.671 302.984L86.2498 161.562L80.593 167.219ZM222.014 302.984L80.593 444.405L86.2498 450.062L227.671 308.64L222.014 302.984Z" fill="#0A2EB9"/>
<path d="M1136.06 72.5183L1137.8 74.2619L1143.06 69.0028L1146.21 72.1527C1149.57 75.5064 1153.12 74.9861 1155.66 72.4339C1158.21 69.8958 1158.71 66.3662 1155.32 62.9844L1150.46 58.119L1136.06 72.5183ZM1144.61 67.456L1150.66 61.4095L1153.72 64.4749C1156.06 66.8162 1155.68 68.9958 1153.95 70.7184C1152.22 72.455 1150.02 72.8628 1147.7 70.5496L1144.61 67.456ZM1148.4 84.861L1150.06 86.5203L1156.9 79.6863C1158.35 78.2309 1160.58 78.3082 1162.15 79.8831C1162.57 80.298 1162.8 80.6847 1162.91 81.0362L1164.88 80.1925C1164.78 79.616 1164.5 79.0183 1163.9 78.4207C1162.59 77.113 1160.74 76.7263 1159.29 77.4083L1159.17 77.2958L1160.8 75.6646L1159.2 74.0616L1148.4 84.861ZM1159.83 96.7432C1162.76 99.6681 1166.95 99.415 1170.3 96.0682C1173.67 92.6934 1173.92 88.503 1171 85.5782C1168.07 82.6533 1163.88 82.9064 1160.51 86.2812C1157.16 89.628 1156.91 93.8184 1159.83 96.7432ZM1161.33 95.2527C1159.1 93.0309 1160 90.1061 1162.17 87.9405C1164.33 85.775 1167.29 84.8469 1169.51 87.0687C1171.73 89.2905 1170.8 92.2434 1168.64 94.409C1166.47 96.5745 1163.55 97.4744 1161.33 95.2527ZM1182.98 97.8418L1180.68 95.5357L1183.26 92.9483L1181.6 91.289L1179.02 93.8764L1177.39 92.2452L1175.98 93.6514L1177.61 95.2825L1170.86 102.032C1168.98 103.916 1169.6 106.335 1171 107.741C1171.62 108.36 1172.13 108.641 1172.44 108.782L1173.59 106.954C1173.42 106.841 1173.14 106.673 1172.77 106.307C1172.04 105.576 1171.56 104.648 1172.97 103.242L1179.27 96.9418L1181.58 99.248L1182.98 97.8418ZM1178.84 115.749C1181.77 118.674 1185.96 118.421 1189.3 115.075C1192.68 111.7 1192.93 107.509 1190.01 104.584C1187.08 101.66 1182.89 101.913 1179.52 105.288C1176.17 108.634 1175.92 112.825 1178.84 115.749ZM1180.33 114.259C1178.11 112.037 1179.01 109.112 1181.18 106.947C1183.34 104.781 1186.29 103.853 1188.52 106.075C1190.74 108.297 1189.81 111.25 1187.64 113.415C1185.48 115.581 1182.55 116.481 1180.33 114.259ZM1201.99 116.848L1199.68 114.542L1202.27 111.955L1200.61 110.295L1198.02 112.883L1196.39 111.251L1194.99 112.658L1196.62 114.289L1189.87 121.038C1187.98 122.923 1188.6 125.341 1190.01 126.748C1190.63 127.366 1191.13 127.647 1191.44 127.788L1192.59 125.96C1192.43 125.848 1192.14 125.679 1191.78 125.313C1191.05 124.582 1190.57 123.654 1191.98 122.248L1198.28 115.948L1200.58 118.254L1201.99 116.848ZM1190.62 135.462C1192.14 136.981 1193.97 137.234 1196.25 136.194L1213.43 128.291L1211.63 126.491L1200.04 132.116L1199.93 132.003L1205.56 120.416L1203.76 118.616L1196.89 133.522L1195.52 134.112C1193.29 135.097 1192.39 134.534 1191.49 133.016L1189.61 134.056C1189.69 134.309 1190.06 134.9 1190.62 135.462ZM1209.55 146.455C1212.25 149.155 1216.3 148.874 1219.73 145.443C1223.13 142.04 1223.41 137.99 1220.68 135.262C1218.57 133.153 1216.63 133.8 1215.71 133.996L1215.51 133.8L1217.22 132.084L1215.62 130.481L1200.77 145.33L1202.43 146.989L1208.14 141.28L1208.28 141.421C1208.06 142.377 1207.47 144.374 1209.55 146.455ZM1210.81 144.74C1208.82 142.743 1209.41 139.959 1211.85 137.512C1214.27 135.093 1216.97 134.531 1219 136.556C1221.11 138.665 1220.37 141.477 1218.1 143.755C1215.79 146.061 1212.89 146.821 1210.81 144.74ZM1221.19 158.098C1223.38 160.292 1226.08 160.798 1228.22 159.673L1227.07 157.62C1225.52 158.323 1223.98 157.908 1222.68 156.608C1220.73 154.66 1220.65 152.059 1222.88 149.668L1230.72 157.508L1231.43 156.805C1235.45 152.783 1234.44 149.014 1232.19 146.764C1229.26 143.84 1225.01 144.205 1221.7 147.524C1218.38 150.842 1218.07 154.977 1221.19 158.098ZM1224.32 148.234C1226.11 146.666 1228.8 146.357 1230.7 148.255C1232.5 150.055 1232.3 152.558 1230.47 154.386L1224.32 148.234ZM1237.3 166.106C1234.96 168.441 1235.02 171.872 1237.86 174.712C1239.18 176.034 1241.12 177.047 1243.01 177.025L1242.81 179.268L1244.81 181.265L1245.24 176.85C1246.48 176.695 1248.25 176.133 1250.26 174.122L1248.66 172.519C1247.67 173.503 1246.58 174.15 1245.48 174.501L1246.17 167.555L1248.01 167.822C1250.07 168.131 1251.75 167.906 1253.13 166.528C1254.73 164.925 1254.82 162.197 1252.65 160.032C1250.54 157.923 1247.84 157.866 1245.9 159.807C1244.62 161.086 1244.34 162.767 1244.13 164.953C1241.28 164.44 1239.04 164.363 1237.3 166.106ZM1243.22 174.832C1241.68 174.783 1240.26 174.192 1239.27 173.194C1237.55 171.478 1237.63 169.144 1238.98 167.794C1239.38 167.4 1240.76 166.753 1243.01 167.091L1243.93 167.231L1243.22 174.832ZM1246.39 165.298C1246.54 163.737 1246.76 162.324 1247.56 161.522C1248.46 160.622 1250.18 160.426 1251.27 161.522C1252.32 162.563 1252.17 164.11 1251.44 164.841C1250.46 165.825 1249.39 165.825 1248.04 165.544L1246.39 165.298ZM1264.5 175.255L1269.03 179.783L1256.18 192.636L1257.92 194.379L1270.77 181.527L1275.3 186.055L1276.85 184.508L1266.05 173.709L1264.5 175.255ZM1267.65 204.56C1269.85 206.754 1272.54 207.26 1274.68 206.135L1273.53 204.082C1271.98 204.785 1270.44 204.37 1269.14 203.07C1267.19 201.122 1267.11 198.521 1269.35 196.13L1277.19 203.97L1277.89 203.266C1281.91 199.245 1280.9 195.476 1278.65 193.226C1275.72 190.302 1271.48 190.667 1268.16 193.986C1264.84 197.304 1264.53 201.438 1267.65 204.56ZM1270.78 194.696C1272.57 193.128 1275.26 192.819 1277.16 194.717C1278.96 196.517 1278.76 199.02 1276.93 200.848L1270.78 194.696ZM1290.9 210.6C1291.92 208.547 1291.77 206.353 1289.64 204.216C1287.36 201.938 1284.38 201.544 1282.55 203.372C1281.06 204.863 1280.95 206.747 1282.47 209.194L1283.84 211.415C1284.68 212.758 1284.67 213.792 1283.93 214.537C1283 215.465 1281.26 215.24 1279.71 213.693C1278.35 212.336 1278.09 210.902 1278.95 209.447L1276.98 208.265C1275.53 210.487 1276.07 212.976 1278.28 215.184C1280.79 217.694 1283.86 218.031 1285.73 216.168C1287.23 214.664 1287.24 212.772 1285.78 210.375L1284.57 208.378C1283.61 206.782 1283.46 205.777 1284.29 204.947C1285.22 204.019 1286.88 204.328 1288.2 205.65C1289.65 207.098 1289.45 208.497 1288.99 209.531L1290.9 210.6ZM1300.71 215.572L1298.41 213.266L1300.99 210.679L1299.33 209.02L1296.75 211.607L1295.12 209.976L1293.71 211.382L1295.34 213.013L1288.59 219.763C1286.71 221.647 1287.33 224.066 1288.73 225.472C1289.35 226.091 1289.86 226.372 1290.17 226.512L1291.32 224.684C1291.15 224.572 1290.87 224.403 1290.5 224.037C1289.77 223.306 1289.29 222.378 1290.7 220.972L1297 214.672L1299.31 216.978L1300.71 215.572Z" fill="#5790E5"/>
<path d="M1006.47 300.663C1005.68 291.643 999.079 286.53 989.917 286.53C980.116 286.53 972.375 293.064 972.375 305.209C972.375 317.3 979.903 323.888 989.917 323.888C1000.57 323.888 1005.97 316.501 1006.47 310.322L996.451 310.251C995.954 313.359 993.752 315.294 990.13 315.294C985.318 315.294 982.531 311.885 982.531 305.209C982.531 298.888 985.23 295.124 990.201 295.124C994.001 295.124 996.167 297.361 996.451 300.663H1006.47ZM1011.09 323.391H1020.89V309.186C1020.91 306.079 1023 304.072 1025.43 304.072C1026.46 304.072 1027.32 304.41 1028.13 304.783L1030.97 296.757C1029.87 296.153 1028.49 295.763 1027.07 295.763C1024.15 295.763 1021.9 297.467 1020.89 301.303H1020.6V296.118H1011.09V323.391ZM1045.68 323.888C1053.25 323.888 1058.11 320.266 1059.04 314.584H1050.09C1049.52 316.129 1047.9 316.999 1045.9 316.999C1042.98 316.999 1041.28 315.081 1041.28 312.453V312.027H1059.04V309.754C1059.04 301.072 1053.71 295.763 1045.47 295.763C1037.02 295.763 1031.62 301.374 1031.62 309.825C1031.62 318.65 1036.95 323.888 1045.68 323.888ZM1041.28 306.629C1041.33 304.268 1043.29 302.652 1045.68 302.652C1048.12 302.652 1049.96 304.286 1050.02 306.629H1041.28ZM1070.74 323.817C1074.29 323.817 1076.97 322.609 1078.62 319.555H1078.83V323.391H1088V304.712C1088 299.669 1083.13 295.763 1075.64 295.763C1067.19 295.763 1063.26 300.024 1062.92 304.996H1071.94C1072.17 303.309 1073.42 302.51 1075.28 302.51C1077.02 302.51 1078.16 303.256 1078.19 304.712C1078.23 306.345 1076.45 306.86 1071.87 307.197C1066.24 307.606 1061.86 309.879 1061.86 315.862C1061.86 321.295 1065.52 323.817 1070.74 323.817ZM1073.93 317.638C1072.26 317.638 1071.09 316.821 1071.09 315.294C1071.09 313.891 1072.09 312.808 1074.36 312.453C1075.92 312.205 1077.24 311.885 1078.27 311.459V313.732C1078.27 316.217 1076.15 317.638 1073.93 317.638ZM1108.94 296.118H1104.25V289.584H1094.45V296.118H1090.97V303.22H1094.45V315.436C1094.38 321.153 1097.92 324.048 1104.68 323.675C1106.9 323.55 1108.55 323.089 1109.44 322.822L1108.02 315.933C1107.65 316.022 1106.69 316.217 1106.1 316.217C1104.82 316.217 1104.18 315.631 1104.25 314.513V303.22H1108.94V296.118ZM1125.86 323.888C1133.42 323.888 1138.29 320.266 1139.21 314.584H1130.26C1129.69 316.129 1128.08 316.999 1126.07 316.999C1123.16 316.999 1121.46 315.081 1121.46 312.453V312.027H1139.21V309.754C1139.21 301.072 1133.88 295.763 1125.65 295.763C1117.19 295.763 1111.8 301.374 1111.8 309.825C1111.8 318.65 1117.12 323.888 1125.86 323.888ZM1121.46 306.629C1121.51 304.268 1123.46 302.652 1125.86 302.652C1128.29 302.652 1130.14 304.286 1130.19 306.629H1121.46Z" fill="#0A2EB9"/>
<path d="M431.822 323.391H456.396V315.436H441.694V287.027H431.822V323.391ZM473.739 323.888C481.303 323.888 486.168 320.266 487.091 314.584H478.142C477.574 316.129 475.958 316.999 473.952 316.999C471.04 316.999 469.336 315.081 469.336 312.453V312.027H487.091V309.754C487.091 301.072 481.765 295.763 473.526 295.763C465.074 295.763 459.676 301.374 459.676 309.825C459.676 318.65 465.003 323.888 473.739 323.888ZM469.336 306.629C469.389 304.268 471.342 302.652 473.739 302.652C476.172 302.652 478.018 304.286 478.071 306.629H469.336ZM498.792 323.817C502.343 323.817 505.025 322.609 506.676 319.555H506.889V323.391H516.051V304.712C516.051 299.669 511.186 295.763 503.693 295.763C495.241 295.763 491.317 300.024 490.98 304.996H500C500.23 303.309 501.473 302.51 503.338 302.51C505.078 302.51 506.214 303.256 506.25 304.712C506.285 306.345 504.51 306.86 499.929 307.197C494.3 307.606 489.914 309.879 489.914 315.862C489.914 321.295 493.572 323.817 498.792 323.817ZM501.988 317.638C500.319 317.638 499.147 316.821 499.147 315.294C499.147 313.891 500.142 312.808 502.414 312.453C503.977 312.205 505.291 311.885 506.321 311.459V313.732C506.321 316.217 504.208 317.638 501.988 317.638ZM520.734 323.391H530.535V309.186C530.553 306.079 532.648 304.072 535.08 304.072C536.11 304.072 536.963 304.41 537.779 304.783L540.62 296.757C539.519 296.153 538.134 295.763 536.714 295.763C533.802 295.763 531.547 297.467 530.535 301.303H530.251V296.118H520.734V323.391ZM553.484 308.05C553.502 305.351 555.029 303.717 557.461 303.717C559.93 303.717 561.385 305.351 561.368 308.05V323.391H571.169V305.99C571.187 300.06 567.44 295.763 561.652 295.763C557.639 295.763 554.461 297.858 553.271 301.303H552.987V296.118H543.683V323.391H553.484V308.05Z" fill="#0A2EB9"/>
<path d="M1474.42 160.391C1476.63 160.391 1478.42 162.181 1478.42 164.391V200.391C1478.42 202.6 1476.63 204.391 1474.42 204.391C1472.21 204.391 1470.42 202.6 1470.42 200.391V168.391H1438.42C1436.21 168.391 1434.42 166.6 1434.42 164.391C1434.42 162.181 1436.21 160.391 1438.42 160.391H1474.42ZM1333 305.812L1330.17 308.64L1327.34 305.812L1330.17 302.984L1333 305.812ZM1478.42 447.233C1478.42 449.442 1476.63 451.233 1474.42 451.233H1438.42C1436.21 451.233 1434.42 449.442 1434.42 447.233C1434.42 445.024 1436.21 443.233 1438.42 443.233H1470.42L1470.42 411.233C1470.42 409.024 1472.21 407.233 1474.42 407.233C1476.63 407.233 1478.42 409.024 1478.42 411.233L1478.42 447.233ZM1477.25 167.219L1335.83 308.64L1330.17 302.984L1471.59 161.562L1477.25 167.219ZM1335.83 302.984L1477.25 444.405L1471.59 450.062L1330.17 308.64L1335.83 302.984Z" fill="#0A2EB9"/>
<path d="M855.485 446.725C859.872 451.112 865.075 450.859 869.575 446.359C874.047 441.888 874.272 436.713 870.081 432.523L865.441 427.882L851.041 442.281L855.485 446.725ZM854.332 442.478L865.638 431.173L868.422 433.957C871.797 437.332 871.375 441.185 867.887 444.672C864.372 448.187 860.491 448.637 856.919 445.066L854.332 442.478ZM865.047 456.287L866.706 457.946L877.506 447.147L875.846 445.488L865.047 456.287ZM878.462 444.559C879.109 445.206 880.149 445.234 880.768 444.616C881.387 443.997 881.359 442.956 880.712 442.31C880.065 441.663 879.024 441.635 878.406 442.253C877.787 442.872 877.815 443.913 878.462 444.559ZM889.376 459.017L887.576 457.217L875.989 462.842L875.876 462.729L881.501 451.142L879.701 449.342L872.895 464.135L874.583 465.823L889.376 459.017ZM884.683 476.372C886.876 478.566 889.576 479.072 891.713 477.947L890.56 475.894C889.014 476.597 887.474 476.183 886.173 474.882C884.226 472.934 884.141 470.333 886.377 467.942L894.216 475.782L894.919 475.079C898.941 471.057 897.929 467.289 895.679 465.039C892.754 462.114 888.507 462.479 885.189 465.798C881.87 469.117 881.561 473.251 884.683 476.372ZM887.811 466.508C889.604 464.94 892.29 464.631 894.188 466.529C895.988 468.329 895.791 470.832 893.963 472.66L887.811 466.508ZM891.903 483.143L893.563 484.803L900.397 477.968C901.852 476.513 904.081 476.59 905.656 478.165C906.07 478.58 906.303 478.967 906.415 479.318L908.384 478.475C908.285 477.898 907.997 477.301 907.399 476.703C906.092 475.395 904.242 475.008 902.787 475.69L902.675 475.578L904.306 473.947L902.703 472.344L891.903 483.143ZM899.426 498.766C901.929 501.269 905.332 502.309 908.116 499.525L919 488.641L917.397 487.038L915.682 488.754L915.513 488.585C915.71 487.657 916.329 485.688 914.219 483.579C911.491 480.851 907.442 481.132 904.123 484.451C900.748 487.826 900.804 491.707 903.42 494.322C905.529 496.432 907.442 495.869 908.398 495.644L908.538 495.785L906.626 497.697C904.854 499.525 902.576 498.935 900.917 497.275C899.061 495.419 899.37 493.591 899.483 492.635L897.233 492.241C896.755 494.069 897.12 496.46 899.426 498.766ZM905.135 493.057C903.054 490.976 903.56 488.332 905.81 486.082C908.004 483.889 910.816 483.157 912.926 485.267C914.951 487.291 914.388 489.991 912.054 492.326C909.663 494.716 907.132 495.054 905.135 493.057ZM915.541 507.231C917.735 509.425 920.435 509.931 922.572 508.806L921.419 506.753C919.872 507.456 918.332 507.041 917.032 505.741C915.084 503.793 915 501.192 917.236 498.801L925.075 506.64L925.778 505.937C929.8 501.916 928.787 498.147 926.537 495.897C923.613 492.972 919.366 493.338 916.047 496.657C912.729 499.975 912.419 504.109 915.541 507.231ZM918.67 497.367C920.463 495.799 923.149 495.489 925.047 497.388C926.847 499.188 926.65 501.691 924.822 503.519L918.67 497.367Z" fill="#5790E5"/>
<path d="M859.857 160.585L858.114 162.328L872.513 176.728L874.257 174.984L859.857 160.585ZM886.555 162.685L872.156 148.286L870.497 149.945L875.812 155.261L875.672 155.401C874.744 155.204 872.803 154.558 870.694 156.667C867.966 159.395 868.247 163.445 871.65 166.848C875.081 170.279 879.131 170.56 881.831 167.86C883.912 165.779 883.321 163.782 883.096 162.826L883.293 162.629L884.952 164.288L886.555 162.685ZM879.525 158.917C881.971 161.363 882.562 164.148 880.565 166.144C878.484 168.226 875.587 167.466 873.281 165.16C871.003 162.882 870.272 160.07 872.381 157.96C874.406 155.936 877.106 156.498 879.525 158.917ZM894.346 155.345C896.539 153.151 897.046 150.451 895.921 148.314L893.868 149.467C894.571 151.014 894.156 152.554 892.855 153.854C890.908 155.802 888.306 155.886 885.916 153.651L893.755 145.811L893.052 145.108C889.03 141.086 885.262 142.099 883.012 144.349C880.087 147.274 880.453 151.52 883.771 154.839C887.09 158.157 891.224 158.467 894.346 155.345ZM884.481 152.216C882.913 150.423 882.604 147.738 884.502 145.839C886.302 144.039 888.805 144.236 890.633 146.064L884.481 152.216ZM904.548 145.199C906.432 143.315 906.404 141.318 906.038 140.278L906.122 140.193L907.585 141.656L909.244 139.997L902.129 132.881C898.698 129.45 895.689 131.672 894.311 133.05C892.679 134.681 891.386 137.1 892.511 139.912L894.648 138.9C894.226 137.747 894.247 136.038 895.829 134.456C897.369 132.916 898.93 133.001 900.329 134.4C901.131 135.201 900.273 135.975 898.557 138.197C896.814 140.461 895.07 143.09 897.545 145.565C899.654 147.674 902.495 147.252 904.548 145.199ZM903.31 143.456C901.988 144.778 900.442 145.143 899.288 143.99C898.023 142.725 898.782 141.178 899.907 139.715C900.526 138.928 902.213 136.847 902.157 136.228L903.676 137.747C905.026 139.097 905.279 141.487 903.31 143.456ZM906.17 121.472L903.864 123.778L901.276 121.191L899.617 122.85L902.204 125.437L900.573 127.068L901.98 128.475L903.611 126.844L910.36 133.593C912.245 135.477 914.663 134.859 916.069 133.453C916.688 132.834 916.969 132.328 917.11 132.018L915.282 130.865C915.169 131.034 915.001 131.315 914.635 131.681C913.904 132.412 912.976 132.89 911.57 131.484L905.27 125.184L907.576 122.878L906.17 121.472ZM924.218 125.472C926.412 123.279 926.918 120.579 925.793 118.442L923.74 119.595C924.443 121.141 924.028 122.681 922.728 123.982C920.78 125.929 918.179 126.014 915.788 123.778L923.628 115.939L922.925 115.236C918.903 111.214 915.134 112.226 912.884 114.476C909.96 117.401 910.325 121.648 913.644 124.966C916.962 128.285 921.097 128.594 924.218 125.472ZM914.354 122.344C912.786 120.551 912.477 117.865 914.375 115.967C916.175 114.167 918.678 114.364 920.506 116.192L914.354 122.344Z" fill="#5790E5"/>
<path d="M1185.73 498.494C1182.24 496.076 1178.13 496.694 1175.24 499.591C1171.55 503.275 1171.72 508.787 1176.28 513.344C1180.83 517.9 1186.35 518.068 1190.03 514.384C1192.93 511.487 1193.54 507.381 1191.13 503.894L1189.38 505.638C1190.96 508.056 1190.31 510.841 1188.4 512.753C1185.78 515.368 1181.7 515.397 1177.96 511.656C1174.22 507.916 1174.25 503.838 1176.87 501.222C1178.78 499.31 1181.56 498.663 1183.98 500.238L1185.73 498.494ZM1202.83 501.639C1205.76 498.714 1205.5 494.524 1202.16 491.177C1198.78 487.802 1194.59 487.549 1191.67 490.474C1188.74 493.399 1188.99 497.589 1192.37 500.964C1195.72 504.311 1199.91 504.564 1202.83 501.639ZM1201.34 500.148C1199.12 502.37 1196.19 501.47 1194.03 499.305C1191.86 497.139 1190.93 494.186 1193.16 491.964C1195.38 489.743 1198.33 490.671 1200.5 492.836C1202.66 495.002 1203.56 497.927 1201.34 500.148ZM1205.2 485.832C1203.31 483.947 1203.41 481.712 1205 480.123C1206.54 478.583 1208.48 478.653 1210.17 480.348L1216.92 487.097L1218.58 485.438L1211.72 478.576C1208.96 475.82 1206.17 475.967 1203.99 478.154C1202.35 479.785 1202.07 481.529 1202.66 483.132L1202.52 483.272L1200.84 481.585L1199.23 483.188L1210.03 493.987L1211.69 492.328L1205.2 485.832ZM1219.26 463.162L1217.46 464.962L1223.08 476.549L1222.97 476.662L1211.38 471.037L1209.58 472.837L1224.38 479.643L1226.06 477.955L1219.26 463.162ZM1236.61 467.855C1238.81 465.662 1239.31 462.962 1238.19 460.825L1236.14 461.978C1236.84 463.524 1236.42 465.064 1235.12 466.365C1233.18 468.312 1230.57 468.397 1228.18 466.161L1236.02 458.322L1235.32 457.618C1231.3 453.597 1227.53 454.609 1225.28 456.859C1222.36 459.784 1222.72 464.031 1226.04 467.349C1229.36 470.668 1233.49 470.977 1236.61 467.855ZM1226.75 464.727C1225.18 462.934 1224.87 460.248 1226.77 458.35C1228.57 456.55 1231.07 456.747 1232.9 458.575L1226.75 464.727ZM1243.39 460.635L1245.04 458.975L1238.21 452.141C1236.75 450.686 1236.83 448.457 1238.41 446.882C1238.82 446.467 1239.21 446.235 1239.56 446.123L1238.72 444.154C1238.14 444.253 1237.54 444.541 1236.94 445.139C1235.64 446.446 1235.25 448.295 1235.93 449.751L1235.82 449.863L1234.19 448.232L1232.59 449.835L1243.39 460.635ZM1259.01 453.112C1261.51 450.609 1262.55 447.206 1259.77 444.421L1248.88 433.538L1247.28 435.141L1249 436.856L1248.83 437.025C1247.9 436.828 1245.93 436.209 1243.82 438.319C1241.09 441.047 1241.37 445.096 1244.69 448.415C1248.07 451.79 1251.95 451.734 1254.56 449.118C1256.67 447.009 1256.11 445.096 1255.89 444.14L1256.03 444L1257.94 445.912C1259.77 447.684 1259.18 449.962 1257.52 451.621C1255.66 453.477 1253.83 453.168 1252.88 453.055L1252.48 455.305C1254.31 455.783 1256.7 455.418 1259.01 453.112ZM1253.3 447.403C1251.22 449.484 1248.57 448.977 1246.32 446.728C1244.13 444.534 1243.4 441.722 1245.51 439.612C1247.53 437.587 1250.23 438.15 1252.57 440.484C1254.96 442.875 1255.3 445.406 1253.3 447.403ZM1267.47 436.997C1269.67 434.803 1270.17 432.103 1269.05 429.966L1266.99 431.119C1267.7 432.666 1267.28 434.206 1265.98 435.506C1264.03 437.454 1261.43 437.538 1259.04 435.302L1266.88 427.463L1266.18 426.76C1262.16 422.738 1258.39 423.751 1256.14 426.001C1253.21 428.925 1253.58 433.172 1256.9 436.491C1260.22 439.809 1264.35 440.119 1267.47 436.997ZM1257.61 433.868C1256.04 432.075 1255.73 429.389 1257.63 427.491C1259.43 425.691 1261.93 425.888 1263.76 427.716L1257.61 433.868Z" fill="#5790E5"/>
<line x1="503" y1="1.39063" x2="503" y2="201.391" stroke="#5790E5" stroke-width="2" stroke-dasharray="12 12"/>
<line x1="503" y1="409.391" x2="503" y2="609.391" stroke="#5790E5" stroke-width="2" stroke-dasharray="12 12"/>
<line x1="1057" y1="1.39063" x2="1057" y2="201.391" stroke="#5790E5" stroke-width="2" stroke-dasharray="12 12"/>
<line x1="1057" y1="409.391" x2="1057" y2="609.391" stroke="#5790E5" stroke-width="2" stroke-dasharray="12 12"/>
</g>
<defs>
<clipPath id="clip0">
<rect width="1536" height="610" fill="white"/>
</clipPath>
</defs>
</svg>
