<svg width="605" height="442" viewBox="0 0 605 442" fill="none" xmlns="http://www.w3.org/2000/svg">
<rect width="605" height="442" fill="white"/>
<path d="M15.2583 69L16 68.2583L11.2417 63.5L16 58.7417L15.2583 58L10.5 62.7583L5.74166 58L5 58.7417L9.75834 63.5L5 68.2583L5.74166 69L10.5 64.2417L15.2583 69Z" fill="#232323"/>
<path fill-rule="evenodd" clip-rule="evenodd" d="M176.992 3.236L177.698 3.942L177.699 3.939C177.856 4.176 177.933 4.373 177.933 4.529C177.933 4.685 177.855 4.882 177.698 5.117L176.991 5.823L175.755 4.587L175.108 3.94L175.814 3.235C176.05 3.08 176.246 3 176.402 3C176.56 3 176.757 3.078 176.992 3.236ZM176 17.757H163V4.757H172.285L173.025 3.757H162V18.757H177V7.832L176 8.572V17.757ZM165 15.757H167.063L176.286 6.533L174.313 4.649L165 13.872V15.757Z" fill="#232323"/>
<path fill-rule="evenodd" clip-rule="evenodd" d="M222.56 2L225.945 5.387L225.238 6.095L223 3.855V14.707H222V3.973L219.761 6.211L219.054 5.504L222.56 2ZM216 18.707H229V7.707H225V8.707H228V17.707H217V8.707H220V7.707H216V18.707Z" fill="#232323"/>
<path fill-rule="evenodd" clip-rule="evenodd" d="M275.243 4L271 8.242L271.707 8.95L274.743 5.914V15.571L271.707 12.535L271 13.242L275.243 17.485L279.486 13.242L278.779 12.535L275.743 15.571V5.914L278.779 8.95L279.486 8.242L275.243 4ZM275.743 15.571L275.243 16.071L274.743 15.571V16.278H275.743V15.571ZM275.743 5.914L275.243 5.414L274.743 5.914V5.278H275.743V5.914Z" fill="#232323"/>
<path fill-rule="evenodd" clip-rule="evenodd" d="M16.021 108.588L18.141 110.708L18.144 110.707C18.926 111.489 18.926 112.757 18.144 113.537L15.316 116.365C14.926 116.756 14.414 116.951 13.901 116.951C13.389 116.951 12.877 116.755 12.487 116.365L13.194 115.657C13.383 115.846 13.634 115.95 13.9 115.95C14.167 115.95 14.417 115.847 14.607 115.657L17.432 112.828C17.822 112.438 17.822 111.804 17.432 111.414L15.312 109.294C15.123 109.105 14.872 109.001 14.605 109.001C14.337 109.001 14.087 109.105 13.897 109.295L11.07 112.123C10.881 112.312 10.777 112.562 10.777 112.83C10.777 113.098 10.88 113.349 11.07 113.536L10.362 114.243C9.582 113.462 9.582 112.195 10.362 111.415L13.19 108.586C13.58 108.195 14.092 108 14.605 108C15.117 108 15.627 108.195 16.021 108.588ZM9.656 119.193L10.363 118.485L10.362 118.484C11.144 119.266 11.144 120.534 10.362 121.314L7.534 124.142C7.144 124.533 6.632 124.728 6.12 124.728C5.608 124.728 5.097 124.533 4.705 124.141L2.585 122.021C1.805 121.24 1.805 119.973 2.585 119.193L5.414 116.365C5.805 115.974 6.317 115.779 6.828 115.779C7.339 115.779 7.852 115.975 8.242 116.365L7.534 117.073C7.345 116.884 7.094 116.78 6.827 116.78C6.56 116.78 6.31 116.883 6.12 117.073L3.292 119.901C3.103 120.09 2.999 120.341 2.999 120.608C2.999 120.875 3.102 121.125 3.292 121.315L5.414 123.435C5.603 123.624 5.854 123.728 6.121 123.728C6.387 123.728 6.639 123.625 6.827 123.435L9.655 120.607C9.844 120.418 9.948 120.167 9.948 119.9C9.948 119.633 9.844 119.383 9.656 119.193Z" fill="#232323"/>
<path fill-rule="evenodd" clip-rule="evenodd" d="M67.606 112.042C67.475 111.719 67.333 111.452 67.183 111.242C67.033 111.032 66.853 110.908 66.643 110.87C66.457 110.846 66.22 110.826 65.933 110.806C65.646 110.789 65.396 110.779 65.186 110.779H64.722L62.352 121.01C62.328 121.116 62.306 121.217 62.292 121.313C62.278 121.409 62.268 121.478 62.268 121.521C62.268 121.67 62.298 121.802 62.358 121.916C62.416 122.031 62.526 122.122 62.686 122.189C62.836 122.251 63.051 122.313 63.336 122.371C63.621 122.429 63.855 122.468 64.041 122.486L63.883 123.164H56.546L56.705 122.488C56.877 122.475 57.131 122.453 57.465 122.415C57.799 122.377 58.037 122.335 58.179 122.285C58.425 122.185 58.612 122.053 58.735 121.885C58.859 121.718 58.945 121.52 58.995 121.29L61.425 110.78H61.065C60.829 110.78 60.592 110.787 60.355 110.802C60.117 110.817 59.847 110.84 59.543 110.87C59.32 110.902 59.074 111.034 58.798 111.27C58.522 111.506 58.255 111.762 57.995 112.042C57.685 112.386 57.431 112.702 57.229 112.982C57.028 113.264 56.856 113.526 56.714 113.766H56L56.872 110H69.627L68.757 113.766H68.042C68.018 113.556 67.968 113.293 67.898 112.978C67.826 112.662 67.729 112.35 67.606 112.042ZM69.782 118.543L70.488 119.25L69.074 120.664L70.487 122.078L69.78 122.784L68.366 121.37L66.952 122.783L66.246 122.076L67.66 120.662L66.247 119.248L66.954 118.542L68.368 119.956L69.782 118.543Z" fill="#232323"/>
<path fill-rule="evenodd" clip-rule="evenodd" d="M123.945 108.855C124.316 108.78 124.598 108.738 124.791 108.73H124.789V108H118.815V108.732C119.034 108.746 119.353 108.801 119.768 108.898C120.185 108.992 120.513 109.128 120.753 109.298C120.967 109.45 121.129 109.766 121.237 110.25C121.348 110.733 121.402 111.358 121.402 112.118V118.108C121.402 118.519 121.343 118.928 121.226 119.332C121.111 119.737 120.912 120.125 120.629 120.495C120.335 120.887 119.932 121.202 119.419 121.442C118.909 121.682 118.275 121.802 117.519 121.802C116.717 121.802 116.085 121.682 115.623 121.442C115.163 121.202 114.8 120.893 114.533 120.516C114.278 120.145 114.108 119.746 114.023 119.318C113.936 118.888 113.893 118.478 113.893 118.088V110.018C113.893 109.79 113.933 109.582 114.013 109.39C114.091 109.198 114.248 109.06 114.481 108.978C114.619 108.93 114.832 108.878 115.125 108.824C115.417 108.77 115.659 108.737 115.853 108.73V108H109.763V108.73C109.935 108.745 110.155 108.782 110.423 108.84C110.691 108.898 110.911 108.975 111.081 109.07C111.323 109.208 111.481 109.357 111.561 109.52C111.639 109.68 111.679 109.88 111.679 110.12V118.763C111.679 119.313 111.797 119.84 112.031 120.346C112.264 120.85 112.611 121.3 113.071 121.69C113.538 122.082 114.115 122.392 114.801 122.622C115.489 122.852 116.271 122.967 117.149 122.967C117.7 122.967 118.275 122.885 118.875 122.725C119.475 122.563 120.049 122.297 120.589 121.927C121.139 121.542 121.583 121.05 121.919 120.452C122.255 119.856 122.422 119.152 122.422 118.342V111.986C122.422 111.271 122.466 110.667 122.556 110.173C122.645 109.679 122.809 109.352 123.039 109.195C123.273 109.045 123.574 108.93 123.945 108.855ZM109 124V125H124.955V124H109Z" fill="#232323"/>
<path fill-rule="evenodd" clip-rule="evenodd" d="M172 110H176V111H175V123.906C175 124.51 174.51 125 173.906 125H165.094C164.49 125 164 124.51 164 123.906V111H163V110H167V108.358C167 108.16 167.16 108 167.358 108H171.642C171.84 108 172 108.16 172 108.358V110ZM171 109H168V110H171V109ZM174 123.906C174 123.958 173.958 124 173.906 124H165.094C165.042 124 165 123.958 165 123.906V111H174V123.906ZM168 112H167V123H168V112ZM169 112H170V123H169V112ZM172 112H171V123H172V112Z" fill="#232323"/>
<path d="M227 67.1L222.384 61.56L217.768 67.1L217 66.46L222.384 60L227.768 66.46" fill="#232323"/>
<path d="M60.64 68.768L60 68L65.54 63.384L60 58.768L60.64 58L67.1 63.384L60.64 68.768Z" fill="#232323"/>
<path d="M119.46 68.768L113 63.384L119.46 58L120.1 58.768L114.56 63.384L120.1 68" fill="#232323"/>
<path d="M169.384 67.1L164 60.64L164.768 60L169.384 65.54L174 60L174.768 60.64L169.384 67.1Z" fill="#232323"/>
<path fill-rule="evenodd" clip-rule="evenodd" d="M278.21 57.895L279 64L281 65V66H276V70.5C276 70.776 275.776 71 275.5 71C275.224 71 275 70.776 275 70.5V66H270V65L272 64L272.79 57.895L271 57V56H280V57L278.21 57.895ZM277.216 58H273.784L273.117 64H277.883L277.216 58Z" fill="#232323"/>
<path fill-rule="evenodd" clip-rule="evenodd" d="M217 111H228C229.105 111 230 111.895 230 113V119C230 120.104 229.105 121 228 121H223L221 123L219 121H217C215.895 121 215 120.104 215 119V113C215 111.895 215.895 111 217 111ZM229 113C229 112.45 228.55 112 228 112H217C216.45 112 216 112.45 216 113V119C216 119.55 216.45 120 217 120H219.414L221 121.586L222.586 120H228C228.55 120 229 119.55 229 119V113Z" fill="#232323"/>
<path fill-rule="evenodd" clip-rule="evenodd" d="M273.19 117.202L276.898 109L277.808 109.412L274.1 117.612L273.19 117.202ZM267 113.306L271.243 117.549L271.95 116.842L268.414 113.305L271.95 109.771L271.243 109.064L267 113.306ZM279.051 116.842L279.758 117.549L284 113.306L279.758 109.064L279.05 109.772L282.587 113.306L279.051 116.842ZM270.01 123.302C270.243 123.117 270.36 122.862 270.36 122.542L270.364 122.545C270.364 122.312 270.299 122.118 270.174 121.958C270.049 121.798 269.821 121.638 269.489 121.478C269.236 121.358 269.076 121.274 269.009 121.228C268.941 121.181 268.891 121.133 268.861 121.083C268.831 121.033 268.815 120.975 268.815 120.909C268.815 120.801 268.853 120.712 268.93 120.646C269.007 120.58 269.117 120.546 269.26 120.546C269.38 120.546 269.503 120.562 269.627 120.592C269.752 120.623 269.91 120.677 270.1 120.755L270.343 120.167C270.159 120.086 269.983 120.025 269.815 119.981C269.645 119.937 269.47 119.915 269.285 119.915C268.905 119.915 268.61 120.005 268.395 120.185C268.182 120.366 268.075 120.614 268.075 120.928C268.075 121.098 268.108 121.243 268.172 121.368C268.237 121.494 268.326 121.602 268.434 121.698C268.542 121.794 268.706 121.891 268.924 121.994C269.157 122.104 269.311 122.184 269.387 122.234C269.462 122.285 269.517 122.336 269.557 122.391C269.597 122.446 269.617 122.508 269.617 122.578C269.617 122.704 269.574 122.799 269.484 122.861C269.395 122.927 269.268 122.957 269.101 122.957C268.963 122.957 268.81 122.936 268.643 122.891C268.477 122.848 268.273 122.771 268.033 122.663V123.366C268.325 123.51 268.663 123.582 269.043 123.582C269.457 123.582 269.78 123.489 270.01 123.302ZM273.93 123.532H273.176V121.992H271.763V123.532H271.006V119.962H271.763V121.362H273.177V119.962H273.931V123.532H273.93ZM277.632 123.104C277.925 122.788 278.07 122.332 278.07 121.742H278.071C278.071 121.149 277.925 120.695 277.635 120.379C277.345 120.063 276.925 119.906 276.377 119.906C275.829 119.906 275.407 120.063 275.114 120.376C274.82 120.689 274.672 121.142 274.672 121.736C274.672 122.331 274.819 122.787 275.112 123.103C275.405 123.421 275.825 123.581 276.372 123.581C276.919 123.581 277.339 123.422 277.632 123.104ZM275.466 121.742C275.466 122.142 275.542 122.442 275.693 122.642C275.844 122.842 276.07 122.946 276.373 122.946C276.976 122.946 277.277 122.546 277.277 121.743C277.277 120.939 276.977 120.537 276.377 120.537C276.075 120.537 275.849 120.639 275.697 120.842C275.543 121.042 275.467 121.344 275.467 121.742H275.466ZM281.428 123.532H282.288L282.286 123.531L283.196 119.961H282.452L281.998 121.911C281.968 122.027 281.933 122.181 281.898 122.371C281.863 122.561 281.836 122.72 281.82 122.847C281.802 122.714 281.777 122.557 281.742 122.372C281.709 122.189 281.679 122.052 281.657 121.962L281.137 119.962H280.421L279.901 121.962C279.869 122.069 279.836 122.221 279.801 122.415C279.767 122.61 279.745 122.753 279.735 122.847C279.699 122.582 279.641 122.27 279.561 121.912L279.105 119.962H278.36L279.27 123.532H280.13L280.615 121.663C280.635 121.58 280.666 121.441 280.705 121.247C280.744 121.053 280.768 120.911 280.778 120.823C280.784 120.893 280.809 121.034 280.851 121.243C280.893 121.452 280.925 121.591 280.943 121.657L281.428 123.532Z" fill="#232323"/>
<path fill-rule="evenodd" clip-rule="evenodd" d="M13.333 164L7 168H3C2.448 168 2 168.448 2 169V171C2 171.552 2.448 172 3 172H4L5 175H6V172H7L13.333 176H15V164H13.333ZM17.767 164.646L15.647 166.768L16.355 167.475L18.475 165.353L17.767 164.646ZM16 169.5H19V170.5H16V169.5ZM15.647 173.354L16.354 172.646L18.474 174.768L17.768 175.475L15.647 173.354ZM13.623 175H14V165H13.623L8 168.55V171.45L13.623 175Z" fill="#232323"/>
<path fill-rule="evenodd" clip-rule="evenodd" d="M113.055 171.767L113.762 171.06L116 173.298V162H117V173.18L119.239 170.941L119.946 171.648L116.441 175.153L113.055 171.767ZM119 168V167H123V178H110V167H114V168H111V177H122V168H119Z" fill="#232323"/>
<path d="M170.144 167.854H165.914L169.06 164.708L168.353 164L164 168.354L168.354 172.708L169.061 172.001L165.914 168.854H170.144C171.947 168.854 173.207 170.294 173.207 172.354V175.854H174.207V172.354C174.207 169.747 172.497 167.854 170.144 167.854V167.854Z" fill="#232323"/>
<path fill-rule="evenodd" clip-rule="evenodd" d="M228 164H229C230.105 164 231 164.895 231 166V171C231 172.105 230.105 173 229 173H228V178H217V173H216C214.895 173 214 172.105 214 171V166C214 164.895 214.895 164 216 164H217V162H228V164ZM227 163H218V164H227V163ZM227 177H218V170H227V177ZM229 172C229.55 172 230 171.55 230 171V166C230 165.45 229.55 165 229 165H216C215.45 165 215 165.45 215 166V171C215 171.55 215.45 172 216 172H217V169H228V172H229Z" fill="#232323"/>
<path d="M276 162H275V169H268V170H275V177H276V170H283V169H276V162Z" fill="#232323"/>
<path fill-rule="evenodd" clip-rule="evenodd" d="M5 217H16C17.105 217 18 217.895 18 219V225C18 226.104 17.105 227 16 227H11L9 229L7 227H5C3.895 227 3 226.104 3 225V219C3 217.895 3.895 217 5 217ZM16 218C16.55 218 17 218.45 17 219V225C17 225.55 16.55 226 16 226H10.586L9 227.586L7.414 226H5C4.45 226 4 225.55 4 225V219C4 218.45 4.45 218 5 218H16ZM7.5 223C8.05228 223 8.5 222.552 8.5 222C8.5 221.448 8.05228 221 7.5 221C6.94772 221 6.5 221.448 6.5 222C6.5 222.552 6.94772 223 7.5 223ZM10.5 223C11.0523 223 11.5 222.552 11.5 222C11.5 221.448 11.0523 221 10.5 221C9.94772 221 9.5 221.448 9.5 222C9.5 222.552 9.94772 223 10.5 223ZM14.5 222C14.5 222.552 14.0523 223 13.5 223C12.9477 223 12.5 222.552 12.5 222C12.5 221.448 12.9477 221 13.5 221C14.0523 221 14.5 221.448 14.5 222Z" fill="#232323"/>
<path fill-rule="evenodd" clip-rule="evenodd" d="M56.895 218.855H57.355L57.356 218.853V216H56.972L56.132 216.66L56.362 216.95L56.4831 216.852C56.66 216.709 56.7665 216.623 56.802 216.592C56.845 216.554 56.882 216.519 56.912 216.489C56.901 216.617 56.895 216.793 56.895 217.013V218.855ZM70.332 216.543H59.332V217.543H70.332V216.543ZM70.332 221.543H59.332V222.543H70.332V221.543ZM59.332 226.543H70.332V227.543H59.332V226.543ZM57.942 223.655H56.009V223.308L56.745 222.568C56.962 222.345 57.107 222.188 57.178 222.094C57.249 222 57.3 221.914 57.333 221.832C57.366 221.75 57.383 221.662 57.383 221.568C57.383 221.438 57.343 221.338 57.266 221.263C57.189 221.188 57.081 221.151 56.944 221.151C56.836 221.151 56.73 221.171 56.628 221.211C56.526 221.251 56.408 221.325 56.274 221.431L56.024 221.128C56.184 220.994 56.338 220.898 56.488 220.843C56.638 220.788 56.798 220.759 56.968 220.759C57.233 220.759 57.446 220.829 57.606 220.967C57.766 221.105 57.846 221.292 57.846 221.527C57.846 221.657 57.823 221.777 57.776 221.894C57.729 222.011 57.659 222.13 57.563 222.254C57.467 222.378 57.308 222.542 57.085 222.752L56.589 223.232V223.252H57.942V223.655ZM57.678 226.708C57.783 226.588 57.836 226.436 57.836 226.256L57.834 226.258C57.834 226.038 57.757 225.872 57.594 225.748C57.431 225.624 57.208 225.562 56.921 225.562C56.575 225.562 56.271 225.659 56.009 225.852L56.234 226.172C56.369 226.082 56.489 226.022 56.589 225.992C56.689 225.962 56.792 225.946 56.902 225.946C57.056 225.946 57.172 225.98 57.252 226.046C57.332 226.112 57.372 226.207 57.372 226.329C57.372 226.645 57.144 226.802 56.688 226.802H56.436V227.174H56.684C56.944 227.174 57.132 227.21 57.254 227.281C57.376 227.352 57.436 227.465 57.436 227.618C57.436 227.788 57.381 227.915 57.272 227.998C57.163 228.081 56.997 228.121 56.775 228.121C56.651 228.121 56.52 228.107 56.385 228.073C56.25 228.039 56.12 227.993 56 227.933V228.341C56.218 228.443 56.485 228.495 56.8 228.495C57.16 228.495 57.437 228.421 57.63 228.271C57.823 228.121 57.92 227.909 57.92 227.635C57.92 227.447 57.864 227.295 57.748 227.181C57.632 227.067 57.462 226.995 57.232 226.967V226.951C57.424 226.908 57.573 226.828 57.678 226.708Z" fill="#232323"/>
<path fill-rule="evenodd" clip-rule="evenodd" d="M112 222H111V214H110V222H109C108.448 222 108 222.448 108 223V224C108 224.552 108.448 225 109 225H110V231H111V225H112C112.552 225 113 224.552 113 224V223C113 222.448 112.552 222 112 222ZM124 225H123V214H122V225H121C120.448 225 120 225.448 120 226V227C120 227.552 120.448 228 121 228H122V231H123V228H124C124.552 228 125 227.552 125 227V226C125 225.448 124.552 225 124 225ZM117 217H118C118.552 217 119 217.448 119 218V219C119 219.552 118.552 220 118 220H117V231H116V220H115C114.448 220 114 219.552 114 219V218C114 217.448 114.448 217 115 217H116V214H117V217Z" fill="#232323"/>
<path fill-rule="evenodd" clip-rule="evenodd" d="M169.999 217C167.594 217 166.499 218.555 166.499 220C166.499 221.28 166.335 222.942 166.047 224.338L164.579 225.805C165.129 224.55 165.499 221.845 165.499 220C165.499 218.29 166.647 216.487 168.999 216.087V215C168.999 214.448 169.447 214 169.999 214C170.551 214 170.999 214.448 170.999 215V216.087C171.926 216.248 172.666 216.639 173.231 217.155L172.527 217.86C171.953 217.348 171.125 217 169.999 217ZM177.146 214.646C177.341 214.451 177.658 214.451 177.853 214.646C178.048 214.843 178.048 215.158 177.853 215.353L174.323 218.883C174.437 219.246 174.499 219.622 174.499 220C174.499 222 174.843 224.75 175.499 226C176.155 227.25 177.499 228 177.499 228V229H164.206L162.853 230.354C162.755 230.45 162.627 230.5 162.499 230.5C162.371 230.5 162.243 230.451 162.146 230.353C161.951 230.158 161.951 229.841 162.146 229.646L177.146 214.646ZM171.407 230C171.201 230.58 170.651 231 169.999 231C169.347 231 168.797 230.58 168.591 230H171.407ZM173.499 220C173.499 222.09 173.849 225.006 174.614 226.465C174.944 227.095 175.401 227.61 175.829 228H165.206L173.466 219.74C173.47 219.776 173.476 219.812 173.482 219.847L173.482 219.847L173.482 219.847C173.491 219.898 173.499 219.949 173.499 220Z" fill="#232323"/>
<path fill-rule="evenodd" clip-rule="evenodd" d="M228 226C227.344 224.75 227 222 227 220C227 218.24 225.79 216.485 223.5 216.087V215C223.5 214.448 223.052 214 222.5 214C221.948 214 221.5 214.448 221.5 215V216.087C219.148 216.487 218 218.29 218 220C218 221.938 217.594 224.844 217 226C216.406 227.156 215 228 215 228V229H230V228C230 228 228.656 227.25 228 226ZM216.652 228C217.097 227.598 217.572 227.072 217.889 226.457C218.574 225.12 219 222.065 219 220C219 218.555 220.095 217 222.5 217C224.905 217 226 218.555 226 220C226 222.09 226.35 225.006 227.115 226.465C227.445 227.095 227.902 227.61 228.33 228H216.652ZM223.908 230C223.702 230.58 223.152 231 222.5 231C221.848 231 221.298 230.58 221.092 230H223.908Z" fill="#232323"/>
<path fill-rule="evenodd" clip-rule="evenodd" d="M274 216.5C274 217.328 274.672 218 275.5 218C276.328 218 277 217.328 277 216.5C277 215.672 276.328 215 275.5 215C274.672 215 274 215.672 274 216.5ZM274 222.5C274 223.328 274.672 224 275.5 224C276.328 224 277 223.328 277 222.5C277 221.672 276.328 221 275.5 221C274.672 221 274 221.672 274 222.5ZM275.5 230C274.672 230 274 229.328 274 228.5C274 227.672 274.672 227 275.5 227C276.328 227 277 227.672 277 228.5C277 229.328 276.328 230 275.5 230Z" fill="#232323"/>
<path d="M4 275H17V276H4V275Z" fill="#232323"/>
<path fill-rule="evenodd" clip-rule="evenodd" d="M55 270V281H72V270H55ZM70.26 271L64.806 276H62.194L56.74 271H70.26ZM56 271.678V280H71V271.678L65.196 277H61.806L56 271.678Z" fill="#232323"/>
<path fill-rule="evenodd" clip-rule="evenodd" d="M118 267H115V276H118V267ZM120 270.03V267.76C122.946 269.095 125 272.055 125 275.5C125 280.194 121.194 284 116.5 284C111.806 284 108 280.194 108 275.5C108 272.055 110.053 269.095 113 267.76V270.03C111.2 271.188 110 273.205 110 275.5C110 279.084 112.916 282 116.5 282C120.084 282 123 279.084 123 275.5C123 273.204 121.8 271.188 120 270.03Z" fill="#232323"/>
<path fill-rule="evenodd" clip-rule="evenodd" d="M175 275V272C175 269.243 172.532 267 169.5 267C166.467 267 164 269.243 164 272V275H163V284H176V275H175ZM165 272C165 269.794 167.02 268 169.5 268C171.98 268 174 269.794 174 272V275H165V272ZM164 276V283H175V276H164ZM169.5 277C168.672 277 168 277.672 168 278.5C168 279.152 168.42 279.702 169 279.908V281H170V279.908C170.58 279.701 171 279.152 171 278.5C171 277.672 170.328 277 169.5 277ZM169 278.5C169 278.776 169.224 279 169.5 279C169.776 279 170 278.776 170 278.5C170 278.224 169.776 278 169.5 278C169.224 278 169 278.224 169 278.5Z" fill="#232323"/>
<path fill-rule="evenodd" clip-rule="evenodd" d="M427 16V3H440V5L441 4V2H426V17H428L429 16H427ZM429.5 6.978C430.327 6.978 431 6.305 431 5.478C431 4.651 430.327 3.978 429.5 3.978C428.673 3.978 428 4.65 428 5.478C428 6.306 428.673 6.978 429.5 6.978ZM429.5 4.694C429.932 4.694 430.284 5.046 430.284 5.477C430.284 5.909 429.932 6.261 429.5 6.261C429.068 6.261 428.716 5.911 428.716 5.479C428.716 5.047 429.068 4.695 429.5 4.695V4.694ZM429.553 14H431L430 15H428.042L431 8.042L433 10.042L435 6.042L436.222 8.778L435.465 9.535L434.948 8.38L433.278 11.722L433.272 11.728L431.34 9.796L429.553 14ZM436.332 15.6792C436.378 15.6529 436.423 15.6267 436.462 15.588V15.587L437.127 14.921C437.414 15.641 437.266 16.493 436.684 17.075L435.346 18.413C434.956 18.804 434.444 18.999 433.932 18.999C433.42 18.999 432.91 18.804 432.52 18.412L431.7 17.594C430.92 16.813 430.92 15.546 431.7 14.766L433.039 13.428C433.429 13.037 433.941 12.842 434.453 12.842C434.705 12.842 434.956 12.891 435.193 12.985L434.527 13.651C434.488 13.6891 434.462 13.7346 434.436 13.7805L434.436 13.7805C434.421 13.8056 434.407 13.8309 434.39 13.855C434.148 13.871 433.919 13.963 433.746 14.135L432.408 15.475C432.219 15.664 432.115 15.915 432.115 16.182C432.115 16.449 432.218 16.699 432.408 16.889L433.225 17.706C433.414 17.895 433.666 17.999 433.932 17.999C434.198 17.999 434.451 17.895 434.638 17.707L435.978 16.369C436.151 16.195 436.242 15.968 436.258 15.725C436.282 15.7083 436.307 15.6938 436.332 15.6793L436.332 15.6792L436.332 15.6792ZM442.414 8.518L441.596 7.7C441.206 7.31 440.694 7.114 440.182 7.114C439.67 7.114 439.158 7.309 438.768 7.7L437.43 9.04C436.848 9.62 436.7 10.473 436.987 11.193L437.653 10.527C437.692 10.4883 437.737 10.4621 437.783 10.4358L437.783 10.4358C437.808 10.4212 437.833 10.4067 437.857 10.39C437.873 10.147 437.964 9.92 438.137 9.746L439.475 8.406C439.665 8.218 439.915 8.114 440.182 8.114C440.449 8.114 440.7 8.218 440.889 8.407L441.706 9.225C441.896 9.415 441.999 9.665 441.999 9.932C441.999 10.199 441.895 10.45 441.706 10.639L440.37 11.977C440.196 12.15 439.967 12.242 439.725 12.257C439.709 12.2808 439.695 12.3052 439.681 12.3295L439.681 12.3295C439.654 12.3767 439.628 12.423 439.588 12.462L438.922 13.128C439.159 13.221 439.41 13.27 439.662 13.27C440.174 13.27 440.686 13.075 441.076 12.684L442.414 11.346C443.194 10.563 443.194 9.296 442.414 8.516V8.518ZM438.88 11.755L435.755 14.88V14.879C435.683 14.951 435.589 14.987 435.495 14.987C435.401 14.987 435.307 14.951 435.235 14.879C435.091 14.735 435.091 14.502 435.235 14.359L438.36 11.235C438.43 11.162 438.526 11.125 438.62 11.125C438.714 11.125 438.808 11.162 438.88 11.235C439.024 11.378 439.024 11.611 438.88 11.755Z" fill="#232323"/>
<path fill-rule="evenodd" clip-rule="evenodd" d="M495.141 4.708L493.021 2.588C492.627 2.195 492.116 2 491.604 2C491.093 2 490.58 2.195 490.19 2.586L487.361 5.415C486.582 6.195 486.582 7.462 487.361 8.243L488.069 7.536C487.88 7.349 487.777 7.098 487.777 6.83C487.777 6.562 487.88 6.312 488.069 6.123L490.896 3.295C491.087 3.105 491.337 3.001 491.604 3.001C491.872 3.001 492.123 3.105 492.312 3.294L494.432 5.414C494.622 5.604 494.726 5.854 494.726 6.121C494.726 6.388 494.623 6.639 494.434 6.828L491.607 9.657C491.417 9.847 491.167 9.95 490.899 9.95C490.631 9.95 490.38 9.846 490.191 9.657L489.484 10.365C489.873 10.755 490.385 10.951 490.898 10.951C491.41 10.951 491.922 10.756 492.313 10.365L495.141 7.537C495.923 6.757 495.923 5.489 495.141 4.707V4.708ZM487.363 12.485L486.655 13.193C486.844 13.383 486.948 13.633 486.948 13.9C486.948 14.167 486.844 14.418 486.655 14.607L483.826 17.435C483.638 17.625 483.386 17.728 483.121 17.728C482.854 17.728 482.602 17.624 482.414 17.435L480.291 15.315C480.102 15.125 479.998 14.875 479.998 14.608C479.998 14.341 480.102 14.09 480.291 13.901L483.12 11.073C483.31 10.883 483.559 10.779 483.826 10.779C484.094 10.779 484.345 10.883 484.534 11.072L485.241 10.365C484.852 9.975 484.339 9.779 483.827 9.779C483.318 9.779 482.805 9.974 482.415 10.365L479.586 13.193C478.805 13.973 478.805 15.24 479.586 16.021L481.707 18.141C482.096 18.533 482.609 18.728 483.121 18.728C483.633 18.728 484.145 18.533 484.535 18.142L487.363 15.314C488.142 14.534 488.142 13.266 487.363 12.484V12.485ZM489.837 8.597L485.595 12.84V12.841C485.497 12.939 485.371 12.986 485.24 12.986C485.113 12.986 484.984 12.938 484.886 12.84C484.692 12.645 484.692 12.328 484.886 12.133L489.131 7.889C489.229 7.792 489.356 7.744 489.484 7.744C489.613 7.744 489.741 7.792 489.837 7.89C490.033 8.085 490.033 8.402 489.837 8.597Z" fill="#232323"/>
<path fill-rule="evenodd" clip-rule="evenodd" d="M327.553 17.5549C328.359 17.9464 329.458 18.48 330.79 18.48L330.789 18.482C332.743 18.482 333.579 17.917 334.029 17.612L334.149 17.532C334.877 17.0668 335.051 15.1339 335.059 15.0516C335.059 15.0502 335.059 15.0493 335.059 15.049C335.063 14.977 335.321 14.789 335.445 14.699L335.449 14.6959C335.732 14.4895 336.086 14.232 336.237 13.826C336.472 13.201 336.323 12.6597 336.225 12.3017L336.225 12.3L336.201 12.21C336.237 12.15 336.304 12.054 336.357 11.98L336.357 11.9795C336.613 11.6185 336.999 11.0747 336.999 10.333C336.999 9.068 335.838 8.368 335.035 8.368C334.781 8.368 334.271 8.384 333.718 8.402C333.626 8.40457 333.533 8.40722 333.44 8.40988C332.881 8.42584 332.315 8.442 331.962 8.442C331.938 8.442 331.913 8.44209 331.886 8.44217C331.519 8.44341 330.948 8.44533 330.552 8.227C330.531 8.1325 330.564 7.82122 330.607 7.41623C330.663 6.89126 330.735 6.20884 330.728 5.637C330.714 4.46 330.269 2 329.302 2C328.604 2 328.128 2.6 327.94 3.26C327.893 3.42521 327.838 3.73778 327.768 4.13379C327.559 5.32223 327.218 7.26217 326.564 8.226C325.917 9.178 324.53 9.806 324.53 9.806L324.296 9.43L320 9.656V18.219L324.507 18.256L324.693 17.556C324.693 17.456 326.287 17.25 326.779 17.196C326.879 17.196 327.038 17.2822 327.235 17.3893C327.33 17.4405 327.433 17.4964 327.543 17.55L327.553 17.5549ZM327.95 16.715C327.439 16.465 327.033 16.268 326.673 16.268V16.265L326.567 16.269C325.888 16.346 324.667 16.564 324.603 16.579L324.573 10.735C324.573 10.735 326.388 9.798 326.918 9.163C327.411 8.57 327.934 7.406 328.164 6.233C328.203 6.03244 328.242 5.78291 328.285 5.51133C328.46 4.39763 328.693 2.913 329.224 2.913C329.687 2.913 329.894 4.576 329.894 5.633C329.894 5.86158 329.843 6.21421 329.785 6.60842C329.663 7.45249 329.512 8.4872 329.778 8.903C330.132 9.459 331.619 9.429 332.272 9.409C332.517 9.4013 333.057 9.37656 333.597 9.3518C334.249 9.32192 334.901 9.292 335.037 9.292C335.323 9.292 336.073 9.61 336.073 10.328C336.073 10.775 335.823 11.128 335.603 11.438C335.398 11.727 335.205 12 335.278 12.334C335.292 12.397 335.31 12.467 335.33 12.542C335.41 12.829 335.5 13.153 335.37 13.497C335.314 13.6445 335.105 13.796 334.902 13.9436L334.9 13.945L334.896 13.9481C334.57 14.1856 334.167 14.4802 334.132 14.983C334.089 15.64 333.818 16.417 333.652 16.745L333.648 16.7477C333.041 17.1559 332.406 17.5829 330.79 17.551C329.667 17.528 328.715 17.087 327.95 16.715Z" fill="#232323"/>
<path d="M383.79 18.48C382.452 18.48 381.35 17.942 380.543 17.55C380.203 17.384 379.926 17.196 379.779 17.196C379.287 17.25 377.693 17.456 377.693 17.556L377.507 18.256L373 18.219V9.656L377.296 9.43L377.53 9.806C377.53 9.806 378.917 9.178 379.564 8.226C380.436 6.941 380.752 3.921 380.94 3.26C381.128 2.6 381.604 2 382.302 2C383.269 2 383.714 4.46 383.728 5.637C383.74 6.65 383.504 8.01 383.552 8.227C383.976 8.461 384.602 8.442 384.962 8.442C385.374 8.442 386.076 8.42 386.718 8.402C387.271 8.384 387.781 8.368 388.035 8.368C388.838 8.368 389.999 9.068 389.999 10.333C389.999 11.075 389.613 11.619 389.357 11.98C389.304 12.054 389.237 12.15 389.201 12.21L389.225 12.3C389.323 12.658 389.472 13.2 389.237 13.826C389.085 14.234 388.729 14.492 388.445 14.699C388.321 14.789 388.063 14.977 388.059 15.049C388.057 15.069 387.889 17.059 387.149 17.532L387.029 17.612C386.579 17.917 385.743 18.482 383.789 18.482L383.79 18.48Z" fill="#232323"/>
<path fill-rule="evenodd" clip-rule="evenodd" d="M224.661 269.516C224.935 269.203 225.071 268.836 225.071 268.416C225.071 268.04 224.938 267.71 224.673 267.426C224.408 267.142 224.065 267 223.645 267C223.267 267 222.945 267.15 222.67 267.454C222.396 267.756 222.26 268.11 222.26 268.516C222.26 268.898 222.396 269.24 222.67 269.538C222.942 269.836 223.266 269.986 223.644 269.986C224.051 269.986 224.388 269.83 224.661 269.516ZM224.285 282.562L224.285 282.56H224.289C224.288 282.561 224.286 282.561 224.285 282.562ZM224.12 283.27L224.285 282.562C224.146 282.613 223.947 282.657 223.687 282.694C223.427 282.731 223.227 282.749 223.087 282.749C222.669 282.749 222.365 282.672 222.177 282.516C221.99 282.362 221.897 282.072 221.897 281.652C221.897 281.475 221.924 281.248 221.979 280.972C222.034 280.694 222.098 280.412 222.171 280.124L223.346 275.418C223.405 275.189 223.45 274.96 223.478 274.732C223.508 274.502 223.522 274.322 223.522 274.188C223.522 273.702 223.387 273.316 223.114 273.028C222.841 272.74 222.402 272.596 221.797 272.596C221.531 272.596 221.171 272.658 220.713 272.783C220.256 272.909 219.741 273.101 219.166 273.359L219 274.067C219.14 274.031 219.343 273.987 219.613 273.934C219.881 273.883 220.096 273.857 220.258 273.857C220.678 273.857 220.956 273.926 221.091 274.062C221.226 274.198 221.296 274.473 221.296 274.886C221.296 275.094 221.268 275.345 221.213 275.64C221.157 275.936 221.1 276.213 221.043 276.47L219.873 281.175C219.807 281.455 219.759 281.689 219.729 281.875C219.7 282.058 219.686 282.235 219.686 282.405C219.686 282.855 219.832 283.234 220.126 283.54C220.421 283.846 220.863 284 221.453 284C221.742 284 222.088 283.945 222.495 283.84C222.9 283.732 223.44 283.543 224.12 283.27Z" fill="#232323"/>
<path fill-rule="evenodd" clip-rule="evenodd" d="M267 275.5C267 270.806 270.806 267 275.5 267C280.194 267 284 270.806 284 275.5C284 280.194 280.194 284 275.5 284C270.806 284 267 280.194 267 275.5ZM283 275.5C283 271.365 279.635 268 275.5 268C271.365 268 268 271.365 268 275.5C268 279.635 271.365 283 275.5 283C279.635 283 283 279.635 283 275.5ZM275.5 273C276.328 273 277 272.328 277 271.5C277 270.672 276.328 270 275.5 270C274.672 270 274 270.672 274 271.5C274 272.328 274.672 273 275.5 273ZM277 280V274H274V280H277Z" fill="#232323"/>
<path fill-rule="evenodd" clip-rule="evenodd" d="M548.083 2H533.083V3H548.083V2ZM548.083 18H533.083V19H548.083V18ZM539.083 14H544.083V15H539.083V14ZM548.083 10H539.083V11H548.083V10ZM539.083 6H548.083V7H539.083V6ZM533 10.52L536.083 15.02V6L533 10.52Z" fill="#232323"/>
<path fill-rule="evenodd" clip-rule="evenodd" d="M601 2H586V3H601V2ZM601 18H586V19H601V18ZM592 14H597V15H592V14ZM601 10H592V11H601V10ZM592 6H601V7H592V6ZM589.083 10.5L586 6V15.02L589.083 10.5Z" fill="#232323"/>
<path fill-rule="evenodd" clip-rule="evenodd" d="M334.79 57H322.21L320 60.867V70H337V60.867L334.79 57ZM333 58V61H330.95C330.718 62.14 329.71 63 328.5 63C327.29 63 326.282 62.14 326.05 61H324V58H333ZM323 58H322.79L321.076 61H323V58ZM321 69V62H325.338C325.908 63.195 327.13 64 328.5 64C329.87 64 331.093 63.195 331.662 62H336V69H321ZM334 58V61H335.924L334.21 58H334Z" fill="#232323"/>
<path fill-rule="evenodd" clip-rule="evenodd" d="M373 55V72H390V55H373ZM389 71H374V70.3L378 64.8L380 67.7L384 62.6L389 69.3V71ZM384 61L389 67.7V56H374V68.6L378 63L380 66L384 61ZM376.5 60C377.3 60 378 59.3 378 58.5C378 57.7 377.3 57 376.5 57C375.7 57 375 57.7 375 58.5C375 59.3 375.7 60 376.5 60ZM377.3 58.5C377.3 58 376.9 57.7 376.5 57.7C376.1 57.7 375.7 58.1 375.7 58.5C375.7 58.9 376.1 59.3 376.5 59.3C376.9 59.3 377.3 58.9 377.3 58.5Z" fill="#232323"/>
<path fill-rule="evenodd" clip-rule="evenodd" d="M432.19 64.202L435.898 56L436.808 56.412L433.1 64.612L432.19 64.202ZM426 60.306L430.243 64.549L430.95 63.842L427.414 60.305L430.95 56.771L430.243 56.064L426 60.306ZM438.051 63.842L438.758 64.549L443 60.306L438.758 56.064L438.05 56.772L441.587 60.306L438.051 63.842ZM431.128 70.517H431.883V66.947H431.13V68.347H429.715V66.947H428.958V70.517H429.715V68.977H431.128V70.517ZM432.784 70.517V66.947H433.541V70.517H432.785H432.784ZM436.9 70.049C437.233 69.736 437.4 69.286 437.4 68.699V68.698C437.4 68.145 437.239 67.716 436.917 67.411C436.595 67.102 436.143 66.949 435.56 66.949H434.44V70.519H435.45C436.08 70.519 436.564 70.361 436.9 70.049ZM436.614 68.719C436.614 67.951 436.276 67.569 435.598 67.569H435.196V69.893H435.52C436.25 69.893 436.614 69.503 436.614 68.72V68.719ZM438.14 70.517H440.195V70.516V69.891H438.895V68.971H440.105V68.351H438.895V67.567H440.195V66.947H438.14V70.517Z" fill="#232323"/>
<path fill-rule="evenodd" clip-rule="evenodd" d="M486.002 65.962V66.681H488.207V66.175C488.207 65.568 488.325 65.085 488.561 64.725C488.797 64.365 489.264 63.912 489.961 63.365C490.777 62.727 491.353 62.21 491.687 61.813C492.021 61.415 492.27 60.998 492.435 60.558C492.601 60.12 492.681 59.62 492.681 59.058C492.681 57.792 492.25 56.8 491.388 56.08C490.526 55.36 489.36 55 487.89 55C486.152 55 484.52 55.425 483 56.272L483.944 58.248C484.52 57.965 485.113 57.721 485.72 57.518C486.328 57.314 486.988 57.214 487.7 57.214C488.487 57.214 489.09 57.383 489.51 57.72C489.93 58.057 490.14 58.54 490.14 59.17C490.14 59.71 490.012 60.174 489.752 60.564C489.493 60.954 488.918 61.501 488.026 62.206C487.277 62.791 486.752 63.357 486.452 63.904C486.152 64.452 486.002 65.137 486.002 65.962ZM488.431 69.014C488.146 68.719 487.734 68.569 487.194 68.569C486.092 68.569 485.542 69.136 485.542 70.267C485.542 70.813 485.684 71.239 485.969 71.543C486.254 71.846 486.666 71.998 487.196 71.998C487.726 71.998 488.136 71.842 488.426 71.532C488.715 71.221 488.859 70.798 488.859 70.268C488.859 69.728 488.717 69.31 488.431 69.014Z" fill="#232323"/>
<path fill-rule="evenodd" clip-rule="evenodd" d="M540.5 59.647C541.31 58.363 542.707 57 544.457 57C546.217 57 548 58.36 548 60.53C548 62.183 547.282 63.58 545.372 65.42L540.482 70L535.647 65.401C533.588 63.342 533 61.903 533 60.548C533 58.342 534.764 57 536.53 57C538.276 57 539.71 58.382 540.5 59.647ZM547 60.53C547 58.778 545.924 58 544.47 58C542.87 58 541.824 59.17 540.5 60.75L540.461 60.7052C539.155 59.2001 538.114 58 536.53 58C535.04 58 534 58.793 534 60.528C534 61.825 534.854 63.35 536.222 64.708L540.5 68.75L544.733 64.708C546.292 63.183 547 61.866 547 60.53Z" fill="#232323"/>
<path d="M597.457 57C595.707 57 594.31 58.363 593.5 59.647C592.71 58.382 591.276 57 589.53 57C587.764 57 586 58.342 586 60.548C586 61.903 586.588 63.342 588.647 65.401L593.482 70L598.372 65.42C600.282 63.58 601 62.183 601 60.53C601 58.36 599.217 57 597.457 57Z" fill="#232323"/>
<path fill-rule="evenodd" clip-rule="evenodd" d="M320 110H337V111H320V110ZM320 116H337V117H320V116ZM337 122H320V123H337V122Z" fill="#232323"/>
<path fill-rule="evenodd" clip-rule="evenodd" d="M381 110H375V116H381V110ZM388 110H382V116H388V110ZM375 117H381V123H375V117ZM388 117H382V123H388V117Z" fill="#232323"/>
<path fill-rule="evenodd" clip-rule="evenodd" d="M443 116.5C443.008 114.758 442.471 113.058 441.464 111.636C440.031 109.582 437.764 108.266 435.27 108.04C435.014 108.015 434.757 108.001 434.5 108L434.466 108.002C434.22 108.004 433.975 108.016 433.73 108.039C429.397 108.429 426 112.066 426 116.5C426 121.194 429.806 125 434.5 125C434.526 125 434.552 124.998 434.578 124.996C434.599 124.995 434.62 124.993 434.641 124.993C439.27 124.917 443 121.147 443 116.5ZM442 116.5C442 116.767 441.985 117.03 441.958 117.29C440.936 118.012 439.834 118.613 438.674 119.08C438.874 118.279 439 117.42 439 116.5C439 115.665 438.892 114.883 438.724 114.146C439.556 113.832 440.361 113.451 441.132 113.007C441.702 114.083 442 115.282 442 116.5ZM431.233 114.467C431.091 115.108 431 115.784 431 116.5C431.007 117.515 431.175 118.523 431.498 119.486C432.312 119.733 433.151 119.885 434 119.937V114.95C433.062 114.899 432.133 114.737 431.233 114.467ZM435 109.215C435.764 110.073 436.87 111.56 437.504 113.498C436.719 113.734 435.874 113.9 435 113.949V109.215ZM431.498 113.498C432.312 113.746 433.151 113.897 434 113.949V109.218C433.237 110.078 432.133 111.565 431.498 113.498ZM434 120.938V123.785C433.166 122.843 432.474 121.785 431.946 120.644C432.602 120.799 433.291 120.903 434 120.938ZM437.05 120.645C436.377 120.805 435.691 120.903 435 120.938V123.782C435.832 122.841 436.522 121.785 437.05 120.645ZM435 119.937V114.95C435.939 114.899 436.868 114.737 437.768 114.467C437.91 115.108 438 115.784 438 116.5C437.993 117.516 437.824 118.525 437.499 119.488C436.687 119.735 435.848 119.886 435 119.937ZM438.457 113.173C439.291 112.853 440.01 112.488 440.6 112.153C439.565 110.703 438.049 109.668 436.321 109.233C437.065 110.183 437.917 111.517 438.457 113.173ZM432.68 109.233C431.935 110.182 431.084 111.516 430.544 113.171C429.805 112.885 429.089 112.545 428.401 112.152C429.436 110.702 430.953 109.668 432.68 109.233ZM430.276 114.146C429.333 113.793 428.523 113.381 427.868 113.007C427.172 114.32 426.885 115.811 427.043 117.288C428.065 118.009 429.166 118.61 430.326 119.077C430.125 118.278 430 117.419 430 116.5C430 115.666 430.108 114.883 430.276 114.146ZM427.326 118.682C428.387 119.342 429.519 119.881 430.7 120.289C431.175 121.541 431.839 122.713 432.669 123.764C430.122 123.12 428.097 121.193 427.326 118.682ZM438.3 120.29C437.825 121.542 437.161 122.714 436.331 123.765C438.877 123.12 440.902 121.194 441.674 118.683C440.613 119.343 439.481 119.882 438.3 120.29Z" fill="#232323"/>
<path fill-rule="evenodd" clip-rule="evenodd" d="M493.355 115.203L496 115.6V117.4L493.355 117.797C493.202 118.49 492.927 119.14 492.555 119.72L494.147 121.874L492.874 123.147L490.72 121.555C490.139 121.925 489.491 122.201 488.797 122.355L488.4 125H486.6L486.203 122.355C485.51 122.202 484.86 121.927 484.28 121.555L482.126 123.147L480.853 121.874L482.445 119.72C482.075 119.139 481.799 118.491 481.645 117.797L479 117.4V115.6L481.645 115.203C481.798 114.51 482.073 113.86 482.445 113.28L480.853 111.126L482.126 109.853L484.28 111.445C484.861 111.075 485.509 110.799 486.203 110.645L486.6 108H488.4L488.797 110.645C489.49 110.798 490.14 111.073 490.72 111.445L492.874 109.853L494.147 111.126L492.555 113.28C492.925 113.861 493.201 114.509 493.355 115.203ZM484.5 116.5C484.5 118.154 485.846 119.5 487.5 119.5C489.154 119.5 490.5 118.154 490.5 116.5C490.5 114.846 489.154 113.5 487.5 113.5C485.846 113.5 484.5 114.846 484.5 116.5Z" fill="#232323"/>
<path fill-rule="evenodd" clip-rule="evenodd" d="M539 110L537.5 109H533C532.448 109 532 109.448 532 110V123C532 123.552 532.448 124 533 124H548C548.552 124 549 123.552 549 123V110H539ZM548 123H533V114H548V123ZM533 110V113H548V111H539C538.803 111 538.61 110.942 538.445 110.832L537.197 110H533Z" fill="#232323"/>
<path fill-rule="evenodd" clip-rule="evenodd" d="M586 109H601V110.029L596 117.904V122.932L591 124V117.967L586 109.983V109ZM597.375 113.812L599.75 110H587.25L588.53 112.125L597.375 113.812Z" fill="#232323"/>
<path fill-rule="evenodd" clip-rule="evenodd" d="M315.953 164.047L330.953 163.953L330.959 164.982L326.009 172.888L326.041 177.916L321.048 179.016L321.01 172.983L315.959 165.03L315.953 164.047ZM325.007 172.638L329.709 164.961L317.209 165.04L322.008 172.72L322.039 177.707L325.036 177.155L325.007 172.638Z" fill="#232323"/>
<path d="M382 163L383.923 167.713L389 168.085L385.11 171.371L386.326 176.314L382 173.631L377.674 176.314L378.889 171.371L375 168.085L380.077 167.713L382 163Z" fill="#232323"/>
<path fill-rule="evenodd" clip-rule="evenodd" d="M487.515 175C482.99 175 480 170 480 170C480 170 482.873 165 487.515 165C492.157 165 495 169.96 495 169.96C495 169.96 492.038 175 487.515 175ZM487.514 174C490.627 174 492.967 171.142 493.805 169.958C492.985 168.793 490.692 166 487.514 166C484.322 166 482.02 168.812 481.2 169.99C482.05 171.167 484.417 174 487.514 174ZM487.5 167C486.114 167 485 168.12 485 169.502C485 170.875 486.115 171.997 487.5 171.997C488.87 171.997 490 170.875 490 169.502C490 168.122 488.87 167 487.5 167ZM486 169C486 169.552 486.448 170 487 170C487.552 170 488 169.552 488 169C488 168.448 487.552 168 487 168C486.448 168 486 168.448 486 169Z" fill="#232323"/>
<path fill-rule="evenodd" clip-rule="evenodd" d="M541.898 162L538.19 170.202L539.1 170.612L542.808 162.412L541.898 162ZM536.95 169.842L533.414 166.306L536.95 162.772L536.243 162.064L532 166.306L536.243 170.549L536.95 169.842ZM549 166.306L544.758 170.549L544.05 169.842L547.587 166.305L544.051 162.771L544.758 162.064L549 166.306ZM536.951 175.692H536.937L536.092 172.962H535.062V176.532H535.738V174.872C535.738 174.682 535.722 174.302 535.692 173.732H535.714L536.574 176.532H537.267L538.187 173.737H538.209C538.189 174.187 538.177 174.463 538.175 174.567C538.172 174.671 538.171 174.762 538.171 174.842V176.532H538.877V172.962H537.847L536.951 175.692ZM532.262 176.532H534.318V175.907H533.018V174.987H534.228V174.367H533.018V173.583H534.318V172.963H532.262V176.532ZM541.784 174.638V174.662H541.783C542.009 174.713 542.173 174.805 542.273 174.945C542.373 175.084 542.423 175.267 542.423 175.497C542.423 175.822 542.304 176.076 542.071 176.259C541.835 176.442 541.515 176.532 541.111 176.532H539.775V172.963H540.885C541.392 172.963 541.759 173.035 541.989 173.179C542.218 173.324 542.332 173.553 542.332 173.867C542.332 174.08 542.284 174.255 542.184 174.392C542.084 174.528 541.95 174.611 541.784 174.638ZM540.534 173.582H540.932C541.149 173.582 541.307 173.612 541.408 173.672C541.508 173.732 541.558 173.829 541.558 173.966C541.558 174.112 541.511 174.218 541.418 174.281C541.325 174.344 541.178 174.375 540.973 174.375H540.533V173.582H540.534ZM541.028 175.908C541.235 175.908 541.388 175.868 541.488 175.788C541.588 175.708 541.638 175.586 541.638 175.42C541.638 175.124 541.426 174.978 541.004 174.978H540.534V175.908H541.028ZM543.137 176.532H545.192V175.907H543.894V174.987H545.102V174.367H543.894V173.583H545.192V172.963H543.137V176.532ZM545.938 172.962H547.058V172.964C547.64 172.964 548.093 173.116 548.416 173.424C548.738 173.732 548.898 174.16 548.898 174.712C548.898 175.3 548.731 175.752 548.398 176.062C548.062 176.376 547.58 176.532 546.948 176.532H545.938V172.962ZM547.018 175.907H546.694V173.582H547.097C547.774 173.582 548.113 173.966 548.113 174.732C548.113 175.515 547.747 175.907 547.019 175.907H547.018Z" fill="#232323"/>
<path fill-rule="evenodd" clip-rule="evenodd" d="M585 169.53C585 164.82 588.806 161 593.5 161C598.194 161 602 164.82 602 169.53C602 174.24 598.194 178.06 593.5 178.06C588.806 178.06 585 174.24 585 169.53ZM601 169.53C601 173.682 597.635 177.06 593.5 177.06C589.365 177.06 586 173.682 586 169.53C586 165.378 589.365 162 593.5 162C597.635 162 601 165.378 601 169.53ZM594 170V164H593V169H588V170H594Z" fill="#232323"/>
<path fill-rule="evenodd" clip-rule="evenodd" d="M320 222.53C320 217.82 323.806 214 328.5 214C333.194 214 337 217.82 337 222.53C337 227.24 333.194 231.06 328.5 231.06C323.806 231.06 320 227.24 320 222.53ZM329 217V223H323V222H328V217H329Z" fill="#232323"/>
<path d="M432.718 173.246L429 169.526L429.707 168.82L432.717 171.832L438.547 166L439.255 166.707L432.718 173.246Z" fill="#232323"/>
<path fill-rule="evenodd" clip-rule="evenodd" d="M374 215H389V230H374V215ZM388 216V229H375V216H388ZM380.09 226.3L376.372 222.58L377.079 221.874L380.089 224.886L385.919 219.054L386.627 219.761L380.09 226.3Z" fill="#232323"/>
<path fill-rule="evenodd" clip-rule="evenodd" d="M442 218H438.333L437 216H432L430.667 218H430V217H428V218H427C426.448 218 426 218.448 426 219V228C426 228.552 426.448 229 427 229H442C442.552 229 443 228.552 443 228V219C443 218.448 442.552 218 442 218ZM431 223.5C431 221.567 432.567 220 434.5 220C436.433 220 438 221.567 438 223.5C438 225.433 436.433 227 434.5 227C432.567 227 431 225.433 431 223.5ZM441 220H440V221H441V220ZM434.5 226C433.122 226 432 224.88 432 223.5C432 222.12 433.122 221 434.5 221C435.88 221 437 222.12 437 223.5C437 224.88 435.88 226 434.5 226ZM436 223.5C436 224.328 435.328 225 434.5 225C433.672 225 433 224.328 433 223.5C433 222.672 433.672 222 434.5 222C435.328 222 436 222.672 436 223.5ZM427 228H442V219H438.333C438 219 437.687 218.833 437.5 218.555L436.464 217H432.534L431.499 218.555C431.314 218.833 431.001 219 430.667 219H427V228Z" fill="#232323"/>
<path fill-rule="evenodd" clip-rule="evenodd" d="M492 216V214H491V216H484V214H483V216H479V231H496V216H492ZM492 217V219H491V217H492ZM484 219V217H483V219H484ZM495 230H480V220H495V230ZM485 229H490V228H486V226H490V222H485V223H489V225H485V229Z" fill="#232323"/>
<path fill-rule="evenodd" clip-rule="evenodd" d="M536.5 217.333C537.052 217.333 537.5 216.885 537.5 216.333C537.5 215.781 537.042 214.708 536.5 214C536 214.625 535.5 215.78 535.5 216.333C535.5 216.886 535.948 217.333 536.5 217.333ZM544.5 217.333C545.052 217.333 545.5 216.885 545.5 216.333C545.5 215.781 545.042 214.708 544.5 214C544 214.625 543.5 215.78 543.5 216.333C543.5 216.886 543.948 217.333 544.5 217.333ZM541.5 216.333C541.5 216.885 541.052 217.333 540.5 217.333C539.948 217.333 539.5 216.886 539.5 216.333C539.5 215.78 540 214.625 540.5 214C541.042 214.708 541.5 215.781 541.5 216.333ZM548.975 223.083C548.912 222.328 548.579 221.653 548.059 221.159C547.977 221.053 547.879 220.959 547.753 220.909C547.26 220.548 546.657 220.333 546 220.333H545V218.333H544V220.333H541V218.333H540V220.333H537V218.333H536V220.333H535C534.343 220.333 533.74 220.55 533.246 220.909C533.121 220.961 533.023 221.053 532.942 221.159C532.422 221.653 532.089 222.329 532.026 223.085L532 223.083V229.378C532 229.93 532.448 230.378 533 230.378H548C548.552 230.378 549 229.93 549 229.378V223.083H548.975ZM533 224.326V229.379H548V224.325C547.718 224.482 547.48 224.7 547.218 224.948L547.214 224.952C546.647 225.483 546.005 226.084 544.748 226.084C543.487 226.084 542.845 225.481 542.279 224.949L542.278 224.948C541.765 224.464 541.359 224.084 540.495 224.084C539.631 224.084 539.226 224.465 538.713 224.948L538.712 224.949C538.146 225.481 537.504 226.084 536.245 226.084C534.986 226.084 534.345 225.48 533.781 224.949L533.78 224.948C533.518 224.701 533.282 224.482 533 224.326Z" fill="#232323"/>
<path d="M599.097 223C599.307 223.573 599.854 223.984 600.5 223.984C601.328 223.984 602 223.312 602 222.484C602 221.656 601.328 220.984 600.5 220.984C599.842 220.984 599.29 221.41 599.087 222H592V217H599.092C599.299 217.58 599.848 218 600.5 218C601.328 218 602 217.328 602 216.5C602 215.672 601.328 215 600.5 215C599.848 215 599.298 215.42 599.092 216H587.908C587.702 215.42 587.152 215 586.5 215C585.672 215 585 215.672 585 216.5C585 217.328 585.672 218 586.5 218C587.152 218 587.702 217.58 587.908 217H591V223H594V229H599.087C599.289 229.59 599.842 230.016 600.5 230.016C601.328 230.016 602 229.344 602 228.516C602 227.688 601.328 227.016 600.5 227.016C599.854 227.016 599.308 227.426 599.097 228H595V223H599.097Z" fill="#232323"/>
<path fill-rule="evenodd" clip-rule="evenodd" d="M329 270L333 268L332 270H335L330 272H329V270ZM336 273H321V275H323V278V279V283H328H329H334V279V278V275H336V273ZM333.154 275H329V278H333.154V275ZM328 275H323.846V278H328V275ZM324 268L328 270V272H327L322 270H325L324 268ZM328 279H323.846V282H328V279ZM333.154 279H329V282H333.154V279Z" fill="#232323"/>
<path fill-rule="evenodd" clip-rule="evenodd" d="M388.012 276.2C388.522 276.552 388.939 276.993 389.258 277.524C389.578 278.056 389.738 278.68 389.738 279.399C389.738 280.261 389.555 280.989 389.192 281.585C388.828 282.18 388.307 282.649 387.628 282.992C386.908 283.359 386.081 283.619 385.142 283.772C384.204 283.922 383.1 283.999 381.83 283.999H373V283.065C373.247 283.041 373.56 283.005 373.934 282.958C374.309 282.908 374.574 282.852 374.724 282.788C375.02 282.668 375.224 282.512 375.33 282.315C375.438 282.12 375.492 281.865 375.492 281.555V269.575C375.492 269.287 375.448 269.048 375.36 268.855C375.272 268.665 375.06 268.497 374.725 268.353C374.477 268.25 374.19 268.163 373.863 268.096C373.535 268.028 373.247 267.974 373 267.933V267H382.237C384.561 267 386.239 267.32 387.269 267.958C388.299 268.596 388.814 269.538 388.814 270.785C388.814 271.36 388.698 271.865 388.466 272.3C388.234 272.736 387.904 273.113 387.472 273.432C387.08 273.727 386.612 273.982 386.07 274.199C385.527 274.414 384.945 274.593 384.322 274.737V274.965C384.945 275.029 385.592 275.167 386.262 275.379C386.934 275.591 387.516 275.865 388.012 276.199V276.2ZM384.154 271.085C384.154 270.143 383.889 269.408 383.357 268.881C382.827 268.354 382.029 268.091 380.967 268.091C380.815 268.091 380.617 268.097 380.374 268.109L379.744 268.139V274.44H380.368C381.662 274.44 382.615 274.14 383.231 273.536C383.847 272.932 384.155 272.116 384.155 271.086L384.154 271.085ZM383.939 276.524C384.641 277.156 384.994 278.065 384.994 279.249L384.992 279.246C384.992 280.408 384.694 281.308 384.099 281.946C383.505 282.588 382.731 282.908 381.781 282.908C381.244 282.908 380.79 282.806 380.414 282.602C380.039 282.398 379.816 282.148 379.744 281.852V275.625C379.864 275.615 380.049 275.605 380.302 275.595C380.553 275.582 380.755 275.577 380.907 275.577C382.224 275.577 383.236 275.892 383.939 276.524Z" fill="#232323"/>
<path fill-rule="evenodd" clip-rule="evenodd" d="M440.047 273.001C440.047 272.561 439.704 272.211 439.273 272.179C439.661 271.989 439.848 271.535 439.683 271.127C439.553 270.803 439.24 270.607 438.91 270.607C438.805 270.607 438.7 270.627 438.597 270.667L438.531 270.693L438.581 270.643C438.907 270.318 438.907 269.79 438.581 269.465C438.419 269.302 438.206 269.221 437.993 269.221C437.78 269.221 437.566 269.301 437.403 269.465L437.353 269.515L437.38 269.449C437.55 269.022 437.345 268.537 436.92 268.364C436.818 268.324 436.715 268.304 436.613 268.304C436.303 268.304 436.011 268.482 435.867 268.774C435.835 268.344 435.485 268 435.047 268C434.587 268 434.213 268.372 434.213 268.832V268.902L434.185 268.838C434.05 268.521 433.742 268.331 433.417 268.33C433.307 268.33 433.197 268.35 433.092 268.397C432.688 268.567 432.5 269.021 432.639 269.431C432.479 269.295 432.283 269.226 432.087 269.226C431.877 269.226 431.67 269.306 431.509 269.466C431.199 269.776 431.194 270.266 431.476 270.593C431.386 270.563 431.293 270.548 431.202 270.548C430.88 270.548 430.576 270.732 430.442 271.048C430.262 271.471 430.46 271.96 430.882 272.14L430.949 272.166H430.879C430.419 272.166 430.046 272.539 430.046 272.999C430.046 273.437 430.389 273.789 430.82 273.819C430.432 274.011 430.245 274.464 430.41 274.872C430.54 275.196 430.853 275.392 431.183 275.392C431.287 275.392 431.393 275.372 431.495 275.332L431.56 275.305L431.51 275.355C431.185 275.681 431.185 276.208 431.51 276.535C431.673 276.697 431.886 276.778 432.1 276.778C432.312 276.778 432.526 276.696 432.688 276.533L432.738 276.483L432.712 276.549C432.54 276.977 432.746 277.462 433.172 277.635C433.272 277.675 433.376 277.695 433.478 277.695C433.788 277.695 434.08 277.517 434.224 277.225C434.256 277.655 434.606 277.999 435.044 277.999C435.504 277.999 435.878 277.626 435.878 277.166V277.096L435.906 277.16C436.041 277.478 436.349 277.67 436.674 277.67C436.784 277.67 436.894 277.648 436.999 277.603C437.402 277.431 437.591 276.978 437.451 276.569C437.609 276.705 437.806 276.774 438.001 276.774C438.211 276.774 438.419 276.694 438.581 276.534C438.891 276.224 438.896 275.734 438.613 275.407C438.703 275.437 438.796 275.453 438.887 275.453C439.209 275.453 439.513 275.269 439.647 274.953C439.827 274.529 439.629 274.039 439.207 273.859L439.141 273.831H439.211C439.671 273.831 440.045 273.459 440.045 272.998L440.047 273.001ZM435.047 275C436.152 275 437.047 274.105 437.047 273C437.047 271.895 436.152 271 435.047 271C433.942 271 433.047 271.895 433.047 273C433.047 274.105 433.942 275 435.047 275ZM434.043 278.678L434.043 278.679L434.042 278.678H434.043ZM434.043 278.679L433.051 281.251L432.027 280.131L430.515 280.276L431.521 277.661C431.257 277.573 431.007 277.446 430.804 277.243C430.773 277.212 430.75 277.175 430.728 277.139C430.713 277.114 430.698 277.09 430.68 277.067L429 281.427L431.625 281.173L433.402 283.121L434.992 278.991C434.642 278.981 434.319 278.865 434.043 278.679ZM438.489 277.686C438.786 277.603 439.066 277.467 439.291 277.243L439.289 277.244C439.304 277.229 439.315 277.211 439.326 277.194C439.334 277.18 439.343 277.165 439.354 277.152L441 281.427L438.375 281.174L436.598 283.121L435.008 278.993C435.015 278.993 435.021 278.994 435.027 278.996L435.027 278.996C435.032 278.997 435.038 278.998 435.044 278.998C435.389 278.998 435.699 278.884 435.974 278.718L436.95 281.25L437.974 280.13L439.486 280.276L438.489 277.686ZM432.047 273.001C432.047 274.657 433.39 276.001 435.047 276.001C436.704 276.001 438.047 274.659 438.047 273.001C438.047 271.343 436.704 270.001 435.047 270.001C433.39 270.001 432.047 271.345 432.047 273.001Z" fill="#232323"/>
<path d="M490.353 282.708L483 275.354L490.353 268L491.061 268.708L484.414 275.354L491.061 282" fill="#232323"/>
<path d="M536.708 282.708L544.061 275.354L536.708 268L536 268.708L542.647 275.354L536 282" fill="#232323"/>
<path d="M594.5 284C591.724 284 590 282.084 590 279V270.5C590 268.76 591.202 267 593.5 267C595.594 267 597 268.406 597 270.5V278.5C597 279.707 595.995 281 594.5 281C593.098 281 592 279.902 592 278.5V273H593V278.5C593 279.355 593.645 280 594.5 280C595.397 280 596 279.225 596 278.5V270.5C596 269.347 595.346 268 593.5 268C591.773 268 591 269.256 591 270.5V279C591 280.203 591.34 283 594.5 283C597.545 283 598 280.494 598 279V273H599V279C599 282.13 597.317 284 594.5 284Z" fill="#232323"/>
<path fill-rule="evenodd" clip-rule="evenodd" d="M385.356 439.458C386.282 439.098 387.083 438.626 387.756 438.04H387.752L387.439 437.525C386.773 438.078 386.022 438.498 385.187 438.788C384.352 439.077 383.4 439.221 382.33 439.221C381.38 439.221 380.498 439.07 379.683 438.766C378.869 438.463 378.163 438.009 377.563 437.403C376.948 436.777 376.475 436.001 376.138 435.075C375.801 434.15 375.633 433.078 375.633 431.858C375.633 430.594 375.851 429.456 376.282 428.452C376.713 427.448 377.275 426.611 377.97 425.938C378.683 425.244 379.474 424.718 380.34 424.362C381.207 424.006 382.1 423.826 383.017 423.826C383.981 423.826 384.836 423.973 385.581 424.27C386.331 424.567 386.951 424.972 387.441 425.482C387.953 426.001 388.333 426.599 388.583 427.275C388.832 427.952 388.957 428.688 388.957 429.482C388.957 431.085 388.607 432.375 387.907 433.355C387.206 434.335 386.334 434.825 385.29 434.825C385.013 434.825 384.788 434.745 384.613 434.588C384.438 434.43 384.351 434.179 384.351 433.834C384.351 433.707 384.369 433.534 384.406 433.314C384.443 433.097 384.491 432.902 384.553 432.734L386.462 427.302H384.952L384.512 428.432H384.452C384.384 428.021 384.204 427.71 383.912 427.497C383.619 427.285 383.284 427.18 382.907 427.18C382.202 427.18 381.545 427.387 380.937 427.797C380.33 428.208 379.833 428.693 379.45 429.251C379.068 429.803 378.762 430.383 378.538 430.993C378.313 431.603 378.2 432.153 378.2 432.645C378.2 433.171 378.267 433.607 378.397 433.967C378.527 434.327 378.704 434.615 378.927 434.837C379.147 435.047 379.401 435.197 379.687 435.287C379.973 435.377 380.254 435.424 380.529 435.424C380.954 435.424 381.371 435.276 381.784 434.984C382.199 434.691 382.566 434.297 382.889 433.807L382.959 433.827C383.007 434.346 383.229 434.748 383.627 435.034C384.025 435.322 384.51 435.464 385.083 435.464C386.465 435.464 387.608 434.898 388.511 433.762C389.416 432.627 389.866 431.239 389.866 429.595C389.866 428.74 389.73 427.92 389.458 427.13C389.185 426.344 388.775 425.646 388.23 425.04C387.684 424.428 386.985 423.934 386.13 423.56C385.274 423.187 384.264 423 383.1 423C381.753 423 380.508 423.253 379.369 423.763C378.228 424.272 377.27 424.94 376.494 425.768C375.693 426.616 375.076 427.583 374.646 428.666C374.216 429.75 374 430.87 374 432.02C374 433.366 374.24 434.537 374.716 435.53C375.196 436.523 375.826 437.352 376.606 438.02C377.393 438.686 378.28 439.183 379.263 439.51C380.245 439.836 381.246 440 382.263 440C383.4 440 384.433 439.818 385.356 439.458ZM383.785 428.142C383.994 428.392 384.145 428.789 384.24 429.336V429.337L383.08 432.755C382.765 433.335 382.424 433.784 382.06 434.101C381.698 434.418 381.286 434.575 380.828 434.575C380.511 434.575 380.283 434.423 380.145 434.115C380.008 433.809 379.938 433.369 379.938 432.795C379.938 432.297 380.012 431.751 380.156 431.161C380.3 430.571 380.504 430.028 380.766 429.528C381.014 429.048 381.319 428.638 381.679 428.288C382.04 427.941 382.435 427.768 382.865 427.768C383.27 427.768 383.577 427.892 383.785 428.142Z" fill="#232323"/>
<path fill-rule="evenodd" clip-rule="evenodd" d="M5 321V336H13.414L16 333.414V321H5ZM13 333V335H6V322H15V333H13ZM13 323H7V324H13V323ZM7 325H14V326H7V325ZM13 329H7V330H13V329ZM7 327H11V328H7V327ZM11 331H7V332H11V331Z" fill="#232323"/>
<path fill-rule="evenodd" clip-rule="evenodd" d="M56 320H71V321H56V320ZM56 336H71V337H56V336ZM66 332H56V333H66V332ZM56 324H66V325H56V324ZM66 328H56V329H66V328Z" fill="#232323"/>
<path fill-rule="evenodd" clip-rule="evenodd" d="M109 320H124V321H109V320ZM109 336H124V337H109V336ZM121 332H112V333H121V332ZM112 324H121V325H112V324ZM123 328H110V329H123V328Z" fill="#232323"/>
<path fill-rule="evenodd" clip-rule="evenodd" d="M162 320H177V321H162V320ZM162 336H177V337H162V336ZM177 332H169V333H177V332ZM169 328H177V329H169V328ZM177 324H169V325H177V324Z" fill="#232323"/>
<path fill-rule="evenodd" clip-rule="evenodd" d="M220.657 333.035L219.412 329.857H215.406L214.176 333.035H213L216.951 323H217.929L221.86 333.035H220.657ZM219.05 328.811L217.888 325.714C217.737 325.322 217.583 324.841 217.423 324.272C217.323 324.709 217.179 325.19 216.992 325.714L215.817 328.811H219.05ZM221.934 329.802V328.763H225.29V329.802H221.934ZM231.36 333.035H225.925V332.263L230.013 326.425H226.178V325.543H231.257V326.425L227.224 332.154H231.36V333.035Z" fill="#232323"/>
<mask id="mask0" mask-type="alpha" maskUnits="userSpaceOnUse" x="213" y="323" width="19" height="11">
<path fill-rule="evenodd" clip-rule="evenodd" d="M220.657 333.035L219.412 329.857H215.406L214.176 333.035H213L216.951 323H217.929L221.86 333.035H220.657ZM219.05 328.811L217.888 325.714C217.737 325.322 217.583 324.841 217.423 324.272C217.323 324.709 217.179 325.19 216.992 325.714L215.817 328.811H219.05ZM221.934 329.802V328.763H225.29V329.802H221.934ZM231.36 333.035H225.925V332.263L230.013 326.425H226.178V325.543H231.257V326.425L227.224 332.154H231.36V333.035Z" fill="white"/>
</mask>
<g mask="url(#mask0)">
<path fill-rule="evenodd" clip-rule="evenodd" d="M212 318H233V339H212V318Z" fill="#232323"/>
</g>
<path fill-rule="evenodd" clip-rule="evenodd" d="M326.377 333.037L325.653 330.658H322.008L321.284 333.037H319L322.528 323H325.119L328.661 333.037H326.377ZM325.147 328.88C324.477 326.724 324.1 325.505 324.015 325.222C323.931 324.94 323.87 324.716 323.834 324.552C323.684 325.136 323.253 326.578 322.542 328.88H325.147ZM328.578 330.138V328.429H332.25V330.138H328.578ZM337.58 333.037H331.543V331.807L335.084 326.986H331.755V325.393H337.457V326.747L334.011 331.444H337.58V333.037Z" fill="#232323"/>
<path fill-rule="evenodd" clip-rule="evenodd" d="M379.437 332.994H372V331.62L376.792 324.75H372.13V323H379.307V324.367L374.522 331.244H379.437V332.994ZM379.689 330.095V328.387H383.36V330.095H379.689ZM389.224 332.994L388.821 331.955H388.766C388.415 332.397 388.054 332.703 387.683 332.874C387.311 333.045 386.827 333.13 386.23 333.13C385.496 333.13 384.919 332.921 384.497 332.502C384.076 332.082 383.865 331.485 383.865 330.711C383.865 329.899 384.148 329.301 384.716 328.916C385.283 328.531 386.139 328.318 387.283 328.277L388.609 328.236V327.901C388.609 327.126 388.212 326.739 387.419 326.739C386.809 326.739 386.091 326.924 385.266 327.293L384.576 325.885C385.455 325.424 386.43 325.194 387.501 325.194C388.527 325.194 389.313 325.418 389.86 325.864C390.407 326.311 390.68 326.99 390.68 327.901V332.994H389.224ZM388.609 329.453L387.802 329.48C387.196 329.498 386.745 329.608 386.449 329.808C386.152 330.009 386.004 330.314 386.004 330.724C386.004 331.312 386.342 331.606 387.016 331.606C387.499 331.606 387.885 331.467 388.175 331.189C388.464 330.911 388.609 330.542 388.609 330.082V329.453Z" fill="#232323"/>
<path fill-rule="evenodd" clip-rule="evenodd" d="M108 10.5C108 5.806 111.806 2 116.5 2C121.194 2 125 5.806 125 10.5C125 15.194 121.194 19 116.5 19C111.806 19 108 15.194 108 10.5ZM120.036 14.743L120.743 14.036L117.207 10.5L120.743 6.964L120.036 6.257L116.5 9.793L112.964 6.258L112.257 6.965L115.793 10.5L112.257 14.036L112.964 14.743L116.5 11.207L120.036 14.743Z" fill="#232323"/>
<path fill-rule="evenodd" clip-rule="evenodd" d="M59 7V10H70V19H57V10H58V7C58 4.243 60.467 2 63.5 2C65.42 2 67.173 2.888 68.181 4.375L67.355 4.937C66.53 3.724 65.09 3 63.5 3C61.02 3 59 4.794 59 7ZM58 11V18H69V11H58ZM63.5 15C64.152 15 64.702 14.58 64.908 14H66.5V13H64.908C64.701 12.42 64.152 12 63.5 12C62.672 12 62 12.672 62 13.5C62 14.328 62.672 15 63.5 15ZM64 13.5C64 13.224 63.776 13 63.5 13C63.224 13 63 13.224 63 13.5C63 13.776 63.224 14 63.5 14C63.776 14 64 13.776 64 13.5Z" fill="#232323"/>
<path fill-rule="evenodd" clip-rule="evenodd" d="M5 5C5 5.55228 4.55228 6 4 6C3.44772 6 3 5.55228 3 5C3 4.44772 3.44772 4 4 4C4.55228 4 5 4.44772 5 5ZM5 10C5 10.5523 4.55228 11 4 11C3.44772 11 3 10.5523 3 10C3 9.44772 3.44772 9 4 9C4.55228 9 5 9.44772 5 10ZM4 16C4.55228 16 5 15.5523 5 15C5 14.4477 4.55228 14 4 14C3.44772 14 3 14.4477 3 15C3 15.5523 3.44772 16 4 16ZM18 4.5H7V5.5H18V4.5ZM7 9.5H18V10.5H7V9.5ZM18 14.5H7V15.5H18V14.5Z" fill="#232323"/>
<path fill-rule="evenodd" clip-rule="evenodd" d="M481 321L496 328.5L481 336L483.647 329.824L490.706 328.5L483.647 327.176L481 321Z" fill="#232323"/>
<path fill-rule="evenodd" clip-rule="evenodd" d="M546 324L540 330L539 329L545 323H542V322H547V327H546V324ZM534 322H538V323H535V334H546V331H547V335H534V322Z" fill="#232323"/>
<path fill-rule="evenodd" clip-rule="evenodd" d="M588 333L594 327L595 328L589 334H592V335H587V330H588V333ZM600 335H596V334H599V323H588V326H587V322H600V335Z" fill="#232323"/>
<path d="M4.0833 379.879L4.57516 379.388L7.09081 381.889L12.3965 376.538L12.9186 377.059L12.9237 377.054L13.632 377.761L7.09181 384.304L3.372 380.582L4.07934 379.875L4.0833 379.879ZM5 389.973H7H18V378.973V376.973H20V391.973H18H5V389.973ZM15 374V387H2V374H15ZM16 373H1V388H16V373Z" fill="#232323"/>
<path fill-rule="evenodd" clip-rule="evenodd" d="M113 376H121V377H113V376ZM113 380H119V381H113V380ZM113 384H117V385H113V384ZM108 375H109V387L111 385L112.001 385L108.5 389L105 385H106L108 387V375Z" fill="#232323"/>
<path fill-rule="evenodd" clip-rule="evenodd" d="M66 387H69V388H57V387H60V386H66V387ZM56 378V385H70V378H56ZM55 377H71V386H55V377Z" fill="#232323"/>
<path d="M265 373.992C265 372.892 265.893 372 266.992 372H283.008C284.108 372 285 372.893 285 373.992V390.008C285 391.108 284.107 392 283.008 392H266.992C265.892 392 265 391.107 265 390.008V373.992ZM266 373.992V390.008C266 390.555 266.445 391 266.992 391H283.008C283.555 391 284 390.555 284 390.008V373.992C284 373.445 283.555 373 283.008 373H266.992C266.445 373 266 373.445 266 373.992ZM268.837 387L269.019 386.363C269.052 386.247 269.113 386.048 269.198 385.795C269.338 385.373 269.495 384.95 269.665 384.553C270.223 383.251 270.76 382.5 271.5 382.5C272.024 382.5 272.401 382.641 273.224 383.053C273.901 383.391 274.69 383.508 275 383.508C275.31 383.509 276.099 383.391 276.777 383.053C277.599 382.641 277.976 382.5 278.5 382.5C279.24 382.5 279.777 383.251 280.335 384.553C280.505 384.95 280.662 385.373 280.802 385.795C280.887 386.048 280.948 386.247 280.981 386.363L281.163 387H268.837ZM270.585 384.947C270.441 385.281 270.307 385.639 270.184 386H279.816C279.693 385.639 279.559 385.281 279.415 384.947C279.036 384.061 278.635 383.5 278.5 383.5C278.19 383.5 277.901 383.609 277.224 383.947C276.401 384.358 275 384.5 275 384.5C275 384.5 273.599 384.358 272.777 383.947C272.099 383.609 271.81 383.5 271.5 383.5C271.365 383.5 270.964 384.061 270.585 384.947ZM275 388H280V389H275V388ZM270 388H274V389H270V388ZM275 382C273.343 382 272 380.657 272 379C272 377.343 273.343 376 275 376C276.657 376 278 377.343 278 379C278 380.657 276.657 382 275 382ZM275 381C276.105 381 277 380.105 277 379C277 377.895 276.105 377 275 377C273.895 377 273 377.895 273 379C273 380.105 273.895 381 275 381Z" fill="#232323"/>
<path d="M334 372.003C335.105 372.005 336 372.898 336 374.006V387.998C336 389.103 335.1 390 334.008 390H320L318 388V372V370H332.008C333.108 370 334 370.893 334 372.002V372.003ZM334 373.003V385.994C334 387.1 333.1 387.996 332.008 387.996H319.41L320.414 389H334.008C334.55 389 335 388.549 335 387.998V374.006C335 373.451 334.554 373.005 334 373.003ZM319 386.997H332.008C332.55 386.997 333 386.546 333 385.994V372.002C333 371.446 332.556 371 332.008 371H319V386.997ZM321 374.999V373.999H331V374.999H321ZM323 376.999V375.999H329V376.999H323Z" fill="#232323"/>
<path fill-rule="evenodd" clip-rule="evenodd" d="M159 389H158V374H177V375H178V390H159V389ZM159 375V388H176V375H159ZM161 379H166V384H161V379ZM161 377H174V378H161V377ZM167 379H174V380H167V379ZM167 381H174V382H167V381ZM167 383H174V384H167V383ZM161 385H174V386H161V385Z" fill="#232323"/>
<path fill-rule="evenodd" clip-rule="evenodd" d="M231 374C232.105 374 233 374.895 233 376V387C233 388.105 232.105 389 231 389H221L219 391L217 389H215C213.895 389 213 388.105 213 387V376C213 374.895 213.895 374 215 374H231ZM232 376C232 375.45 231.55 375 231 375H215C214.45 375 214 375.45 214 376V387C214 387.55 214.45 388 215 388H217.414L219 389.586L220.586 388H231C231.55 388 232 387.55 232 387V376ZM216 384H227V385H216V384ZM216 381H230V382H216V381ZM216 378H229V379H216V378Z" fill="#232323"/>
<path fill-rule="evenodd" clip-rule="evenodd" d="M388 387.001H392V383.003H388V387.001ZM380 387.001H384V383.003H380V387.001ZM372 387.001H376V383.003H372V387.001ZM393 388H387V386.001H385V388H379V386.001H377V388H371V382.004H377V384.003H379V382.004H385V384.003H387V382.004H393V388ZM381 378.006L379.29 377.996C378.682 377.946 378.19 377.454 378.015 376.847V373.149C378.19 372.542 378.682 372.05 379.29 372L384.725 372.01C385.333 372.06 385.825 372.552 386 373.159V376.857C385.825 377.464 385.333 377.956 384.725 378.006H383V381.005H381V378.006ZM378.992 373.423V376.587C378.992 376.817 379.217 377.004 379.492 377.004L384.5 377.007C384.775 377.007 385 376.82 385 376.591V373.426C385 373.197 384.775 373.01 384.5 373.01L379.492 373.006C379.217 373.006 378.992 373.193 378.992 373.423Z" fill="#232323"/>
<path fill-rule="evenodd" clip-rule="evenodd" d="M442 373H444V391H428V389H426V371H442V373ZM429 389V390H443V374H442H429V389ZM431 386H440V387H431V386ZM431 384H441V385H431V384ZM431 382H440V383H431V382ZM431 380H441V381H431V380ZM431 378H438V379H431V378ZM431 376H441V377H431V376ZM427 388H428V373H441V372H427V388Z" fill="#232323"/>
<path fill-rule="evenodd" clip-rule="evenodd" d="M439.79 321H429.21L426 326.867V336H443V326.867L439.79 321ZM439 322L442 327H436.95C436.718 328.14 435.71 329 434.5 329C433.29 329 432.282 328.14 432.05 327H427L430 322H439ZM431 323H438V324H431V323ZM429 325H440V326H429V325ZM442 335H427V328H431.338C431.908 329.195 433.13 330 434.5 330C435.87 330 437.093 329.195 437.662 328H442V335Z" fill="#232323"/>
<path fill-rule="evenodd" clip-rule="evenodd" d="M439.79 424H429.21L426 429.867V439H443V429.867L439.79 424ZM439 425L442 430H436.95C436.718 431.14 435.71 432 434.5 432C433.29 432 432.282 431.14 432.05 430H427L430 425H439ZM431 426H438V427H431V426ZM429 428H440V429H429V428ZM442 438H427V431H431.338C431.908 432.195 433.13 433 434.5 433C435.87 433 437.093 432.195 437.662 431H442V438Z" fill="#232323"/>
<path fill-rule="evenodd" clip-rule="evenodd" d="M427 434V435H431.337C431.899 436.182 433.104 437 434.5 437C435.896 437 437.101 436.182 437.663 435H442V434H427ZM432.5 435C432.956 435.607 433.682 436 434.5 436C435.318 436 436.044 435.607 436.5 435H432.5Z" fill="#232323"/>
<path fill-rule="evenodd" clip-rule="evenodd" d="M482 424V439H493V426.586L490.414 424H482ZM490 425V427H492V438H483V425H490Z" fill="#232323"/>
<rect width="21" height="21" transform="translate(265 318)" fill="white"/>
<path fill-rule="evenodd" clip-rule="evenodd" d="M273.871 332.996H267V332.087L272.306 324.046H267.164V323H273.721V323.909L268.415 331.943H273.871V332.996ZM274.506 329.762V328.723H277.863V329.762H274.506ZM283.749 332.996L283.523 331.929H283.469C283.095 332.399 282.722 332.717 282.351 332.883C281.979 333.049 281.516 333.133 280.959 333.133C280.217 333.133 279.634 332.941 279.213 332.558C278.791 332.175 278.58 331.631 278.58 330.924C278.58 329.411 279.79 328.618 282.211 328.545L283.482 328.504V328.039C283.482 327.451 283.356 327.017 283.103 326.736C282.85 326.456 282.445 326.316 281.889 326.316C281.265 326.316 280.558 326.507 279.77 326.89L279.421 326.022C279.79 325.821 280.195 325.664 280.635 325.55C281.075 325.436 281.516 325.379 281.958 325.379C282.851 325.379 283.513 325.578 283.944 325.974C284.375 326.371 284.59 327.007 284.59 327.882V332.996H283.749ZM281.185 332.196C281.892 332.196 282.447 332.002 282.85 331.615C283.253 331.227 283.455 330.685 283.455 329.988V329.311L282.32 329.359C281.418 329.39 280.767 329.531 280.368 329.779C279.969 330.027 279.77 330.414 279.77 330.938C279.77 331.348 279.894 331.66 280.142 331.875C280.391 332.089 280.738 332.196 281.185 332.196Z" fill="#232323"/>
<path d="M492 382L490 381L489.21 374.895L491 374V373H482V374L483.79 374.895L483 381L481 382V383H486V387.5C486 387.776 486.224 388 486.5 388C486.776 388 487 387.776 487 387.5V383H492V382ZM484.784 375H488.216L488.883 381H484.117L484.784 375Z" fill="#232323"/>
<path fill-rule="evenodd" clip-rule="evenodd" d="M537 372C534.791 372 533 373.791 533 376V385C533 387.209 534.791 389 537 389H544C546.209 389 548 387.209 548 385V376C548 373.791 546.209 372 544 372H537ZM539.902 380.303H539.316V377.988H539.867C540.453 377.988 540.885 378.074 541.162 378.246C541.443 378.418 541.584 378.707 541.584 379.113C541.584 379.523 541.447 379.824 541.174 380.016C540.9 380.207 540.477 380.303 539.902 380.303ZM539.316 385.066V381.779H540.283L542.328 385.066H544.344C543.953 384.504 543.113 383.26 541.824 381.334C542.332 381.111 542.725 380.805 543.002 380.414C543.279 380.02 543.418 379.57 543.418 379.066C543.418 378.203 543.139 377.561 542.58 377.139C542.021 376.713 541.16 376.5 539.996 376.5H537.5V385.066H539.316Z" fill="#232323"/>
<path fill-rule="evenodd" clip-rule="evenodd" d="M69.5 172.5L72.5 175.5C72.5 175.5 70.0237 178.472 70 178.5L66.5 175.5C66.5 175.5 66.1756 173.16 66 173C65.8244 172.84 64.5 173.5 64.5 173.5C64.5 173.5 63.5 174 62 174C58 174 56 171.314 56 168C56 164.686 58.686 162 62 162C65.314 162 68 164.686 68 168C68 170 67.5 170.5 67.5 170.5L67 172L69.5 172.5ZM62 163C59.243 163 57 165.243 57 168C57 170.757 59.243 173 62 173C64.757 173 67 170.757 67 168C67 165.243 64.757 163 62 163Z" fill="#232323"/>
<path fill-rule="evenodd" clip-rule="evenodd" d="M17 434V426H4V434H7V436H14V434H17ZM5 433V427H16V433H5ZM16 437V436H5V437H16Z" fill="#232323"/>
<path fill-rule="evenodd" clip-rule="evenodd" d="M67.1805 424L68.0465 424.5L67.2576 425.866C67.9933 425.873 69 425.94 69 425.94H70V433.94H67V435.94H69V436.94H60.8643L59.8847 438.637L59.0187 438.137L67.1805 424ZM63.1737 432.94H69V426.94H66.6378L63.1737 432.94ZM64 425.94V426.94H58V432.94H60V433.94H57V425.94H64Z" fill="#232323"/>
<g clip-path="url(#clip0)">
<path fill-rule="evenodd" clip-rule="evenodd" d="M112.5 424C111.119 424 110 425.119 110 426.5V427H114V428H110V430H114V431H110V431.5C110 432.881 111.119 434 112.5 434C113.881 434 115 432.881 115 431.5V426.5C115 425.119 113.881 424 112.5 424ZM113.727 436C115.535 436 117 434.209 117 432H116C116 433.657 114.955 435 113.667 435H111.333C110.045 435 109 433.657 109 432H108C108 434.209 109.465 436 111.273 436H112V438H110V439H115V438H113V436H113.727Z" fill="#232323"/>
</g>
<path fill-rule="evenodd" clip-rule="evenodd" d="M169.5 424C169.927 424 170.33 424.107 170.681 424.296L169 427.208V427H167V426.5C167 425.119 168.119 424 169.5 424ZM167 428H168.543L167.388 430H167V428ZM166 432C166 432.127 166.006 432.251 166.018 432.374L165.287 433.64C165.103 433.139 165 432.584 165 432H166ZM167.505 435.889L165.885 438.697L165.019 438.197L173.181 424.06L174.047 424.56L172 428.105V431.5C172 432.881 170.881 434 169.5 434C169.211 434 168.934 433.951 168.676 433.861L168.033 434.975C168.131 434.992 168.232 435 168.333 435H170.667C171.955 435 173 433.657 173 432H174C174 434.209 172.535 436 170.727 436H170V438H172V439H167V438H169V436H168.273C168.008 436 167.752 435.962 167.505 435.889Z" fill="#232323"/>
<path fill-rule="evenodd" clip-rule="evenodd" d="M217 427H225C226.105 427 227 427.895 227 429V430L230 428V435L227 433V434C227 435.105 226.105 436 225 436H217C215.895 436 215 435.105 215 434V429C215 427.895 215.895 427 217 427ZM217 428C216.448 428 216 428.448 216 429V434C216 434.552 216.448 435 217 435H225C225.552 435 226 434.552 226 434V429C226 428.448 225.552 428 225 428H217Z" fill="#232323"/>
<path fill-rule="evenodd" clip-rule="evenodd" d="M271.019 438.137L279.181 424L280.047 424.5L278.587 427.028C279.405 427.279 280 428.04 280 428.94V429.94L283 427.94V434.94L280 432.94V433.94C280 435.045 279.105 435.94 278 435.94H273.442L271.885 438.637L271.019 438.137ZM274.019 434.94H278C278.552 434.94 279 434.492 279 433.94V428.94C279 428.408 278.584 427.973 278.059 427.942L274.019 434.94ZM270 427.94H274.596L275.174 426.94H270C268.895 426.94 268 427.835 268 428.94V433.94C268 435.037 268.883 435.928 269.978 435.94L270.555 434.94H270C269.448 434.94 269 434.492 269 433.94V428.94C269 428.388 269.448 427.94 270 427.94Z" fill="#232323"/>
<path fill-rule="evenodd" clip-rule="evenodd" d="M332.943 431C333.943 431 330.943 435 334.514 435C337.943 435 336.941 431.998 335.943 431C334.943 430 331.973 429 328.446 429C324.919 429 321.943 430 320.943 431C319.943 432 318.943 435 322.443 435C325.943 435 322.943 431 323.943 431C324.453 431 326.916 431 328.446 431C329.915 431 332.453 431 332.943 431Z" fill="#232323"/>
<path fill-rule="evenodd" clip-rule="evenodd" d="M597 382.829C598.165 382.417 599 381.306 599 380C599 378.694 598.165 377.582 597 377.171V378.268C597.598 378.613 598 379.26 598 380C598 380.74 597.598 381.387 597 381.732V382.829Z" fill="#232323"/>
<path fill-rule="evenodd" clip-rule="evenodd" d="M597 385.917C599.838 385.441 602 382.973 602 380C602 377.027 599.838 374.559 597 374.083V375.1C599.282 375.563 601 377.581 601 380C601 382.419 599.282 384.437 597 384.9V385.917Z" fill="#232323"/>
<path fill-rule="evenodd" clip-rule="evenodd" d="M593.333 374L588 378H586C585.448 378 585 378.448 585 379V381C585 381.552 585.448 382 586 382H587H588L593.333 386H595V374H593.333ZM593.623 385H594V375H593.623L589 378.55V381.45L593.623 385Z" fill="#232323"/>
<defs>
<clipPath id="clip0">
<rect width="21" height="21" fill="white" transform="translate(102 421)"/>
</clipPath>
</defs>
</svg>
